<?xml version="1.0" encoding="utf-8" standalone="no"?>
<!DOCTYPE svg PUBLIC "-//W3C//DTD SVG 1.1//EN"
  "http://www.w3.org/Graphics/SVG/1.1/DTD/svg11.dtd">
<svg xmlns:xlink="http://www.w3.org/1999/xlink" width="819.783594pt" height="326.10375pt" viewBox="0 0 819.783594 326.10375" xmlns="http://www.w3.org/2000/svg" version="1.1">
 <metadata>
  <rdf:RDF xmlns:dc="http://purl.org/dc/elements/1.1/" xmlns:cc="http://creativecommons.org/ns#" xmlns:rdf="http://www.w3.org/1999/02/22-rdf-syntax-ns#">
   <cc:Work>
    <dc:type rdf:resource="http://purl.org/dc/dcmitype/StillImage"/>
    <dc:date>2025-09-09T13:24:08.469192</dc:date>
    <dc:format>image/svg+xml</dc:format>
    <dc:creator>
     <cc:Agent>
      <dc:title>Matplotlib v3.9.4, https://matplotlib.org/</dc:title>
     </cc:Agent>
    </dc:creator>
   </cc:Work>
  </rdf:RDF>
 </metadata>
 <defs>
  <style type="text/css">*{stroke-linejoin: round; stroke-linecap: butt}</style>
 </defs>
 <g id="figure_1">
  <g id="patch_1">
   <path d="M 0 326.10375 
L 819.783594 326.10375 
L 819.783594 0 
L 0 0 
z
" style="fill: #ffffff"/>
  </g>
  <g id="axes_1">
   <g id="patch_2">
    <path d="M 55.342656 291.935625 
L 382.160048 291.935625 
L 382.160048 21.935625 
L 55.342656 21.935625 
z
" style="fill: #ffffff"/>
   </g>
   <g id="matplotlib.axis_1">
    <g id="xtick_1">
     <g id="line2d_1">
      <path d="M 94.117601 291.935625 
L 94.117601 21.935625 
" clip-path="url(#p17131d8ae2)" style="fill: none; stroke-dasharray: 2.96,1.28; stroke-dashoffset: 0; stroke: #808080; stroke-opacity: 0.3; stroke-width: 0.8"/>
     </g>
     <g id="line2d_2">
      <defs>
       <path id="mf3e84a7cf7" d="M 0 0 
L 0 -3.5 
" style="stroke: #000000; stroke-width: 0.8"/>
      </defs>
      <g>
       <use xlink:href="#mf3e84a7cf7" x="94.117601" y="291.935625" style="stroke: #000000; stroke-width: 0.8"/>
      </g>
     </g>
     <g id="text_1">
      <!-- 8 -->
      <g transform="translate(91.337132 302.593437) scale(0.1 -0.1)">
       <defs>
        <path id="ArialMT-38" d="M 1131 2484 
Q 781 2613 612 2850 
Q 444 3088 444 3419 
Q 444 3919 803 4259 
Q 1163 4600 1759 4600 
Q 2359 4600 2725 4251 
Q 3091 3903 3091 3403 
Q 3091 3084 2923 2848 
Q 2756 2613 2416 2484 
Q 2838 2347 3058 2040 
Q 3278 1734 3278 1309 
Q 3278 722 2862 322 
Q 2447 -78 1769 -78 
Q 1091 -78 675 323 
Q 259 725 259 1325 
Q 259 1772 486 2073 
Q 713 2375 1131 2484 
z
M 1019 3438 
Q 1019 3113 1228 2906 
Q 1438 2700 1772 2700 
Q 2097 2700 2305 2904 
Q 2513 3109 2513 3406 
Q 2513 3716 2298 3927 
Q 2084 4138 1766 4138 
Q 1444 4138 1231 3931 
Q 1019 3725 1019 3438 
z
M 838 1322 
Q 838 1081 952 856 
Q 1066 631 1291 507 
Q 1516 384 1775 384 
Q 2178 384 2440 643 
Q 2703 903 2703 1303 
Q 2703 1709 2433 1975 
Q 2163 2241 1756 2241 
Q 1359 2241 1098 1978 
Q 838 1716 838 1322 
z
" transform="scale(0.015625)"/>
       </defs>
       <use xlink:href="#ArialMT-38"/>
      </g>
     </g>
    </g>
    <g id="xtick_2">
     <g id="line2d_3">
      <path d="M 138.431824 291.935625 
L 138.431824 21.935625 
" clip-path="url(#p17131d8ae2)" style="fill: none; stroke-dasharray: 2.96,1.28; stroke-dashoffset: 0; stroke: #808080; stroke-opacity: 0.3; stroke-width: 0.8"/>
     </g>
     <g id="line2d_4">
      <g>
       <use xlink:href="#mf3e84a7cf7" x="138.431824" y="291.935625" style="stroke: #000000; stroke-width: 0.8"/>
      </g>
     </g>
     <g id="text_2">
      <!-- 16 -->
      <g transform="translate(132.870886 302.593437) scale(0.1 -0.1)">
       <defs>
        <path id="ArialMT-31" d="M 2384 0 
L 1822 0 
L 1822 3584 
Q 1619 3391 1289 3197 
Q 959 3003 697 2906 
L 697 3450 
Q 1169 3672 1522 3987 
Q 1875 4303 2022 4600 
L 2384 4600 
L 2384 0 
z
" transform="scale(0.015625)"/>
        <path id="ArialMT-36" d="M 3184 3459 
L 2625 3416 
Q 2550 3747 2413 3897 
Q 2184 4138 1850 4138 
Q 1581 4138 1378 3988 
Q 1113 3794 959 3422 
Q 806 3050 800 2363 
Q 1003 2672 1297 2822 
Q 1591 2972 1913 2972 
Q 2475 2972 2870 2558 
Q 3266 2144 3266 1488 
Q 3266 1056 3080 686 
Q 2894 316 2569 119 
Q 2244 -78 1831 -78 
Q 1128 -78 684 439 
Q 241 956 241 2144 
Q 241 3472 731 4075 
Q 1159 4600 1884 4600 
Q 2425 4600 2770 4297 
Q 3116 3994 3184 3459 
z
M 888 1484 
Q 888 1194 1011 928 
Q 1134 663 1356 523 
Q 1578 384 1822 384 
Q 2178 384 2434 671 
Q 2691 959 2691 1453 
Q 2691 1928 2437 2201 
Q 2184 2475 1800 2475 
Q 1419 2475 1153 2201 
Q 888 1928 888 1484 
z
" transform="scale(0.015625)"/>
       </defs>
       <use xlink:href="#ArialMT-31"/>
       <use xlink:href="#ArialMT-36" x="55.615234"/>
      </g>
     </g>
    </g>
    <g id="xtick_3">
     <g id="line2d_5">
      <path d="M 182.746046 291.935625 
L 182.746046 21.935625 
" clip-path="url(#p17131d8ae2)" style="fill: none; stroke-dasharray: 2.96,1.28; stroke-dashoffset: 0; stroke: #808080; stroke-opacity: 0.3; stroke-width: 0.8"/>
     </g>
     <g id="line2d_6">
      <g>
       <use xlink:href="#mf3e84a7cf7" x="182.746046" y="291.935625" style="stroke: #000000; stroke-width: 0.8"/>
      </g>
     </g>
     <g id="text_3">
      <!-- 24 -->
      <g transform="translate(177.185109 302.593437) scale(0.1 -0.1)">
       <defs>
        <path id="ArialMT-32" d="M 3222 541 
L 3222 0 
L 194 0 
Q 188 203 259 391 
Q 375 700 629 1000 
Q 884 1300 1366 1694 
Q 2113 2306 2375 2664 
Q 2638 3022 2638 3341 
Q 2638 3675 2398 3904 
Q 2159 4134 1775 4134 
Q 1369 4134 1125 3890 
Q 881 3647 878 3216 
L 300 3275 
Q 359 3922 746 4261 
Q 1134 4600 1788 4600 
Q 2447 4600 2831 4234 
Q 3216 3869 3216 3328 
Q 3216 3053 3103 2787 
Q 2991 2522 2730 2228 
Q 2469 1934 1863 1422 
Q 1356 997 1212 845 
Q 1069 694 975 541 
L 3222 541 
z
" transform="scale(0.015625)"/>
        <path id="ArialMT-34" d="M 2069 0 
L 2069 1097 
L 81 1097 
L 81 1613 
L 2172 4581 
L 2631 4581 
L 2631 1613 
L 3250 1613 
L 3250 1097 
L 2631 1097 
L 2631 0 
L 2069 0 
z
M 2069 1613 
L 2069 3678 
L 634 1613 
L 2069 1613 
z
" transform="scale(0.015625)"/>
       </defs>
       <use xlink:href="#ArialMT-32"/>
       <use xlink:href="#ArialMT-34" x="55.615234"/>
      </g>
     </g>
    </g>
    <g id="xtick_4">
     <g id="line2d_7">
      <path d="M 227.060269 291.935625 
L 227.060269 21.935625 
" clip-path="url(#p17131d8ae2)" style="fill: none; stroke-dasharray: 2.96,1.28; stroke-dashoffset: 0; stroke: #808080; stroke-opacity: 0.3; stroke-width: 0.8"/>
     </g>
     <g id="line2d_8">
      <g>
       <use xlink:href="#mf3e84a7cf7" x="227.060269" y="291.935625" style="stroke: #000000; stroke-width: 0.8"/>
      </g>
     </g>
     <g id="text_4">
      <!-- 32 -->
      <g transform="translate(221.499331 302.593437) scale(0.1 -0.1)">
       <defs>
        <path id="ArialMT-33" d="M 269 1209 
L 831 1284 
Q 928 806 1161 595 
Q 1394 384 1728 384 
Q 2125 384 2398 659 
Q 2672 934 2672 1341 
Q 2672 1728 2419 1979 
Q 2166 2231 1775 2231 
Q 1616 2231 1378 2169 
L 1441 2663 
Q 1497 2656 1531 2656 
Q 1891 2656 2178 2843 
Q 2466 3031 2466 3422 
Q 2466 3731 2256 3934 
Q 2047 4138 1716 4138 
Q 1388 4138 1169 3931 
Q 950 3725 888 3313 
L 325 3413 
Q 428 3978 793 4289 
Q 1159 4600 1703 4600 
Q 2078 4600 2393 4439 
Q 2709 4278 2876 4000 
Q 3044 3722 3044 3409 
Q 3044 3113 2884 2869 
Q 2725 2625 2413 2481 
Q 2819 2388 3044 2092 
Q 3269 1797 3269 1353 
Q 3269 753 2831 336 
Q 2394 -81 1725 -81 
Q 1122 -81 723 278 
Q 325 638 269 1209 
z
" transform="scale(0.015625)"/>
       </defs>
       <use xlink:href="#ArialMT-33"/>
       <use xlink:href="#ArialMT-32" x="55.615234"/>
      </g>
     </g>
    </g>
    <g id="xtick_5">
     <g id="line2d_9">
      <path d="M 271.374491 291.935625 
L 271.374491 21.935625 
" clip-path="url(#p17131d8ae2)" style="fill: none; stroke-dasharray: 2.96,1.28; stroke-dashoffset: 0; stroke: #808080; stroke-opacity: 0.3; stroke-width: 0.8"/>
     </g>
     <g id="line2d_10">
      <g>
       <use xlink:href="#mf3e84a7cf7" x="271.374491" y="291.935625" style="stroke: #000000; stroke-width: 0.8"/>
      </g>
     </g>
     <g id="text_5">
      <!-- 40 -->
      <g transform="translate(265.813554 302.593437) scale(0.1 -0.1)">
       <defs>
        <path id="ArialMT-30" d="M 266 2259 
Q 266 3072 433 3567 
Q 600 4063 929 4331 
Q 1259 4600 1759 4600 
Q 2128 4600 2406 4451 
Q 2684 4303 2865 4023 
Q 3047 3744 3150 3342 
Q 3253 2941 3253 2259 
Q 3253 1453 3087 958 
Q 2922 463 2592 192 
Q 2263 -78 1759 -78 
Q 1097 -78 719 397 
Q 266 969 266 2259 
z
M 844 2259 
Q 844 1131 1108 757 
Q 1372 384 1759 384 
Q 2147 384 2411 759 
Q 2675 1134 2675 2259 
Q 2675 3391 2411 3762 
Q 2147 4134 1753 4134 
Q 1366 4134 1134 3806 
Q 844 3388 844 2259 
z
" transform="scale(0.015625)"/>
       </defs>
       <use xlink:href="#ArialMT-34"/>
       <use xlink:href="#ArialMT-30" x="55.615234"/>
      </g>
     </g>
    </g>
    <g id="xtick_6">
     <g id="line2d_11">
      <path d="M 315.688714 291.935625 
L 315.688714 21.935625 
" clip-path="url(#p17131d8ae2)" style="fill: none; stroke-dasharray: 2.96,1.28; stroke-dashoffset: 0; stroke: #808080; stroke-opacity: 0.3; stroke-width: 0.8"/>
     </g>
     <g id="line2d_12">
      <g>
       <use xlink:href="#mf3e84a7cf7" x="315.688714" y="291.935625" style="stroke: #000000; stroke-width: 0.8"/>
      </g>
     </g>
     <g id="text_6">
      <!-- 48 -->
      <g transform="translate(310.127776 302.593437) scale(0.1 -0.1)">
       <use xlink:href="#ArialMT-34"/>
       <use xlink:href="#ArialMT-38" x="55.615234"/>
      </g>
     </g>
    </g>
    <g id="xtick_7">
     <g id="line2d_13">
      <path d="M 360.002936 291.935625 
L 360.002936 21.935625 
" clip-path="url(#p17131d8ae2)" style="fill: none; stroke-dasharray: 2.96,1.28; stroke-dashoffset: 0; stroke: #808080; stroke-opacity: 0.3; stroke-width: 0.8"/>
     </g>
     <g id="line2d_14">
      <g>
       <use xlink:href="#mf3e84a7cf7" x="360.002936" y="291.935625" style="stroke: #000000; stroke-width: 0.8"/>
      </g>
     </g>
     <g id="text_7">
      <!-- 56 -->
      <g transform="translate(354.441999 302.593437) scale(0.1 -0.1)">
       <defs>
        <path id="ArialMT-35" d="M 266 1200 
L 856 1250 
Q 922 819 1161 601 
Q 1400 384 1738 384 
Q 2144 384 2425 690 
Q 2706 997 2706 1503 
Q 2706 1984 2436 2262 
Q 2166 2541 1728 2541 
Q 1456 2541 1237 2417 
Q 1019 2294 894 2097 
L 366 2166 
L 809 4519 
L 3088 4519 
L 3088 3981 
L 1259 3981 
L 1013 2750 
Q 1425 3038 1878 3038 
Q 2478 3038 2890 2622 
Q 3303 2206 3303 1553 
Q 3303 931 2941 478 
Q 2500 -78 1738 -78 
Q 1113 -78 717 272 
Q 322 622 266 1200 
z
" transform="scale(0.015625)"/>
       </defs>
       <use xlink:href="#ArialMT-35"/>
       <use xlink:href="#ArialMT-36" x="55.615234"/>
      </g>
     </g>
    </g>
    <g id="text_8">
     <!-- Prediction Steps (5min/step) -->
     <g transform="translate(149.669633 316.588594) scale(0.11 -0.11)">
      <defs>
       <path id="ArialMT-50" d="M 494 0 
L 494 4581 
L 2222 4581 
Q 2678 4581 2919 4538 
Q 3256 4481 3484 4323 
Q 3713 4166 3852 3881 
Q 3991 3597 3991 3256 
Q 3991 2672 3619 2267 
Q 3247 1863 2275 1863 
L 1100 1863 
L 1100 0 
L 494 0 
z
M 1100 2403 
L 2284 2403 
Q 2872 2403 3119 2622 
Q 3366 2841 3366 3238 
Q 3366 3525 3220 3729 
Q 3075 3934 2838 4000 
Q 2684 4041 2272 4041 
L 1100 4041 
L 1100 2403 
z
" transform="scale(0.015625)"/>
       <path id="ArialMT-72" d="M 416 0 
L 416 3319 
L 922 3319 
L 922 2816 
Q 1116 3169 1280 3281 
Q 1444 3394 1641 3394 
Q 1925 3394 2219 3213 
L 2025 2691 
Q 1819 2813 1613 2813 
Q 1428 2813 1281 2702 
Q 1134 2591 1072 2394 
Q 978 2094 978 1738 
L 978 0 
L 416 0 
z
" transform="scale(0.015625)"/>
       <path id="ArialMT-65" d="M 2694 1069 
L 3275 997 
Q 3138 488 2766 206 
Q 2394 -75 1816 -75 
Q 1088 -75 661 373 
Q 234 822 234 1631 
Q 234 2469 665 2931 
Q 1097 3394 1784 3394 
Q 2450 3394 2872 2941 
Q 3294 2488 3294 1666 
Q 3294 1616 3291 1516 
L 816 1516 
Q 847 969 1125 678 
Q 1403 388 1819 388 
Q 2128 388 2347 550 
Q 2566 713 2694 1069 
z
M 847 1978 
L 2700 1978 
Q 2663 2397 2488 2606 
Q 2219 2931 1791 2931 
Q 1403 2931 1139 2672 
Q 875 2413 847 1978 
z
" transform="scale(0.015625)"/>
       <path id="ArialMT-64" d="M 2575 0 
L 2575 419 
Q 2259 -75 1647 -75 
Q 1250 -75 917 144 
Q 584 363 401 755 
Q 219 1147 219 1656 
Q 219 2153 384 2558 
Q 550 2963 881 3178 
Q 1213 3394 1622 3394 
Q 1922 3394 2156 3267 
Q 2391 3141 2538 2938 
L 2538 4581 
L 3097 4581 
L 3097 0 
L 2575 0 
z
M 797 1656 
Q 797 1019 1065 703 
Q 1334 388 1700 388 
Q 2069 388 2326 689 
Q 2584 991 2584 1609 
Q 2584 2291 2321 2609 
Q 2059 2928 1675 2928 
Q 1300 2928 1048 2622 
Q 797 2316 797 1656 
z
" transform="scale(0.015625)"/>
       <path id="ArialMT-69" d="M 425 3934 
L 425 4581 
L 988 4581 
L 988 3934 
L 425 3934 
z
M 425 0 
L 425 3319 
L 988 3319 
L 988 0 
L 425 0 
z
" transform="scale(0.015625)"/>
       <path id="ArialMT-63" d="M 2588 1216 
L 3141 1144 
Q 3050 572 2676 248 
Q 2303 -75 1759 -75 
Q 1078 -75 664 370 
Q 250 816 250 1647 
Q 250 2184 428 2587 
Q 606 2991 970 3192 
Q 1334 3394 1763 3394 
Q 2303 3394 2647 3120 
Q 2991 2847 3088 2344 
L 2541 2259 
Q 2463 2594 2264 2762 
Q 2066 2931 1784 2931 
Q 1359 2931 1093 2626 
Q 828 2322 828 1663 
Q 828 994 1084 691 
Q 1341 388 1753 388 
Q 2084 388 2306 591 
Q 2528 794 2588 1216 
z
" transform="scale(0.015625)"/>
       <path id="ArialMT-74" d="M 1650 503 
L 1731 6 
Q 1494 -44 1306 -44 
Q 1000 -44 831 53 
Q 663 150 594 308 
Q 525 466 525 972 
L 525 2881 
L 113 2881 
L 113 3319 
L 525 3319 
L 525 4141 
L 1084 4478 
L 1084 3319 
L 1650 3319 
L 1650 2881 
L 1084 2881 
L 1084 941 
Q 1084 700 1114 631 
Q 1144 563 1211 522 
Q 1278 481 1403 481 
Q 1497 481 1650 503 
z
" transform="scale(0.015625)"/>
       <path id="ArialMT-6f" d="M 213 1659 
Q 213 2581 725 3025 
Q 1153 3394 1769 3394 
Q 2453 3394 2887 2945 
Q 3322 2497 3322 1706 
Q 3322 1066 3130 698 
Q 2938 331 2570 128 
Q 2203 -75 1769 -75 
Q 1072 -75 642 372 
Q 213 819 213 1659 
z
M 791 1659 
Q 791 1022 1069 705 
Q 1347 388 1769 388 
Q 2188 388 2466 706 
Q 2744 1025 2744 1678 
Q 2744 2294 2464 2611 
Q 2184 2928 1769 2928 
Q 1347 2928 1069 2612 
Q 791 2297 791 1659 
z
" transform="scale(0.015625)"/>
       <path id="ArialMT-6e" d="M 422 0 
L 422 3319 
L 928 3319 
L 928 2847 
Q 1294 3394 1984 3394 
Q 2284 3394 2536 3286 
Q 2788 3178 2913 3003 
Q 3038 2828 3088 2588 
Q 3119 2431 3119 2041 
L 3119 0 
L 2556 0 
L 2556 2019 
Q 2556 2363 2490 2533 
Q 2425 2703 2258 2804 
Q 2091 2906 1866 2906 
Q 1506 2906 1245 2678 
Q 984 2450 984 1813 
L 984 0 
L 422 0 
z
" transform="scale(0.015625)"/>
       <path id="ArialMT-20" transform="scale(0.015625)"/>
       <path id="ArialMT-53" d="M 288 1472 
L 859 1522 
Q 900 1178 1048 958 
Q 1197 738 1509 602 
Q 1822 466 2213 466 
Q 2559 466 2825 569 
Q 3091 672 3220 851 
Q 3350 1031 3350 1244 
Q 3350 1459 3225 1620 
Q 3100 1781 2813 1891 
Q 2628 1963 1997 2114 
Q 1366 2266 1113 2400 
Q 784 2572 623 2826 
Q 463 3081 463 3397 
Q 463 3744 659 4045 
Q 856 4347 1234 4503 
Q 1613 4659 2075 4659 
Q 2584 4659 2973 4495 
Q 3363 4331 3572 4012 
Q 3781 3694 3797 3291 
L 3216 3247 
Q 3169 3681 2898 3903 
Q 2628 4125 2100 4125 
Q 1550 4125 1298 3923 
Q 1047 3722 1047 3438 
Q 1047 3191 1225 3031 
Q 1400 2872 2139 2705 
Q 2878 2538 3153 2413 
Q 3553 2228 3743 1945 
Q 3934 1663 3934 1294 
Q 3934 928 3725 604 
Q 3516 281 3123 101 
Q 2731 -78 2241 -78 
Q 1619 -78 1198 103 
Q 778 284 539 648 
Q 300 1013 288 1472 
z
" transform="scale(0.015625)"/>
       <path id="ArialMT-70" d="M 422 -1272 
L 422 3319 
L 934 3319 
L 934 2888 
Q 1116 3141 1344 3267 
Q 1572 3394 1897 3394 
Q 2322 3394 2647 3175 
Q 2972 2956 3137 2557 
Q 3303 2159 3303 1684 
Q 3303 1175 3120 767 
Q 2938 359 2589 142 
Q 2241 -75 1856 -75 
Q 1575 -75 1351 44 
Q 1128 163 984 344 
L 984 -1272 
L 422 -1272 
z
M 931 1641 
Q 931 1000 1190 694 
Q 1450 388 1819 388 
Q 2194 388 2461 705 
Q 2728 1022 2728 1688 
Q 2728 2322 2467 2637 
Q 2206 2953 1844 2953 
Q 1484 2953 1207 2617 
Q 931 2281 931 1641 
z
" transform="scale(0.015625)"/>
       <path id="ArialMT-73" d="M 197 991 
L 753 1078 
Q 800 744 1014 566 
Q 1228 388 1613 388 
Q 2000 388 2187 545 
Q 2375 703 2375 916 
Q 2375 1106 2209 1216 
Q 2094 1291 1634 1406 
Q 1016 1563 777 1677 
Q 538 1791 414 1992 
Q 291 2194 291 2438 
Q 291 2659 392 2848 
Q 494 3038 669 3163 
Q 800 3259 1026 3326 
Q 1253 3394 1513 3394 
Q 1903 3394 2198 3281 
Q 2494 3169 2634 2976 
Q 2775 2784 2828 2463 
L 2278 2388 
Q 2241 2644 2061 2787 
Q 1881 2931 1553 2931 
Q 1166 2931 1000 2803 
Q 834 2675 834 2503 
Q 834 2394 903 2306 
Q 972 2216 1119 2156 
Q 1203 2125 1616 2013 
Q 2213 1853 2448 1751 
Q 2684 1650 2818 1456 
Q 2953 1263 2953 975 
Q 2953 694 2789 445 
Q 2625 197 2315 61 
Q 2006 -75 1616 -75 
Q 969 -75 630 194 
Q 291 463 197 991 
z
" transform="scale(0.015625)"/>
       <path id="ArialMT-28" d="M 1497 -1347 
Q 1031 -759 709 28 
Q 388 816 388 1659 
Q 388 2403 628 3084 
Q 909 3875 1497 4659 
L 1900 4659 
Q 1522 4009 1400 3731 
Q 1209 3300 1100 2831 
Q 966 2247 966 1656 
Q 966 153 1900 -1347 
L 1497 -1347 
z
" transform="scale(0.015625)"/>
       <path id="ArialMT-6d" d="M 422 0 
L 422 3319 
L 925 3319 
L 925 2853 
Q 1081 3097 1340 3245 
Q 1600 3394 1931 3394 
Q 2300 3394 2536 3241 
Q 2772 3088 2869 2813 
Q 3263 3394 3894 3394 
Q 4388 3394 4653 3120 
Q 4919 2847 4919 2278 
L 4919 0 
L 4359 0 
L 4359 2091 
Q 4359 2428 4304 2576 
Q 4250 2725 4106 2815 
Q 3963 2906 3769 2906 
Q 3419 2906 3187 2673 
Q 2956 2441 2956 1928 
L 2956 0 
L 2394 0 
L 2394 2156 
Q 2394 2531 2256 2718 
Q 2119 2906 1806 2906 
Q 1569 2906 1367 2781 
Q 1166 2656 1075 2415 
Q 984 2175 984 1722 
L 984 0 
L 422 0 
z
" transform="scale(0.015625)"/>
       <path id="ArialMT-2f" d="M 0 -78 
L 1328 4659 
L 1778 4659 
L 453 -78 
L 0 -78 
z
" transform="scale(0.015625)"/>
       <path id="ArialMT-29" d="M 791 -1347 
L 388 -1347 
Q 1322 153 1322 1656 
Q 1322 2244 1188 2822 
Q 1081 3291 891 3722 
Q 769 4003 388 4659 
L 791 4659 
Q 1378 3875 1659 3084 
Q 1900 2403 1900 1659 
Q 1900 816 1576 28 
Q 1253 -759 791 -1347 
z
" transform="scale(0.015625)"/>
      </defs>
      <use xlink:href="#ArialMT-50"/>
      <use xlink:href="#ArialMT-72" x="66.699219"/>
      <use xlink:href="#ArialMT-65" x="100"/>
      <use xlink:href="#ArialMT-64" x="155.615234"/>
      <use xlink:href="#ArialMT-69" x="211.230469"/>
      <use xlink:href="#ArialMT-63" x="233.447266"/>
      <use xlink:href="#ArialMT-74" x="283.447266"/>
      <use xlink:href="#ArialMT-69" x="311.230469"/>
      <use xlink:href="#ArialMT-6f" x="333.447266"/>
      <use xlink:href="#ArialMT-6e" x="389.0625"/>
      <use xlink:href="#ArialMT-20" x="444.677734"/>
      <use xlink:href="#ArialMT-53" x="472.460938"/>
      <use xlink:href="#ArialMT-74" x="539.160156"/>
      <use xlink:href="#ArialMT-65" x="566.943359"/>
      <use xlink:href="#ArialMT-70" x="622.558594"/>
      <use xlink:href="#ArialMT-73" x="678.173828"/>
      <use xlink:href="#ArialMT-20" x="728.173828"/>
      <use xlink:href="#ArialMT-28" x="755.957031"/>
      <use xlink:href="#ArialMT-35" x="789.257812"/>
      <use xlink:href="#ArialMT-6d" x="844.873047"/>
      <use xlink:href="#ArialMT-69" x="928.173828"/>
      <use xlink:href="#ArialMT-6e" x="950.390625"/>
      <use xlink:href="#ArialMT-2f" x="1006.005859"/>
      <use xlink:href="#ArialMT-73" x="1033.789062"/>
      <use xlink:href="#ArialMT-74" x="1083.789062"/>
      <use xlink:href="#ArialMT-65" x="1111.572266"/>
      <use xlink:href="#ArialMT-70" x="1167.1875"/>
      <use xlink:href="#ArialMT-29" x="1222.802734"/>
     </g>
    </g>
   </g>
   <g id="matplotlib.axis_2">
    <g id="ytick_1">
     <g id="line2d_15">
      <path d="M 55.342656 280.813652 
L 382.160048 280.813652 
" clip-path="url(#p17131d8ae2)" style="fill: none; stroke-dasharray: 2.96,1.28; stroke-dashoffset: 0; stroke: #808080; stroke-opacity: 0.3; stroke-width: 0.8"/>
     </g>
     <g id="line2d_16">
      <defs>
       <path id="m4d675d4658" d="M 0 0 
L 3.5 0 
" style="stroke: #000000; stroke-width: 0.8"/>
      </defs>
      <g>
       <use xlink:href="#m4d675d4658" x="55.342656" y="280.813652" style="stroke: #000000; stroke-width: 0.8"/>
      </g>
     </g>
     <g id="text_9">
      <!-- 0.0050 -->
      <g transform="translate(21.259844 284.392558) scale(0.1 -0.1)">
       <defs>
        <path id="ArialMT-2e" d="M 581 0 
L 581 641 
L 1222 641 
L 1222 0 
L 581 0 
z
" transform="scale(0.015625)"/>
       </defs>
       <use xlink:href="#ArialMT-30"/>
       <use xlink:href="#ArialMT-2e" x="55.615234"/>
       <use xlink:href="#ArialMT-30" x="83.398438"/>
       <use xlink:href="#ArialMT-30" x="139.013672"/>
       <use xlink:href="#ArialMT-35" x="194.628906"/>
       <use xlink:href="#ArialMT-30" x="250.244141"/>
      </g>
     </g>
    </g>
    <g id="ytick_2">
     <g id="line2d_17">
      <path d="M 55.342656 246.110517 
L 382.160048 246.110517 
" clip-path="url(#p17131d8ae2)" style="fill: none; stroke-dasharray: 2.96,1.28; stroke-dashoffset: 0; stroke: #808080; stroke-opacity: 0.3; stroke-width: 0.8"/>
     </g>
     <g id="line2d_18">
      <g>
       <use xlink:href="#m4d675d4658" x="55.342656" y="246.110517" style="stroke: #000000; stroke-width: 0.8"/>
      </g>
     </g>
     <g id="text_10">
      <!-- 0.0075 -->
      <g transform="translate(21.259844 249.689424) scale(0.1 -0.1)">
       <defs>
        <path id="ArialMT-37" d="M 303 3981 
L 303 4522 
L 3269 4522 
L 3269 4084 
Q 2831 3619 2401 2847 
Q 1972 2075 1738 1259 
Q 1569 684 1522 0 
L 944 0 
Q 953 541 1156 1306 
Q 1359 2072 1739 2783 
Q 2119 3494 2547 3981 
L 303 3981 
z
" transform="scale(0.015625)"/>
       </defs>
       <use xlink:href="#ArialMT-30"/>
       <use xlink:href="#ArialMT-2e" x="55.615234"/>
       <use xlink:href="#ArialMT-30" x="83.398438"/>
       <use xlink:href="#ArialMT-30" x="139.013672"/>
       <use xlink:href="#ArialMT-37" x="194.628906"/>
       <use xlink:href="#ArialMT-35" x="250.244141"/>
      </g>
     </g>
    </g>
    <g id="ytick_3">
     <g id="line2d_19">
      <path d="M 55.342656 211.407382 
L 382.160048 211.407382 
" clip-path="url(#p17131d8ae2)" style="fill: none; stroke-dasharray: 2.96,1.28; stroke-dashoffset: 0; stroke: #808080; stroke-opacity: 0.3; stroke-width: 0.8"/>
     </g>
     <g id="line2d_20">
      <g>
       <use xlink:href="#m4d675d4658" x="55.342656" y="211.407382" style="stroke: #000000; stroke-width: 0.8"/>
      </g>
     </g>
     <g id="text_11">
      <!-- 0.0100 -->
      <g transform="translate(21.259844 214.986289) scale(0.1 -0.1)">
       <use xlink:href="#ArialMT-30"/>
       <use xlink:href="#ArialMT-2e" x="55.615234"/>
       <use xlink:href="#ArialMT-30" x="83.398438"/>
       <use xlink:href="#ArialMT-31" x="139.013672"/>
       <use xlink:href="#ArialMT-30" x="194.628906"/>
       <use xlink:href="#ArialMT-30" x="250.244141"/>
      </g>
     </g>
    </g>
    <g id="ytick_4">
     <g id="line2d_21">
      <path d="M 55.342656 176.704248 
L 382.160048 176.704248 
" clip-path="url(#p17131d8ae2)" style="fill: none; stroke-dasharray: 2.96,1.28; stroke-dashoffset: 0; stroke: #808080; stroke-opacity: 0.3; stroke-width: 0.8"/>
     </g>
     <g id="line2d_22">
      <g>
       <use xlink:href="#m4d675d4658" x="55.342656" y="176.704248" style="stroke: #000000; stroke-width: 0.8"/>
      </g>
     </g>
     <g id="text_12">
      <!-- 0.0125 -->
      <g transform="translate(21.259844 180.283154) scale(0.1 -0.1)">
       <use xlink:href="#ArialMT-30"/>
       <use xlink:href="#ArialMT-2e" x="55.615234"/>
       <use xlink:href="#ArialMT-30" x="83.398438"/>
       <use xlink:href="#ArialMT-31" x="139.013672"/>
       <use xlink:href="#ArialMT-32" x="194.628906"/>
       <use xlink:href="#ArialMT-35" x="250.244141"/>
      </g>
     </g>
    </g>
    <g id="ytick_5">
     <g id="line2d_23">
      <path d="M 55.342656 142.001113 
L 382.160048 142.001113 
" clip-path="url(#p17131d8ae2)" style="fill: none; stroke-dasharray: 2.96,1.28; stroke-dashoffset: 0; stroke: #808080; stroke-opacity: 0.3; stroke-width: 0.8"/>
     </g>
     <g id="line2d_24">
      <g>
       <use xlink:href="#m4d675d4658" x="55.342656" y="142.001113" style="stroke: #000000; stroke-width: 0.8"/>
      </g>
     </g>
     <g id="text_13">
      <!-- 0.0150 -->
      <g transform="translate(21.259844 145.580019) scale(0.1 -0.1)">
       <use xlink:href="#ArialMT-30"/>
       <use xlink:href="#ArialMT-2e" x="55.615234"/>
       <use xlink:href="#ArialMT-30" x="83.398438"/>
       <use xlink:href="#ArialMT-31" x="139.013672"/>
       <use xlink:href="#ArialMT-35" x="194.628906"/>
       <use xlink:href="#ArialMT-30" x="250.244141"/>
      </g>
     </g>
    </g>
    <g id="ytick_6">
     <g id="line2d_25">
      <path d="M 55.342656 107.297978 
L 382.160048 107.297978 
" clip-path="url(#p17131d8ae2)" style="fill: none; stroke-dasharray: 2.96,1.28; stroke-dashoffset: 0; stroke: #808080; stroke-opacity: 0.3; stroke-width: 0.8"/>
     </g>
     <g id="line2d_26">
      <g>
       <use xlink:href="#m4d675d4658" x="55.342656" y="107.297978" style="stroke: #000000; stroke-width: 0.8"/>
      </g>
     </g>
     <g id="text_14">
      <!-- 0.0175 -->
      <g transform="translate(21.259844 110.876884) scale(0.1 -0.1)">
       <use xlink:href="#ArialMT-30"/>
       <use xlink:href="#ArialMT-2e" x="55.615234"/>
       <use xlink:href="#ArialMT-30" x="83.398438"/>
       <use xlink:href="#ArialMT-31" x="139.013672"/>
       <use xlink:href="#ArialMT-37" x="194.628906"/>
       <use xlink:href="#ArialMT-35" x="250.244141"/>
      </g>
     </g>
    </g>
    <g id="ytick_7">
     <g id="line2d_27">
      <path d="M 55.342656 72.594843 
L 382.160048 72.594843 
" clip-path="url(#p17131d8ae2)" style="fill: none; stroke-dasharray: 2.96,1.28; stroke-dashoffset: 0; stroke: #808080; stroke-opacity: 0.3; stroke-width: 0.8"/>
     </g>
     <g id="line2d_28">
      <g>
       <use xlink:href="#m4d675d4658" x="55.342656" y="72.594843" style="stroke: #000000; stroke-width: 0.8"/>
      </g>
     </g>
     <g id="text_15">
      <!-- 0.0200 -->
      <g transform="translate(21.259844 76.173749) scale(0.1 -0.1)">
       <use xlink:href="#ArialMT-30"/>
       <use xlink:href="#ArialMT-2e" x="55.615234"/>
       <use xlink:href="#ArialMT-30" x="83.398438"/>
       <use xlink:href="#ArialMT-32" x="139.013672"/>
       <use xlink:href="#ArialMT-30" x="194.628906"/>
       <use xlink:href="#ArialMT-30" x="250.244141"/>
      </g>
     </g>
    </g>
    <g id="ytick_8">
     <g id="line2d_29">
      <path d="M 55.342656 37.891708 
L 382.160048 37.891708 
" clip-path="url(#p17131d8ae2)" style="fill: none; stroke-dasharray: 2.96,1.28; stroke-dashoffset: 0; stroke: #808080; stroke-opacity: 0.3; stroke-width: 0.8"/>
     </g>
     <g id="line2d_30">
      <g>
       <use xlink:href="#m4d675d4658" x="55.342656" y="37.891708" style="stroke: #000000; stroke-width: 0.8"/>
      </g>
     </g>
     <g id="text_16">
      <!-- 0.0225 -->
      <g transform="translate(21.259844 41.470614) scale(0.1 -0.1)">
       <use xlink:href="#ArialMT-30"/>
       <use xlink:href="#ArialMT-2e" x="55.615234"/>
       <use xlink:href="#ArialMT-30" x="83.398438"/>
       <use xlink:href="#ArialMT-32" x="139.013672"/>
       <use xlink:href="#ArialMT-32" x="194.628906"/>
       <use xlink:href="#ArialMT-35" x="250.244141"/>
      </g>
     </g>
    </g>
    <g id="text_17">
     <!-- RMSE -->
     <g transform="translate(15.073594 172.826328) rotate(-90) scale(0.11 -0.11)">
      <defs>
       <path id="ArialMT-52" d="M 503 0 
L 503 4581 
L 2534 4581 
Q 3147 4581 3465 4457 
Q 3784 4334 3975 4021 
Q 4166 3709 4166 3331 
Q 4166 2844 3850 2509 
Q 3534 2175 2875 2084 
Q 3116 1969 3241 1856 
Q 3506 1613 3744 1247 
L 4541 0 
L 3778 0 
L 3172 953 
Q 2906 1366 2734 1584 
Q 2563 1803 2427 1890 
Q 2291 1978 2150 2013 
Q 2047 2034 1813 2034 
L 1109 2034 
L 1109 0 
L 503 0 
z
M 1109 2559 
L 2413 2559 
Q 2828 2559 3062 2645 
Q 3297 2731 3419 2920 
Q 3541 3109 3541 3331 
Q 3541 3656 3305 3865 
Q 3069 4075 2559 4075 
L 1109 4075 
L 1109 2559 
z
" transform="scale(0.015625)"/>
       <path id="ArialMT-4d" d="M 475 0 
L 475 4581 
L 1388 4581 
L 2472 1338 
Q 2622 884 2691 659 
Q 2769 909 2934 1394 
L 4031 4581 
L 4847 4581 
L 4847 0 
L 4263 0 
L 4263 3834 
L 2931 0 
L 2384 0 
L 1059 3900 
L 1059 0 
L 475 0 
z
" transform="scale(0.015625)"/>
       <path id="ArialMT-45" d="M 506 0 
L 506 4581 
L 3819 4581 
L 3819 4041 
L 1113 4041 
L 1113 2638 
L 3647 2638 
L 3647 2100 
L 1113 2100 
L 1113 541 
L 3925 541 
L 3925 0 
L 506 0 
z
" transform="scale(0.015625)"/>
      </defs>
      <use xlink:href="#ArialMT-52"/>
      <use xlink:href="#ArialMT-4d" x="72.216797"/>
      <use xlink:href="#ArialMT-53" x="155.517578"/>
      <use xlink:href="#ArialMT-45" x="222.216797"/>
     </g>
    </g>
   </g>
   <g id="line2d_31">
    <path d="M 55.342656 146.330716 
L 60.881934 147.226932 
L 66.421212 146.950419 
L 71.96049 146.349239 
L 77.499768 146.842345 
L 83.039045 155.143503 
L 88.578323 154.931927 
L 94.117601 157.568638 
L 99.656879 157.132924 
L 105.196157 156.40279 
L 110.735434 155.622848 
L 116.274712 155.571873 
L 121.81399 154.880612 
L 127.353268 154.077251 
L 132.892546 153.26203 
L 138.431824 152.597044 
L 143.971101 151.76408 
L 149.510379 150.920325 
L 155.049657 150.127005 
L 160.588935 149.945036 
L 166.128213 149.068633 
L 171.66749 150.124976 
L 177.206768 149.290812 
L 182.746046 151.155119 
L 188.285324 150.882693 
L 193.824602 152.4408 
L 199.36388 152.749141 
L 204.903157 165.405362 
L 210.442435 164.845373 
L 215.981713 168.663684 
L 221.520991 169.808272 
L 227.060269 187.68889 
L 232.599546 187.326278 
L 238.138824 191.825382 
L 243.678102 192.163365 
L 249.21738 197.790941 
L 254.756658 197.335661 
L 260.295936 198.21771 
L 265.835213 201.993834 
L 271.374491 231.05152 
L 276.913769 230.797818 
L 282.453047 232.290269 
L 287.992325 231.671114 
L 293.531602 231.208614 
L 299.07088 230.649486 
L 304.610158 230.333902 
L 310.149436 229.669242 
L 315.688714 229.083621 
L 321.227992 228.389765 
L 326.767269 227.988536 
L 332.306547 227.410239 
L 337.845825 226.863702 
L 343.385103 226.115055 
L 348.924381 225.462507 
L 354.463658 224.754498 
L 360.002936 224.114201 
L 365.542214 223.324334 
L 371.081492 222.595081 
L 376.62077 221.759866 
L 382.160048 220.911737 
" clip-path="url(#p17131d8ae2)" style="fill: none; stroke: #ff0000; stroke-opacity: 0.9; stroke-width: 0.6; stroke-linecap: square"/>
   </g>
   <g id="line2d_32">
    <path d="M 55.342656 195.724143 
L 60.881934 195.654756 
L 66.421212 195.071368 
L 71.96049 196.367014 
L 77.499768 200.294727 
L 83.039045 201.034313 
L 88.578323 202.203929 
L 94.117601 202.310782 
L 99.656879 201.737852 
L 105.196157 205.427949 
L 110.735434 208.574218 
L 116.274712 209.035559 
L 121.81399 209.756057 
L 127.353268 212.756526 
L 132.892546 214.873307 
L 138.431824 215.26815 
L 143.971101 216.963564 
L 149.510379 219.873341 
L 155.049657 223.651392 
L 160.588935 227.063814 
L 166.128213 228.523602 
L 171.66749 228.037035 
L 177.206768 228.436121 
L 182.746046 227.883865 
L 188.285324 231.563435 
L 193.824602 233.009047 
L 199.36388 237.163402 
L 204.903157 248.195923 
L 210.442435 248.098594 
L 215.981713 247.729033 
L 221.520991 247.276956 
L 227.060269 246.978025 
L 232.599546 247.146224 
L 238.138824 246.668415 
L 243.678102 251.777823 
L 249.21738 253.532191 
L 254.756658 254.71976 
L 260.295936 256.112981 
L 265.835213 260.118176 
L 271.374491 260.529093 
L 276.913769 260.087972 
L 282.453047 259.688536 
L 287.992325 259.279487 
L 293.531602 258.7826 
L 299.07088 258.466323 
L 304.610158 258.011963 
L 310.149436 257.488985 
L 315.688714 257.501705 
L 321.227992 257.276179 
L 326.767269 256.737407 
L 332.306547 256.367439 
L 337.845825 255.827299 
L 343.385103 255.359826 
L 348.924381 254.982752 
L 354.463658 254.395099 
L 360.002936 253.806142 
L 365.542214 253.328734 
L 371.081492 252.772431 
L 376.62077 252.259436 
L 382.160048 251.662112 
" clip-path="url(#p17131d8ae2)" style="fill: none; stroke-dasharray: 2.22,0.96; stroke-dashoffset: 0; stroke: #0000ff; stroke-opacity: 0.9; stroke-width: 0.6"/>
   </g>
   <g id="line2d_33">
    <path d="M 55.342656 241.781672 
L 60.881934 260.168655 
L 66.421212 260.372181 
L 71.96049 260.084891 
L 77.499768 262.012472 
L 83.039045 262.446488 
L 88.578323 262.513419 
L 94.117601 262.890185 
L 99.656879 262.569467 
L 105.196157 262.65662 
L 110.735434 262.942978 
L 116.274712 262.67311 
L 121.81399 262.962845 
L 127.353268 262.619701 
L 132.892546 262.299574 
L 138.431824 261.931336 
L 143.971101 261.666727 
L 149.510379 262.209767 
L 155.049657 262.745128 
L 160.588935 262.485665 
L 166.128213 262.132725 
L 171.66749 263.20281 
L 177.206768 263.587131 
L 182.746046 264.242364 
L 188.285324 263.858425 
L 193.824602 263.742844 
L 199.36388 263.846295 
L 204.903157 264.854522 
L 210.442435 264.471386 
L 215.981713 265.737176 
L 221.520991 268.600974 
L 227.060269 273.177989 
L 232.599546 275.098604 
L 238.138824 275.721716 
L 243.678102 276.193914 
L 249.21738 278.550952 
L 254.756658 278.185639 
L 260.295936 279.251675 
L 265.835213 284.822145 
L 271.374491 286.899875 
L 276.913769 286.881 
L 282.453047 287.048397 
L 287.992325 287.039383 
L 293.531602 286.917794 
L 299.07088 287.013837 
L 304.610158 287.271748 
L 310.149436 287.379529 
L 315.688714 288.193836 
L 321.227992 288.86803 
L 326.767269 288.586829 
L 332.306547 288.264139 
L 337.845825 287.977168 
L 343.385103 288.164725 
L 348.924381 287.815158 
L 354.463658 287.482102 
L 360.002936 287.277875 
L 365.542214 286.945626 
L 371.081492 286.548635 
L 376.62077 286.139679 
L 382.160048 285.814257 
" clip-path="url(#p17131d8ae2)" style="fill: none; stroke-dasharray: 3.84,0.96,0.6,0.96; stroke-dashoffset: 0; stroke: #00aa00; stroke-opacity: 0.9; stroke-width: 0.6"/>
   </g>
   <g id="line2d_34">
    <path d="M 55.342656 71.012795 
L 60.881934 70.142394 
L 66.421212 69.342056 
L 71.96049 69.759625 
L 77.499768 74.179292 
L 83.039045 83.239623 
L 88.578323 92.696984 
L 94.117601 99.353014 
L 99.656879 101.860233 
L 105.196157 106.191821 
L 110.735434 109.157003 
L 116.274712 108.389618 
L 121.81399 107.654576 
L 127.353268 106.709131 
L 132.892546 105.709067 
L 138.431824 105.027546 
L 143.971101 104.18581 
L 149.510379 103.277874 
L 155.049657 103.746469 
L 160.588935 105.365287 
L 166.128213 105.767984 
L 171.66749 104.933264 
L 177.206768 104.599976 
L 182.746046 105.242201 
L 188.285324 104.132058 
L 193.824602 103.66132 
L 199.36388 105.213725 
L 204.903157 111.651615 
L 210.442435 112.347799 
L 215.981713 111.217967 
L 221.520991 111.533734 
L 227.060269 115.78879 
L 232.599546 119.66131 
L 238.138824 120.669132 
L 243.678102 119.630737 
L 249.21738 118.491738 
L 254.756658 117.352613 
L 260.295936 117.441301 
L 265.835213 116.232072 
L 271.374491 115.664072 
L 276.913769 115.721484 
L 282.453047 116.314881 
L 287.992325 116.536375 
L 293.531602 117.017435 
L 299.07088 118.423066 
L 304.610158 120.206363 
L 310.149436 121.552901 
L 315.688714 123.788355 
L 321.227992 126.413301 
L 326.767269 127.995362 
L 332.306547 128.233512 
L 337.845825 128.442357 
L 343.385103 128.950631 
L 348.924381 128.69724 
L 354.463658 128.61913 
L 360.002936 128.558377 
L 365.542214 128.100392 
L 371.081492 127.438036 
L 376.62077 126.610263 
L 382.160048 125.88844 
" clip-path="url(#p17131d8ae2)" style="fill: none; stroke-dasharray: 0.6,0.99; stroke-dashoffset: 0; stroke: #ff8c00; stroke-opacity: 0.9; stroke-width: 0.6"/>
   </g>
   <g id="line2d_35">
    <path d="M 55.342656 37.764919 
L 60.881934 38.369461 
L 66.421212 37.8668 
L 71.96049 37.568211 
L 77.499768 45.382317 
L 83.039045 53.982863 
L 88.578323 57.82788 
L 94.117601 58.429087 
L 99.656879 57.357 
L 105.196157 56.724184 
L 110.735434 56.927483 
L 116.274712 56.19253 
L 121.81399 55.045437 
L 127.353268 54.389875 
L 132.892546 54.852421 
L 138.431824 54.885438 
L 143.971101 54.855641 
L 149.510379 55.990885 
L 155.049657 58.930864 
L 160.588935 64.210526 
L 166.128213 69.009127 
L 171.66749 68.64124 
L 177.206768 67.388904 
L 182.746046 66.912446 
L 188.285324 65.75548 
L 193.824602 64.68031 
L 199.36388 66.423625 
L 204.903157 77.517648 
L 210.442435 83.530408 
L 215.981713 82.809054 
L 221.520991 82.655528 
L 227.060269 86.383612 
L 232.599546 88.506248 
L 238.138824 89.029058 
L 243.678102 87.931627 
L 249.21738 89.745113 
L 254.756658 94.706071 
L 260.295936 100.995231 
L 265.835213 99.862781 
L 271.374491 100.507374 
L 276.913769 102.710318 
L 282.453047 102.694178 
L 287.992325 101.343144 
L 293.531602 99.994207 
L 299.07088 98.592443 
L 304.610158 97.169135 
L 310.149436 95.744691 
L 315.688714 94.597802 
L 321.227992 93.483723 
L 326.767269 92.076354 
L 332.306547 90.526115 
L 337.845825 88.985604 
L 343.385103 87.590917 
L 348.924381 86.05267 
L 354.463658 84.573356 
L 360.002936 83.134399 
L 365.542214 81.823031 
L 371.081492 80.34624 
L 376.62077 78.612585 
L 382.160048 76.873087 
" clip-path="url(#p17131d8ae2)" style="fill: none; stroke: #660066; stroke-opacity: 0.9; stroke-width: 0.6; stroke-linecap: square"/>
   </g>
   <g id="line2d_36">
    <path d="M 55.342656 157.733928 
L 60.881934 157.023342 
L 66.421212 156.289264 
L 71.96049 157.471318 
L 77.499768 164.249216 
L 83.039045 168.301443 
L 88.578323 171.15638 
L 94.117601 170.637512 
L 99.656879 169.926136 
L 105.196157 171.193392 
L 110.735434 174.500454 
L 116.274712 176.44724 
L 121.81399 178.337356 
L 127.353268 185.492405 
L 132.892546 190.475622 
L 138.431824 192.168121 
L 143.971101 194.942299 
L 149.510379 199.883198 
L 155.049657 206.33625 
L 160.588935 213.226859 
L 166.128213 216.027027 
L 171.66749 215.566276 
L 177.206768 215.00021 
L 182.746046 214.751794 
L 188.285324 214.867688 
L 193.824602 216.103404 
L 199.36388 219.536986 
L 204.903157 230.817544 
L 210.442435 230.989476 
L 215.981713 230.885177 
L 221.520991 232.433061 
L 227.060269 235.437437 
L 232.599546 235.755106 
L 238.138824 235.431624 
L 243.678102 236.193172 
L 249.21738 236.530939 
L 254.756658 236.593206 
L 260.295936 237.279344 
L 265.835213 237.649032 
L 271.374491 237.634316 
L 276.913769 237.109814 
L 282.453047 236.555799 
L 287.992325 235.999388 
L 293.531602 235.880512 
L 299.07088 236.730824 
L 304.610158 237.550537 
L 310.149436 238.120257 
L 315.688714 240.339409 
L 321.227992 242.604722 
L 326.767269 243.199946 
L 332.306547 242.871801 
L 337.845825 242.745582 
L 343.385103 242.717076 
L 348.924381 242.051179 
L 354.463658 241.411514 
L 360.002936 240.799545 
L 365.542214 240.113694 
L 371.081492 239.451736 
L 376.62077 238.746386 
L 382.160048 238.085198 
" clip-path="url(#p17131d8ae2)" style="fill: none; stroke: #ff1493; stroke-opacity: 0.9; stroke-width: 0.6; stroke-linecap: square"/>
   </g>
   <g id="patch_3">
    <path d="M 55.342656 291.935625 
L 55.342656 21.935625 
" style="fill: none; stroke: #000000; stroke-width: 0.8; stroke-linejoin: miter; stroke-linecap: square"/>
   </g>
   <g id="patch_4">
    <path d="M 382.160048 291.935625 
L 382.160048 21.935625 
" style="fill: none; stroke: #000000; stroke-width: 0.8; stroke-linejoin: miter; stroke-linecap: square"/>
   </g>
   <g id="patch_5">
    <path d="M 55.342656 291.935625 
L 382.160048 291.935625 
" style="fill: none; stroke: #000000; stroke-width: 0.8; stroke-linejoin: miter; stroke-linecap: square"/>
   </g>
   <g id="patch_6">
    <path d="M 55.342656 21.935625 
L 382.160048 21.935625 
" style="fill: none; stroke: #000000; stroke-width: 0.8; stroke-linejoin: miter; stroke-linecap: square"/>
   </g>
   <g id="text_18">
    <!-- Google Dataset (5-Minute Scale) -->
    <g transform="translate(127.074164 15.935625) scale(0.12 -0.12)">
     <defs>
      <path id="Arial-BoldMT-47" d="M 2597 1684 
L 2597 2456 
L 4591 2456 
L 4591 631 
Q 4300 350 3748 136 
Q 3197 -78 2631 -78 
Q 1913 -78 1378 223 
Q 844 525 575 1086 
Q 306 1647 306 2306 
Q 306 3022 606 3578 
Q 906 4134 1484 4431 
Q 1925 4659 2581 4659 
Q 3434 4659 3914 4301 
Q 4394 3944 4531 3313 
L 3613 3141 
Q 3516 3478 3248 3673 
Q 2981 3869 2581 3869 
Q 1975 3869 1617 3484 
Q 1259 3100 1259 2344 
Q 1259 1528 1621 1120 
Q 1984 713 2572 713 
Q 2863 713 3155 827 
Q 3447 941 3656 1103 
L 3656 1684 
L 2597 1684 
z
" transform="scale(0.015625)"/>
      <path id="Arial-BoldMT-6f" d="M 256 1706 
Q 256 2144 472 2553 
Q 688 2963 1083 3178 
Q 1478 3394 1966 3394 
Q 2719 3394 3200 2905 
Q 3681 2416 3681 1669 
Q 3681 916 3195 420 
Q 2709 -75 1972 -75 
Q 1516 -75 1102 131 
Q 688 338 472 736 
Q 256 1134 256 1706 
z
M 1156 1659 
Q 1156 1166 1390 903 
Q 1625 641 1969 641 
Q 2313 641 2545 903 
Q 2778 1166 2778 1666 
Q 2778 2153 2545 2415 
Q 2313 2678 1969 2678 
Q 1625 2678 1390 2415 
Q 1156 2153 1156 1659 
z
" transform="scale(0.015625)"/>
      <path id="Arial-BoldMT-67" d="M 378 -219 
L 1381 -341 
Q 1406 -516 1497 -581 
Q 1622 -675 1891 -675 
Q 2234 -675 2406 -572 
Q 2522 -503 2581 -350 
Q 2622 -241 2622 53 
L 2622 538 
Q 2228 0 1628 0 
Q 959 0 569 566 
Q 263 1013 263 1678 
Q 263 2513 664 2953 
Q 1066 3394 1663 3394 
Q 2278 3394 2678 2853 
L 2678 3319 
L 3500 3319 
L 3500 341 
Q 3500 -247 3403 -537 
Q 3306 -828 3131 -993 
Q 2956 -1159 2664 -1253 
Q 2372 -1347 1925 -1347 
Q 1081 -1347 728 -1058 
Q 375 -769 375 -325 
Q 375 -281 378 -219 
z
M 1163 1728 
Q 1163 1200 1367 954 
Q 1572 709 1872 709 
Q 2194 709 2416 961 
Q 2638 1213 2638 1706 
Q 2638 2222 2425 2472 
Q 2213 2722 1888 2722 
Q 1572 2722 1367 2476 
Q 1163 2231 1163 1728 
z
" transform="scale(0.015625)"/>
      <path id="Arial-BoldMT-6c" d="M 459 0 
L 459 4581 
L 1338 4581 
L 1338 0 
L 459 0 
z
" transform="scale(0.015625)"/>
      <path id="Arial-BoldMT-65" d="M 2381 1056 
L 3256 909 
Q 3088 428 2723 176 
Q 2359 -75 1813 -75 
Q 947 -75 531 491 
Q 203 944 203 1634 
Q 203 2459 634 2926 
Q 1066 3394 1725 3394 
Q 2466 3394 2894 2905 
Q 3322 2416 3303 1406 
L 1103 1406 
Q 1113 1016 1316 798 
Q 1519 581 1822 581 
Q 2028 581 2168 693 
Q 2309 806 2381 1056 
z
M 2431 1944 
Q 2422 2325 2234 2523 
Q 2047 2722 1778 2722 
Q 1491 2722 1303 2513 
Q 1116 2303 1119 1944 
L 2431 1944 
z
" transform="scale(0.015625)"/>
      <path id="Arial-BoldMT-20" transform="scale(0.015625)"/>
      <path id="Arial-BoldMT-44" d="M 463 4581 
L 2153 4581 
Q 2725 4581 3025 4494 
Q 3428 4375 3715 4072 
Q 4003 3769 4153 3330 
Q 4303 2891 4303 2247 
Q 4303 1681 4163 1272 
Q 3991 772 3672 463 
Q 3431 228 3022 97 
Q 2716 0 2203 0 
L 463 0 
L 463 4581 
z
M 1388 3806 
L 1388 772 
L 2078 772 
Q 2466 772 2638 816 
Q 2863 872 3011 1006 
Q 3159 1141 3253 1448 
Q 3347 1756 3347 2288 
Q 3347 2819 3253 3103 
Q 3159 3388 2990 3547 
Q 2822 3706 2563 3763 
Q 2369 3806 1803 3806 
L 1388 3806 
z
" transform="scale(0.015625)"/>
      <path id="Arial-BoldMT-61" d="M 1116 2306 
L 319 2450 
Q 453 2931 781 3162 
Q 1109 3394 1756 3394 
Q 2344 3394 2631 3255 
Q 2919 3116 3036 2902 
Q 3153 2688 3153 2116 
L 3144 1091 
Q 3144 653 3186 445 
Q 3228 238 3344 0 
L 2475 0 
Q 2441 88 2391 259 
Q 2369 338 2359 363 
Q 2134 144 1878 34 
Q 1622 -75 1331 -75 
Q 819 -75 523 203 
Q 228 481 228 906 
Q 228 1188 362 1408 
Q 497 1628 739 1745 
Q 981 1863 1438 1950 
Q 2053 2066 2291 2166 
L 2291 2253 
Q 2291 2506 2166 2614 
Q 2041 2722 1694 2722 
Q 1459 2722 1328 2630 
Q 1197 2538 1116 2306 
z
M 2291 1594 
Q 2122 1538 1756 1459 
Q 1391 1381 1278 1306 
Q 1106 1184 1106 997 
Q 1106 813 1243 678 
Q 1381 544 1594 544 
Q 1831 544 2047 700 
Q 2206 819 2256 991 
Q 2291 1103 2291 1419 
L 2291 1594 
z
" transform="scale(0.015625)"/>
      <path id="Arial-BoldMT-74" d="M 1981 3319 
L 1981 2619 
L 1381 2619 
L 1381 1281 
Q 1381 875 1398 808 
Q 1416 741 1477 697 
Q 1538 653 1625 653 
Q 1747 653 1978 738 
L 2053 56 
Q 1747 -75 1359 -75 
Q 1122 -75 931 4 
Q 741 84 652 211 
Q 563 338 528 553 
Q 500 706 500 1172 
L 500 2619 
L 97 2619 
L 97 3319 
L 500 3319 
L 500 3978 
L 1381 4491 
L 1381 3319 
L 1981 3319 
z
" transform="scale(0.015625)"/>
      <path id="Arial-BoldMT-73" d="M 150 947 
L 1031 1081 
Q 1088 825 1259 692 
Q 1431 559 1741 559 
Q 2081 559 2253 684 
Q 2369 772 2369 919 
Q 2369 1019 2306 1084 
Q 2241 1147 2013 1200 
Q 950 1434 666 1628 
Q 272 1897 272 2375 
Q 272 2806 612 3100 
Q 953 3394 1669 3394 
Q 2350 3394 2681 3172 
Q 3013 2950 3138 2516 
L 2309 2363 
Q 2256 2556 2107 2659 
Q 1959 2763 1684 2763 
Q 1338 2763 1188 2666 
Q 1088 2597 1088 2488 
Q 1088 2394 1175 2328 
Q 1294 2241 1995 2081 
Q 2697 1922 2975 1691 
Q 3250 1456 3250 1038 
Q 3250 581 2869 253 
Q 2488 -75 1741 -75 
Q 1063 -75 667 200 
Q 272 475 150 947 
z
" transform="scale(0.015625)"/>
      <path id="Arial-BoldMT-28" d="M 1916 -1347 
L 1313 -1347 
Q 834 -625 584 153 
Q 334 931 334 1659 
Q 334 2563 644 3369 
Q 913 4069 1325 4659 
L 1925 4659 
Q 1497 3713 1336 3048 
Q 1175 2384 1175 1641 
Q 1175 1128 1270 590 
Q 1366 53 1531 -431 
Q 1641 -750 1916 -1347 
z
" transform="scale(0.015625)"/>
      <path id="Arial-BoldMT-35" d="M 284 1178 
L 1159 1269 
Q 1197 972 1381 798 
Q 1566 625 1806 625 
Q 2081 625 2272 848 
Q 2463 1072 2463 1522 
Q 2463 1944 2273 2155 
Q 2084 2366 1781 2366 
Q 1403 2366 1103 2031 
L 391 2134 
L 841 4519 
L 3163 4519 
L 3163 3697 
L 1506 3697 
L 1369 2919 
Q 1663 3066 1969 3066 
Q 2553 3066 2959 2641 
Q 3366 2216 3366 1538 
Q 3366 972 3038 528 
Q 2591 -78 1797 -78 
Q 1163 -78 763 262 
Q 363 603 284 1178 
z
" transform="scale(0.015625)"/>
      <path id="Arial-BoldMT-2d" d="M 359 1222 
L 359 2100 
L 2084 2100 
L 2084 1222 
L 359 1222 
z
" transform="scale(0.015625)"/>
      <path id="Arial-BoldMT-4d" d="M 453 0 
L 453 4581 
L 1838 4581 
L 2669 1456 
L 3491 4581 
L 4878 4581 
L 4878 0 
L 4019 0 
L 4019 3606 
L 3109 0 
L 2219 0 
L 1313 3606 
L 1313 0 
L 453 0 
z
" transform="scale(0.015625)"/>
      <path id="Arial-BoldMT-69" d="M 459 3769 
L 459 4581 
L 1338 4581 
L 1338 3769 
L 459 3769 
z
M 459 0 
L 459 3319 
L 1338 3319 
L 1338 0 
L 459 0 
z
" transform="scale(0.015625)"/>
      <path id="Arial-BoldMT-6e" d="M 3478 0 
L 2600 0 
L 2600 1694 
Q 2600 2231 2544 2389 
Q 2488 2547 2361 2634 
Q 2234 2722 2056 2722 
Q 1828 2722 1647 2597 
Q 1466 2472 1398 2265 
Q 1331 2059 1331 1503 
L 1331 0 
L 453 0 
L 453 3319 
L 1269 3319 
L 1269 2831 
Q 1703 3394 2363 3394 
Q 2653 3394 2893 3289 
Q 3134 3184 3257 3021 
Q 3381 2859 3429 2653 
Q 3478 2447 3478 2063 
L 3478 0 
z
" transform="scale(0.015625)"/>
      <path id="Arial-BoldMT-75" d="M 2644 0 
L 2644 497 
Q 2463 231 2167 78 
Q 1872 -75 1544 -75 
Q 1209 -75 943 72 
Q 678 219 559 484 
Q 441 750 441 1219 
L 441 3319 
L 1319 3319 
L 1319 1794 
Q 1319 1094 1367 936 
Q 1416 778 1544 686 
Q 1672 594 1869 594 
Q 2094 594 2272 717 
Q 2450 841 2515 1023 
Q 2581 1206 2581 1919 
L 2581 3319 
L 3459 3319 
L 3459 0 
L 2644 0 
z
" transform="scale(0.015625)"/>
      <path id="Arial-BoldMT-53" d="M 231 1491 
L 1131 1578 
Q 1213 1125 1461 912 
Q 1709 700 2131 700 
Q 2578 700 2804 889 
Q 3031 1078 3031 1331 
Q 3031 1494 2936 1608 
Q 2841 1722 2603 1806 
Q 2441 1863 1863 2006 
Q 1119 2191 819 2459 
Q 397 2838 397 3381 
Q 397 3731 595 4036 
Q 794 4341 1167 4500 
Q 1541 4659 2069 4659 
Q 2931 4659 3367 4281 
Q 3803 3903 3825 3272 
L 2900 3231 
Q 2841 3584 2645 3739 
Q 2450 3894 2059 3894 
Q 1656 3894 1428 3728 
Q 1281 3622 1281 3444 
Q 1281 3281 1419 3166 
Q 1594 3019 2269 2859 
Q 2944 2700 3267 2529 
Q 3591 2359 3773 2064 
Q 3956 1769 3956 1334 
Q 3956 941 3737 597 
Q 3519 253 3119 86 
Q 2719 -81 2122 -81 
Q 1253 -81 787 320 
Q 322 722 231 1491 
z
" transform="scale(0.015625)"/>
      <path id="Arial-BoldMT-63" d="M 3353 2338 
L 2488 2181 
Q 2444 2441 2289 2572 
Q 2134 2703 1888 2703 
Q 1559 2703 1364 2476 
Q 1169 2250 1169 1719 
Q 1169 1128 1367 884 
Q 1566 641 1900 641 
Q 2150 641 2309 783 
Q 2469 925 2534 1272 
L 3397 1125 
Q 3263 531 2881 228 
Q 2500 -75 1859 -75 
Q 1131 -75 698 384 
Q 266 844 266 1656 
Q 266 2478 700 2936 
Q 1134 3394 1875 3394 
Q 2481 3394 2839 3133 
Q 3197 2872 3353 2338 
z
" transform="scale(0.015625)"/>
      <path id="Arial-BoldMT-29" d="M 216 -1347 
Q 475 -791 581 -494 
Q 688 -197 778 190 
Q 869 578 912 926 
Q 956 1275 956 1641 
Q 956 2384 797 3048 
Q 638 3713 209 4659 
L 806 4659 
Q 1278 3988 1539 3234 
Q 1800 2481 1800 1706 
Q 1800 1053 1594 306 
Q 1359 -531 822 -1347 
L 216 -1347 
z
" transform="scale(0.015625)"/>
     </defs>
     <use xlink:href="#Arial-BoldMT-47"/>
     <use xlink:href="#Arial-BoldMT-6f" x="77.783203"/>
     <use xlink:href="#Arial-BoldMT-6f" x="138.867188"/>
     <use xlink:href="#Arial-BoldMT-67" x="199.951172"/>
     <use xlink:href="#Arial-BoldMT-6c" x="261.035156"/>
     <use xlink:href="#Arial-BoldMT-65" x="288.818359"/>
     <use xlink:href="#Arial-BoldMT-20" x="344.433594"/>
     <use xlink:href="#Arial-BoldMT-44" x="372.216797"/>
     <use xlink:href="#Arial-BoldMT-61" x="444.433594"/>
     <use xlink:href="#Arial-BoldMT-74" x="500.048828"/>
     <use xlink:href="#Arial-BoldMT-61" x="533.349609"/>
     <use xlink:href="#Arial-BoldMT-73" x="588.964844"/>
     <use xlink:href="#Arial-BoldMT-65" x="644.580078"/>
     <use xlink:href="#Arial-BoldMT-74" x="700.195312"/>
     <use xlink:href="#Arial-BoldMT-20" x="733.496094"/>
     <use xlink:href="#Arial-BoldMT-28" x="761.279297"/>
     <use xlink:href="#Arial-BoldMT-35" x="794.580078"/>
     <use xlink:href="#Arial-BoldMT-2d" x="850.195312"/>
     <use xlink:href="#Arial-BoldMT-4d" x="883.496094"/>
     <use xlink:href="#Arial-BoldMT-69" x="966.796875"/>
     <use xlink:href="#Arial-BoldMT-6e" x="994.580078"/>
     <use xlink:href="#Arial-BoldMT-75" x="1055.664062"/>
     <use xlink:href="#Arial-BoldMT-74" x="1116.748047"/>
     <use xlink:href="#Arial-BoldMT-65" x="1150.048828"/>
     <use xlink:href="#Arial-BoldMT-20" x="1205.664062"/>
     <use xlink:href="#Arial-BoldMT-53" x="1233.447266"/>
     <use xlink:href="#Arial-BoldMT-63" x="1300.146484"/>
     <use xlink:href="#Arial-BoldMT-61" x="1355.761719"/>
     <use xlink:href="#Arial-BoldMT-6c" x="1411.376953"/>
     <use xlink:href="#Arial-BoldMT-65" x="1439.160156"/>
     <use xlink:href="#Arial-BoldMT-29" x="1494.775391"/>
    </g>
   </g>
   <g id="legend_1">
    <g id="patch_7">
     <path d="M 301.261298 105.520312 
L 375.860048 105.520312 
Q 377.660048 105.520312 377.660048 103.720312 
L 377.660048 28.235625 
Q 377.660048 26.435625 375.860048 26.435625 
L 301.261298 26.435625 
Q 299.461298 26.435625 299.461298 28.235625 
L 299.461298 103.720312 
Q 299.461298 105.520312 301.261298 105.520312 
z
" style="fill: #ffffff; opacity: 0.9; stroke: #cccccc; stroke-linejoin: miter"/>
    </g>
    <g id="line2d_37">
     <path d="M 303.061298 33.327656 
L 309.811298 33.327656 
L 316.561298 33.327656 
" style="fill: none; stroke: #ff0000; stroke-opacity: 0.9; stroke-width: 0.6; stroke-linecap: square"/>
    </g>
    <g id="text_19">
     <!-- ARIMA -->
     <g transform="translate(321.061298 36.477656) scale(0.09 -0.09)">
      <defs>
       <path id="ArialMT-41" d="M -9 0 
L 1750 4581 
L 2403 4581 
L 4278 0 
L 3588 0 
L 3053 1388 
L 1138 1388 
L 634 0 
L -9 0 
z
M 1313 1881 
L 2866 1881 
L 2388 3150 
Q 2169 3728 2063 4100 
Q 1975 3659 1816 3225 
L 1313 1881 
z
" transform="scale(0.015625)"/>
       <path id="ArialMT-49" d="M 597 0 
L 597 4581 
L 1203 4581 
L 1203 0 
L 597 0 
z
" transform="scale(0.015625)"/>
      </defs>
      <use xlink:href="#ArialMT-41"/>
      <use xlink:href="#ArialMT-52" x="66.699219"/>
      <use xlink:href="#ArialMT-49" x="138.916016"/>
      <use xlink:href="#ArialMT-4d" x="166.699219"/>
      <use xlink:href="#ArialMT-41" x="250"/>
     </g>
    </g>
    <g id="line2d_38">
     <path d="M 303.061298 46.058438 
L 309.811298 46.058438 
L 316.561298 46.058438 
" style="fill: none; stroke-dasharray: 2.22,0.96; stroke-dashoffset: 0; stroke: #0000ff; stroke-opacity: 0.9; stroke-width: 0.6"/>
    </g>
    <g id="text_20">
     <!-- LSTM -->
     <g transform="translate(321.061298 49.208438) scale(0.09 -0.09)">
      <defs>
       <path id="ArialMT-4c" d="M 469 0 
L 469 4581 
L 1075 4581 
L 1075 541 
L 3331 541 
L 3331 0 
L 469 0 
z
" transform="scale(0.015625)"/>
       <path id="ArialMT-54" d="M 1659 0 
L 1659 4041 
L 150 4041 
L 150 4581 
L 3781 4581 
L 3781 4041 
L 2266 4041 
L 2266 0 
L 1659 0 
z
" transform="scale(0.015625)"/>
      </defs>
      <use xlink:href="#ArialMT-4c"/>
      <use xlink:href="#ArialMT-53" x="55.615234"/>
      <use xlink:href="#ArialMT-54" x="122.314453"/>
      <use xlink:href="#ArialMT-4d" x="183.398438"/>
     </g>
    </g>
    <g id="line2d_39">
     <path d="M 303.061298 58.789219 
L 309.811298 58.789219 
L 316.561298 58.789219 
" style="fill: none; stroke-dasharray: 3.84,0.96,0.6,0.96; stroke-dashoffset: 0; stroke: #00aa00; stroke-opacity: 0.9; stroke-width: 0.6"/>
    </g>
    <g id="text_21">
     <!-- SWT-CLSTM -->
     <g transform="translate(321.061298 61.939219) scale(0.09 -0.09)">
      <defs>
       <path id="ArialMT-57" d="M 1294 0 
L 78 4581 
L 700 4581 
L 1397 1578 
Q 1509 1106 1591 641 
Q 1766 1375 1797 1488 
L 2669 4581 
L 3400 4581 
L 4056 2263 
Q 4303 1400 4413 641 
Q 4500 1075 4641 1638 
L 5359 4581 
L 5969 4581 
L 4713 0 
L 4128 0 
L 3163 3491 
Q 3041 3928 3019 4028 
Q 2947 3713 2884 3491 
L 1913 0 
L 1294 0 
z
" transform="scale(0.015625)"/>
       <path id="ArialMT-2d" d="M 203 1375 
L 203 1941 
L 1931 1941 
L 1931 1375 
L 203 1375 
z
" transform="scale(0.015625)"/>
       <path id="ArialMT-43" d="M 3763 1606 
L 4369 1453 
Q 4178 706 3683 314 
Q 3188 -78 2472 -78 
Q 1731 -78 1267 223 
Q 803 525 561 1097 
Q 319 1669 319 2325 
Q 319 3041 592 3573 
Q 866 4106 1370 4382 
Q 1875 4659 2481 4659 
Q 3169 4659 3637 4309 
Q 4106 3959 4291 3325 
L 3694 3184 
Q 3534 3684 3231 3912 
Q 2928 4141 2469 4141 
Q 1941 4141 1586 3887 
Q 1231 3634 1087 3207 
Q 944 2781 944 2328 
Q 944 1744 1114 1308 
Q 1284 872 1643 656 
Q 2003 441 2422 441 
Q 2931 441 3284 734 
Q 3638 1028 3763 1606 
z
" transform="scale(0.015625)"/>
      </defs>
      <use xlink:href="#ArialMT-53"/>
      <use xlink:href="#ArialMT-57" x="66.699219"/>
      <use xlink:href="#ArialMT-54" x="161.083984"/>
      <use xlink:href="#ArialMT-2d" x="216.667969"/>
      <use xlink:href="#ArialMT-43" x="249.96875"/>
      <use xlink:href="#ArialMT-4c" x="322.185547"/>
      <use xlink:href="#ArialMT-53" x="377.800781"/>
      <use xlink:href="#ArialMT-54" x="444.5"/>
      <use xlink:href="#ArialMT-4d" x="505.583984"/>
     </g>
    </g>
    <g id="line2d_40">
     <path d="M 303.061298 71.52 
L 309.811298 71.52 
L 316.561298 71.52 
" style="fill: none; stroke-dasharray: 0.6,0.99; stroke-dashoffset: 0; stroke: #ff8c00; stroke-opacity: 0.9; stroke-width: 0.6"/>
    </g>
    <g id="text_22">
     <!-- TFC -->
     <g transform="translate(321.061298 74.67) scale(0.09 -0.09)">
      <defs>
       <path id="ArialMT-46" d="M 525 0 
L 525 4581 
L 3616 4581 
L 3616 4041 
L 1131 4041 
L 1131 2622 
L 3281 2622 
L 3281 2081 
L 1131 2081 
L 1131 0 
L 525 0 
z
" transform="scale(0.015625)"/>
      </defs>
      <use xlink:href="#ArialMT-54"/>
      <use xlink:href="#ArialMT-46" x="61.083984"/>
      <use xlink:href="#ArialMT-43" x="122.167969"/>
     </g>
    </g>
    <g id="line2d_41">
     <path d="M 303.061298 84.250781 
L 309.811298 84.250781 
L 316.561298 84.250781 
" style="fill: none; stroke: #660066; stroke-opacity: 0.9; stroke-width: 0.6; stroke-linecap: square"/>
    </g>
    <g id="text_23">
     <!-- TimeMixer++ -->
     <g transform="translate(321.061298 87.400781) scale(0.09 -0.09)">
      <defs>
       <path id="ArialMT-78" d="M 47 0 
L 1259 1725 
L 138 3319 
L 841 3319 
L 1350 2541 
Q 1494 2319 1581 2169 
Q 1719 2375 1834 2534 
L 2394 3319 
L 3066 3319 
L 1919 1756 
L 3153 0 
L 2463 0 
L 1781 1031 
L 1600 1309 
L 728 0 
L 47 0 
z
" transform="scale(0.015625)"/>
       <path id="ArialMT-2b" d="M 1603 741 
L 1603 1997 
L 356 1997 
L 356 2522 
L 1603 2522 
L 1603 3769 
L 2134 3769 
L 2134 2522 
L 3381 2522 
L 3381 1997 
L 2134 1997 
L 2134 741 
L 1603 741 
z
" transform="scale(0.015625)"/>
      </defs>
      <use xlink:href="#ArialMT-54"/>
      <use xlink:href="#ArialMT-69" x="57.333984"/>
      <use xlink:href="#ArialMT-6d" x="79.550781"/>
      <use xlink:href="#ArialMT-65" x="162.851562"/>
      <use xlink:href="#ArialMT-4d" x="218.466797"/>
      <use xlink:href="#ArialMT-69" x="301.767578"/>
      <use xlink:href="#ArialMT-78" x="323.984375"/>
      <use xlink:href="#ArialMT-65" x="373.984375"/>
      <use xlink:href="#ArialMT-72" x="429.599609"/>
      <use xlink:href="#ArialMT-2b" x="462.900391"/>
      <use xlink:href="#ArialMT-2b" x="521.298828"/>
     </g>
    </g>
    <g id="line2d_42">
     <path d="M 303.061298 96.981562 
L 309.811298 96.981562 
L 316.561298 96.981562 
" style="fill: none; stroke: #ff1493; stroke-opacity: 0.9; stroke-width: 0.6; stroke-linecap: square"/>
    </g>
    <g id="text_24">
     <!-- PatchTST -->
     <g transform="translate(321.061298 100.131562) scale(0.09 -0.09)">
      <defs>
       <path id="ArialMT-61" d="M 2588 409 
Q 2275 144 1986 34 
Q 1697 -75 1366 -75 
Q 819 -75 525 192 
Q 231 459 231 875 
Q 231 1119 342 1320 
Q 453 1522 633 1644 
Q 813 1766 1038 1828 
Q 1203 1872 1538 1913 
Q 2219 1994 2541 2106 
Q 2544 2222 2544 2253 
Q 2544 2597 2384 2738 
Q 2169 2928 1744 2928 
Q 1347 2928 1158 2789 
Q 969 2650 878 2297 
L 328 2372 
Q 403 2725 575 2942 
Q 747 3159 1072 3276 
Q 1397 3394 1825 3394 
Q 2250 3394 2515 3294 
Q 2781 3194 2906 3042 
Q 3031 2891 3081 2659 
Q 3109 2516 3109 2141 
L 3109 1391 
Q 3109 606 3145 398 
Q 3181 191 3288 0 
L 2700 0 
Q 2613 175 2588 409 
z
M 2541 1666 
Q 2234 1541 1622 1453 
Q 1275 1403 1131 1340 
Q 988 1278 909 1158 
Q 831 1038 831 891 
Q 831 666 1001 516 
Q 1172 366 1500 366 
Q 1825 366 2078 508 
Q 2331 650 2450 897 
Q 2541 1088 2541 1459 
L 2541 1666 
z
" transform="scale(0.015625)"/>
       <path id="ArialMT-68" d="M 422 0 
L 422 4581 
L 984 4581 
L 984 2938 
Q 1378 3394 1978 3394 
Q 2347 3394 2619 3248 
Q 2891 3103 3008 2847 
Q 3125 2591 3125 2103 
L 3125 0 
L 2563 0 
L 2563 2103 
Q 2563 2525 2380 2717 
Q 2197 2909 1863 2909 
Q 1613 2909 1392 2779 
Q 1172 2650 1078 2428 
Q 984 2206 984 1816 
L 984 0 
L 422 0 
z
" transform="scale(0.015625)"/>
      </defs>
      <use xlink:href="#ArialMT-50"/>
      <use xlink:href="#ArialMT-61" x="66.699219"/>
      <use xlink:href="#ArialMT-74" x="122.314453"/>
      <use xlink:href="#ArialMT-63" x="150.097656"/>
      <use xlink:href="#ArialMT-68" x="200.097656"/>
      <use xlink:href="#ArialMT-54" x="255.712891"/>
      <use xlink:href="#ArialMT-53" x="316.796875"/>
      <use xlink:href="#ArialMT-54" x="383.496094"/>
     </g>
    </g>
   </g>
  </g>
  <g id="axes_2">
   <g id="patch_8">
    <path d="M 480.205265 291.935625 
L 807.022656 291.935625 
L 807.022656 21.935625 
L 480.205265 21.935625 
z
" style="fill: #ffffff"/>
   </g>
   <g id="matplotlib.axis_3">
    <g id="xtick_8">
     <g id="line2d_43">
      <path d="M 531.614742 291.935625 
L 531.614742 21.935625 
" clip-path="url(#p55ab073e9c)" style="fill: none; stroke-dasharray: 2.96,1.28; stroke-dashoffset: 0; stroke: #808080; stroke-opacity: 0.3; stroke-width: 0.8"/>
     </g>
     <g id="line2d_44">
      <g>
       <use xlink:href="#mf3e84a7cf7" x="531.614742" y="291.935625" style="stroke: #000000; stroke-width: 0.8"/>
      </g>
     </g>
     <g id="text_25">
      <!-- 15 -->
      <g transform="translate(526.053805 302.593437) scale(0.1 -0.1)">
       <use xlink:href="#ArialMT-31"/>
       <use xlink:href="#ArialMT-35" x="55.615234"/>
      </g>
     </g>
    </g>
    <g id="xtick_9">
     <g id="line2d_45">
      <path d="M 586.696325 291.935625 
L 586.696325 21.935625 
" clip-path="url(#p55ab073e9c)" style="fill: none; stroke-dasharray: 2.96,1.28; stroke-dashoffset: 0; stroke: #808080; stroke-opacity: 0.3; stroke-width: 0.8"/>
     </g>
     <g id="line2d_46">
      <g>
       <use xlink:href="#mf3e84a7cf7" x="586.696325" y="291.935625" style="stroke: #000000; stroke-width: 0.8"/>
      </g>
     </g>
     <g id="text_26">
      <!-- 30 -->
      <g transform="translate(581.135388 302.593437) scale(0.1 -0.1)">
       <use xlink:href="#ArialMT-33"/>
       <use xlink:href="#ArialMT-30" x="55.615234"/>
      </g>
     </g>
    </g>
    <g id="xtick_10">
     <g id="line2d_47">
      <path d="M 641.777908 291.935625 
L 641.777908 21.935625 
" clip-path="url(#p55ab073e9c)" style="fill: none; stroke-dasharray: 2.96,1.28; stroke-dashoffset: 0; stroke: #808080; stroke-opacity: 0.3; stroke-width: 0.8"/>
     </g>
     <g id="line2d_48">
      <g>
       <use xlink:href="#mf3e84a7cf7" x="641.777908" y="291.935625" style="stroke: #000000; stroke-width: 0.8"/>
      </g>
     </g>
     <g id="text_27">
      <!-- 45 -->
      <g transform="translate(636.21697 302.593437) scale(0.1 -0.1)">
       <use xlink:href="#ArialMT-34"/>
       <use xlink:href="#ArialMT-35" x="55.615234"/>
      </g>
     </g>
    </g>
    <g id="xtick_11">
     <g id="line2d_49">
      <path d="M 696.859491 291.935625 
L 696.859491 21.935625 
" clip-path="url(#p55ab073e9c)" style="fill: none; stroke-dasharray: 2.96,1.28; stroke-dashoffset: 0; stroke: #808080; stroke-opacity: 0.3; stroke-width: 0.8"/>
     </g>
     <g id="line2d_50">
      <g>
       <use xlink:href="#mf3e84a7cf7" x="696.859491" y="291.935625" style="stroke: #000000; stroke-width: 0.8"/>
      </g>
     </g>
     <g id="text_28">
      <!-- 60 -->
      <g transform="translate(691.298553 302.593437) scale(0.1 -0.1)">
       <use xlink:href="#ArialMT-36"/>
       <use xlink:href="#ArialMT-30" x="55.615234"/>
      </g>
     </g>
    </g>
    <g id="xtick_12">
     <g id="line2d_51">
      <path d="M 751.941073 291.935625 
L 751.941073 21.935625 
" clip-path="url(#p55ab073e9c)" style="fill: none; stroke-dasharray: 2.96,1.28; stroke-dashoffset: 0; stroke: #808080; stroke-opacity: 0.3; stroke-width: 0.8"/>
     </g>
     <g id="line2d_52">
      <g>
       <use xlink:href="#mf3e84a7cf7" x="751.941073" y="291.935625" style="stroke: #000000; stroke-width: 0.8"/>
      </g>
     </g>
     <g id="text_29">
      <!-- 75 -->
      <g transform="translate(746.380136 302.593437) scale(0.1 -0.1)">
       <use xlink:href="#ArialMT-37"/>
       <use xlink:href="#ArialMT-35" x="55.615234"/>
      </g>
     </g>
    </g>
    <g id="xtick_13">
     <g id="line2d_53">
      <path d="M 807.022656 291.935625 
L 807.022656 21.935625 
" clip-path="url(#p55ab073e9c)" style="fill: none; stroke-dasharray: 2.96,1.28; stroke-dashoffset: 0; stroke: #808080; stroke-opacity: 0.3; stroke-width: 0.8"/>
     </g>
     <g id="line2d_54">
      <g>
       <use xlink:href="#mf3e84a7cf7" x="807.022656" y="291.935625" style="stroke: #000000; stroke-width: 0.8"/>
      </g>
     </g>
     <g id="text_30">
      <!-- 90 -->
      <g transform="translate(801.461719 302.593437) scale(0.1 -0.1)">
       <defs>
        <path id="ArialMT-39" d="M 350 1059 
L 891 1109 
Q 959 728 1153 556 
Q 1347 384 1650 384 
Q 1909 384 2104 503 
Q 2300 622 2425 820 
Q 2550 1019 2634 1356 
Q 2719 1694 2719 2044 
Q 2719 2081 2716 2156 
Q 2547 1888 2255 1720 
Q 1963 1553 1622 1553 
Q 1053 1553 659 1965 
Q 266 2378 266 3053 
Q 266 3750 677 4175 
Q 1088 4600 1706 4600 
Q 2153 4600 2523 4359 
Q 2894 4119 3086 3673 
Q 3278 3228 3278 2384 
Q 3278 1506 3087 986 
Q 2897 466 2520 194 
Q 2144 -78 1638 -78 
Q 1100 -78 759 220 
Q 419 519 350 1059 
z
M 2653 3081 
Q 2653 3566 2395 3850 
Q 2138 4134 1775 4134 
Q 1400 4134 1122 3828 
Q 844 3522 844 3034 
Q 844 2597 1108 2323 
Q 1372 2050 1759 2050 
Q 2150 2050 2401 2323 
Q 2653 2597 2653 3081 
z
" transform="scale(0.015625)"/>
       </defs>
       <use xlink:href="#ArialMT-39"/>
       <use xlink:href="#ArialMT-30" x="55.615234"/>
      </g>
     </g>
    </g>
    <g id="text_31">
     <!-- Prediction Steps (30s/step) -->
     <g transform="translate(577.585601 316.588594) scale(0.11 -0.11)">
      <use xlink:href="#ArialMT-50"/>
      <use xlink:href="#ArialMT-72" x="66.699219"/>
      <use xlink:href="#ArialMT-65" x="100"/>
      <use xlink:href="#ArialMT-64" x="155.615234"/>
      <use xlink:href="#ArialMT-69" x="211.230469"/>
      <use xlink:href="#ArialMT-63" x="233.447266"/>
      <use xlink:href="#ArialMT-74" x="283.447266"/>
      <use xlink:href="#ArialMT-69" x="311.230469"/>
      <use xlink:href="#ArialMT-6f" x="333.447266"/>
      <use xlink:href="#ArialMT-6e" x="389.0625"/>
      <use xlink:href="#ArialMT-20" x="444.677734"/>
      <use xlink:href="#ArialMT-53" x="472.460938"/>
      <use xlink:href="#ArialMT-74" x="539.160156"/>
      <use xlink:href="#ArialMT-65" x="566.943359"/>
      <use xlink:href="#ArialMT-70" x="622.558594"/>
      <use xlink:href="#ArialMT-73" x="678.173828"/>
      <use xlink:href="#ArialMT-20" x="728.173828"/>
      <use xlink:href="#ArialMT-28" x="755.957031"/>
      <use xlink:href="#ArialMT-33" x="789.257812"/>
      <use xlink:href="#ArialMT-30" x="844.873047"/>
      <use xlink:href="#ArialMT-73" x="900.488281"/>
      <use xlink:href="#ArialMT-2f" x="950.488281"/>
      <use xlink:href="#ArialMT-73" x="978.271484"/>
      <use xlink:href="#ArialMT-74" x="1028.271484"/>
      <use xlink:href="#ArialMT-65" x="1056.054688"/>
      <use xlink:href="#ArialMT-70" x="1111.669922"/>
      <use xlink:href="#ArialMT-29" x="1167.285156"/>
     </g>
    </g>
   </g>
   <g id="matplotlib.axis_4">
    <g id="ytick_9">
     <g id="line2d_55">
      <path d="M 480.205265 290.855147 
L 807.022656 290.855147 
" clip-path="url(#p55ab073e9c)" style="fill: none; stroke-dasharray: 2.96,1.28; stroke-dashoffset: 0; stroke: #808080; stroke-opacity: 0.3; stroke-width: 0.8"/>
     </g>
     <g id="line2d_56">
      <g>
       <use xlink:href="#m4d675d4658" x="480.205265" y="290.855147" style="stroke: #000000; stroke-width: 0.8"/>
      </g>
     </g>
     <g id="text_32">
      <!-- 0.0008 -->
      <g transform="translate(446.122452 294.434054) scale(0.1 -0.1)">
       <use xlink:href="#ArialMT-30"/>
       <use xlink:href="#ArialMT-2e" x="55.615234"/>
       <use xlink:href="#ArialMT-30" x="83.398438"/>
       <use xlink:href="#ArialMT-30" x="139.013672"/>
       <use xlink:href="#ArialMT-30" x="194.628906"/>
       <use xlink:href="#ArialMT-38" x="250.244141"/>
      </g>
     </g>
    </g>
    <g id="ytick_10">
     <g id="line2d_57">
      <path d="M 480.205265 254.583639 
L 807.022656 254.583639 
" clip-path="url(#p55ab073e9c)" style="fill: none; stroke-dasharray: 2.96,1.28; stroke-dashoffset: 0; stroke: #808080; stroke-opacity: 0.3; stroke-width: 0.8"/>
     </g>
     <g id="line2d_58">
      <g>
       <use xlink:href="#m4d675d4658" x="480.205265" y="254.583639" style="stroke: #000000; stroke-width: 0.8"/>
      </g>
     </g>
     <g id="text_33">
      <!-- 0.0016 -->
      <g transform="translate(446.122452 258.162546) scale(0.1 -0.1)">
       <use xlink:href="#ArialMT-30"/>
       <use xlink:href="#ArialMT-2e" x="55.615234"/>
       <use xlink:href="#ArialMT-30" x="83.398438"/>
       <use xlink:href="#ArialMT-30" x="139.013672"/>
       <use xlink:href="#ArialMT-31" x="194.628906"/>
       <use xlink:href="#ArialMT-36" x="250.244141"/>
      </g>
     </g>
    </g>
    <g id="ytick_11">
     <g id="line2d_59">
      <path d="M 480.205265 218.312131 
L 807.022656 218.312131 
" clip-path="url(#p55ab073e9c)" style="fill: none; stroke-dasharray: 2.96,1.28; stroke-dashoffset: 0; stroke: #808080; stroke-opacity: 0.3; stroke-width: 0.8"/>
     </g>
     <g id="line2d_60">
      <g>
       <use xlink:href="#m4d675d4658" x="480.205265" y="218.312131" style="stroke: #000000; stroke-width: 0.8"/>
      </g>
     </g>
     <g id="text_34">
      <!-- 0.0024 -->
      <g transform="translate(446.122452 221.891038) scale(0.1 -0.1)">
       <use xlink:href="#ArialMT-30"/>
       <use xlink:href="#ArialMT-2e" x="55.615234"/>
       <use xlink:href="#ArialMT-30" x="83.398438"/>
       <use xlink:href="#ArialMT-30" x="139.013672"/>
       <use xlink:href="#ArialMT-32" x="194.628906"/>
       <use xlink:href="#ArialMT-34" x="250.244141"/>
      </g>
     </g>
    </g>
    <g id="ytick_12">
     <g id="line2d_61">
      <path d="M 480.205265 182.040623 
L 807.022656 182.040623 
" clip-path="url(#p55ab073e9c)" style="fill: none; stroke-dasharray: 2.96,1.28; stroke-dashoffset: 0; stroke: #808080; stroke-opacity: 0.3; stroke-width: 0.8"/>
     </g>
     <g id="line2d_62">
      <g>
       <use xlink:href="#m4d675d4658" x="480.205265" y="182.040623" style="stroke: #000000; stroke-width: 0.8"/>
      </g>
     </g>
     <g id="text_35">
      <!-- 0.0032 -->
      <g transform="translate(446.122452 185.61953) scale(0.1 -0.1)">
       <use xlink:href="#ArialMT-30"/>
       <use xlink:href="#ArialMT-2e" x="55.615234"/>
       <use xlink:href="#ArialMT-30" x="83.398438"/>
       <use xlink:href="#ArialMT-30" x="139.013672"/>
       <use xlink:href="#ArialMT-33" x="194.628906"/>
       <use xlink:href="#ArialMT-32" x="250.244141"/>
      </g>
     </g>
    </g>
    <g id="ytick_13">
     <g id="line2d_63">
      <path d="M 480.205265 145.769115 
L 807.022656 145.769115 
" clip-path="url(#p55ab073e9c)" style="fill: none; stroke-dasharray: 2.96,1.28; stroke-dashoffset: 0; stroke: #808080; stroke-opacity: 0.3; stroke-width: 0.8"/>
     </g>
     <g id="line2d_64">
      <g>
       <use xlink:href="#m4d675d4658" x="480.205265" y="145.769115" style="stroke: #000000; stroke-width: 0.8"/>
      </g>
     </g>
     <g id="text_36">
      <!-- 0.0040 -->
      <g transform="translate(446.122452 149.348022) scale(0.1 -0.1)">
       <use xlink:href="#ArialMT-30"/>
       <use xlink:href="#ArialMT-2e" x="55.615234"/>
       <use xlink:href="#ArialMT-30" x="83.398438"/>
       <use xlink:href="#ArialMT-30" x="139.013672"/>
       <use xlink:href="#ArialMT-34" x="194.628906"/>
       <use xlink:href="#ArialMT-30" x="250.244141"/>
      </g>
     </g>
    </g>
    <g id="ytick_14">
     <g id="line2d_65">
      <path d="M 480.205265 109.497607 
L 807.022656 109.497607 
" clip-path="url(#p55ab073e9c)" style="fill: none; stroke-dasharray: 2.96,1.28; stroke-dashoffset: 0; stroke: #808080; stroke-opacity: 0.3; stroke-width: 0.8"/>
     </g>
     <g id="line2d_66">
      <g>
       <use xlink:href="#m4d675d4658" x="480.205265" y="109.497607" style="stroke: #000000; stroke-width: 0.8"/>
      </g>
     </g>
     <g id="text_37">
      <!-- 0.0048 -->
      <g transform="translate(446.122452 113.076513) scale(0.1 -0.1)">
       <use xlink:href="#ArialMT-30"/>
       <use xlink:href="#ArialMT-2e" x="55.615234"/>
       <use xlink:href="#ArialMT-30" x="83.398438"/>
       <use xlink:href="#ArialMT-30" x="139.013672"/>
       <use xlink:href="#ArialMT-34" x="194.628906"/>
       <use xlink:href="#ArialMT-38" x="250.244141"/>
      </g>
     </g>
    </g>
    <g id="ytick_15">
     <g id="line2d_67">
      <path d="M 480.205265 73.226099 
L 807.022656 73.226099 
" clip-path="url(#p55ab073e9c)" style="fill: none; stroke-dasharray: 2.96,1.28; stroke-dashoffset: 0; stroke: #808080; stroke-opacity: 0.3; stroke-width: 0.8"/>
     </g>
     <g id="line2d_68">
      <g>
       <use xlink:href="#m4d675d4658" x="480.205265" y="73.226099" style="stroke: #000000; stroke-width: 0.8"/>
      </g>
     </g>
     <g id="text_38">
      <!-- 0.0056 -->
      <g transform="translate(446.122452 76.805005) scale(0.1 -0.1)">
       <use xlink:href="#ArialMT-30"/>
       <use xlink:href="#ArialMT-2e" x="55.615234"/>
       <use xlink:href="#ArialMT-30" x="83.398438"/>
       <use xlink:href="#ArialMT-30" x="139.013672"/>
       <use xlink:href="#ArialMT-35" x="194.628906"/>
       <use xlink:href="#ArialMT-36" x="250.244141"/>
      </g>
     </g>
    </g>
    <g id="ytick_16">
     <g id="line2d_69">
      <path d="M 480.205265 36.954591 
L 807.022656 36.954591 
" clip-path="url(#p55ab073e9c)" style="fill: none; stroke-dasharray: 2.96,1.28; stroke-dashoffset: 0; stroke: #808080; stroke-opacity: 0.3; stroke-width: 0.8"/>
     </g>
     <g id="line2d_70">
      <g>
       <use xlink:href="#m4d675d4658" x="480.205265" y="36.954591" style="stroke: #000000; stroke-width: 0.8"/>
      </g>
     </g>
     <g id="text_39">
      <!-- 0.0064 -->
      <g transform="translate(446.122452 40.533497) scale(0.1 -0.1)">
       <use xlink:href="#ArialMT-30"/>
       <use xlink:href="#ArialMT-2e" x="55.615234"/>
       <use xlink:href="#ArialMT-30" x="83.398438"/>
       <use xlink:href="#ArialMT-30" x="139.013672"/>
       <use xlink:href="#ArialMT-36" x="194.628906"/>
       <use xlink:href="#ArialMT-34" x="250.244141"/>
      </g>
     </g>
    </g>
    <g id="text_40">
     <!-- RMSE -->
     <g transform="translate(439.936202 172.826328) rotate(-90) scale(0.11 -0.11)">
      <use xlink:href="#ArialMT-52"/>
      <use xlink:href="#ArialMT-4d" x="72.216797"/>
      <use xlink:href="#ArialMT-53" x="155.517578"/>
      <use xlink:href="#ArialMT-45" x="222.216797"/>
     </g>
    </g>
   </g>
   <g id="line2d_71">
    <path d="M 480.205265 229.815664 
L 483.87737 229.838349 
L 487.549476 229.774146 
L 491.221582 229.716446 
L 494.893687 229.65262 
L 498.565793 229.587252 
L 502.237898 229.524651 
L 505.910004 229.472036 
L 509.582109 229.414502 
L 513.254215 229.438577 
L 516.92632 229.401613 
L 520.598426 229.35007 
L 524.270531 229.283949 
L 527.942637 229.243519 
L 531.614742 229.181265 
L 535.286848 229.25348 
L 538.958953 229.187251 
L 542.631059 229.19422 
L 546.303164 229.145102 
L 549.97527 229.260229 
L 553.647375 229.194489 
L 557.319481 229.261202 
L 560.991586 229.204297 
L 564.663692 229.145732 
L 568.335797 229.101162 
L 572.007903 229.111559 
L 575.680008 229.047008 
L 579.352114 228.979503 
L 583.02422 228.931253 
L 586.696325 228.945788 
L 590.368431 228.908693 
L 594.040536 228.911984 
L 597.712642 228.846482 
L 601.384747 228.779111 
L 605.056853 228.761923 
L 608.728958 228.877237 
L 612.401064 228.823637 
L 616.073169 228.817892 
L 619.745275 228.754989 
L 623.41738 228.713989 
L 627.089486 228.646514 
L 630.761591 228.596431 
L 634.433697 228.52683 
L 638.105802 228.464064 
L 641.777908 228.407168 
L 645.450013 228.398521 
L 649.122119 228.331769 
L 652.794224 228.288273 
L 656.46633 228.217869 
L 660.138435 228.153396 
L 663.810541 228.08767 
L 667.482646 228.249506 
L 671.154752 228.178953 
L 674.826858 228.123362 
L 678.498963 228.124158 
L 682.171069 228.607253 
L 685.843174 228.537204 
L 689.51528 228.467656 
L 693.187385 228.399599 
L 696.859491 228.375962 
L 700.531596 228.307547 
L 704.203702 228.306305 
L 707.875807 228.238281 
L 711.547913 228.188066 
L 715.220018 228.168132 
L 718.892124 228.428068 
L 722.564229 228.355878 
L 726.236335 228.28577 
L 729.90844 228.213227 
L 733.580546 228.146236 
L 737.252651 228.075827 
L 740.924757 228.075267 
L 744.596862 228.015991 
L 748.268968 227.991509 
L 751.941073 227.922025 
L 755.613179 227.852906 
L 759.285284 227.793721 
L 762.95739 227.853466 
L 766.629496 227.784646 
L 770.301601 227.712118 
L 773.973707 227.64136 
L 777.645812 227.571193 
L 781.317918 227.522994 
L 784.990023 227.496422 
L 788.662129 227.428896 
L 792.334234 227.472598 
L 796.00634 227.399667 
L 799.678445 227.3442 
L 803.350551 227.271259 
L 807.022656 227.32927 
" clip-path="url(#p55ab073e9c)" style="fill: none; stroke: #ff0000; stroke-opacity: 0.9; stroke-width: 0.6; stroke-linecap: square"/>
   </g>
   <g id="line2d_72">
    <path d="M 480.205265 271.452538 
L 483.87737 271.417012 
L 487.549476 271.383779 
L 491.221582 271.348342 
L 494.893687 271.329315 
L 498.565793 271.291854 
L 502.237898 271.25933 
L 505.910004 271.222623 
L 509.582109 271.196921 
L 513.254215 271.184469 
L 516.92632 271.210131 
L 520.598426 271.243151 
L 524.270531 271.240319 
L 527.942637 271.219526 
L 531.614742 271.187453 
L 535.286848 271.18777 
L 538.958953 271.153385 
L 542.631059 271.1718 
L 546.303164 271.182424 
L 549.97527 271.267439 
L 553.647375 271.233492 
L 557.319481 271.374508 
L 560.991586 271.35951 
L 564.663692 271.323807 
L 568.335797 271.38544 
L 572.007903 271.347855 
L 575.680008 271.313104 
L 579.352114 271.325422 
L 583.02422 271.30484 
L 586.696325 271.269497 
L 590.368431 271.263828 
L 594.040536 271.272316 
L 597.712642 271.233353 
L 601.384747 271.210351 
L 605.056853 271.246254 
L 608.728958 271.213573 
L 612.401064 271.219246 
L 616.073169 271.181618 
L 619.745275 271.147312 
L 623.41738 271.110811 
L 627.089486 271.080881 
L 630.761591 271.047502 
L 634.433697 271.008146 
L 638.105802 270.97374 
L 641.777908 270.962059 
L 645.450013 270.922138 
L 649.122119 270.88562 
L 652.794224 270.845576 
L 656.46633 270.808673 
L 660.138435 270.783828 
L 663.810541 270.758324 
L 667.482646 270.902204 
L 671.154752 270.869013 
L 674.826858 270.835594 
L 678.498963 270.878091 
L 682.171069 270.899444 
L 685.843174 270.859085 
L 689.51528 270.833986 
L 693.187385 270.833057 
L 696.859491 270.82538 
L 700.531596 270.792728 
L 704.203702 270.772034 
L 707.875807 270.737128 
L 711.547913 270.696096 
L 715.220018 270.700447 
L 718.892124 270.660565 
L 722.564229 270.638234 
L 726.236335 270.597095 
L 729.90844 270.55691 
L 733.580546 270.523181 
L 737.252651 270.487891 
L 740.924757 270.481582 
L 744.596862 270.47839 
L 748.268968 270.437239 
L 751.941073 270.399837 
L 755.613179 270.375585 
L 759.285284 270.357181 
L 762.95739 270.323381 
L 766.629496 270.284244 
L 770.301601 270.288489 
L 773.973707 270.249706 
L 777.645812 270.209601 
L 781.317918 270.196212 
L 784.990023 270.227551 
L 788.662129 270.189963 
L 792.334234 270.183452 
L 796.00634 270.142417 
L 799.678445 270.101544 
L 803.350551 270.061561 
L 807.022656 270.14786 
" clip-path="url(#p55ab073e9c)" style="fill: none; stroke-dasharray: 2.22,0.96; stroke-dashoffset: 0; stroke: #0000ff; stroke-opacity: 0.9; stroke-width: 0.6"/>
   </g>
   <g id="line2d_73">
    <path d="M 480.205265 290.083466 
L 483.87737 290.05599 
L 487.549476 290.022076 
L 491.221582 289.998535 
L 494.893687 289.990493 
L 498.565793 289.95764 
L 502.237898 289.923482 
L 505.910004 289.897158 
L 509.582109 289.92137 
L 513.254215 289.974498 
L 516.92632 290.015175 
L 520.598426 290.000918 
L 524.270531 290.04602 
L 527.942637 290.065215 
L 531.614742 290.043981 
L 535.286848 290.0435 
L 538.958953 290.010943 
L 542.631059 289.981127 
L 546.303164 289.965678 
L 549.97527 289.982347 
L 553.647375 289.953489 
L 557.319481 290.02076 
L 560.991586 289.990843 
L 564.663692 289.99722 
L 568.335797 289.980964 
L 572.007903 289.951584 
L 575.680008 289.959081 
L 579.352114 290.01251 
L 583.02422 289.981691 
L 586.696325 289.944485 
L 590.368431 289.905866 
L 594.040536 289.888114 
L 597.712642 289.849562 
L 601.384747 289.815895 
L 605.056853 289.812976 
L 608.728958 289.779503 
L 612.401064 289.740836 
L 616.073169 289.71671 
L 619.745275 289.697745 
L 623.41738 289.699445 
L 627.089486 289.727272 
L 630.761591 289.730958 
L 634.433697 289.71732 
L 638.105802 289.702374 
L 641.777908 289.675496 
L 645.450013 289.635347 
L 649.122119 289.595196 
L 652.794224 289.556025 
L 656.46633 289.517564 
L 660.138435 289.501675 
L 663.810541 289.52804 
L 667.482646 289.679019 
L 671.154752 289.69408 
L 674.826858 289.654126 
L 678.498963 289.697309 
L 682.171069 289.795496 
L 685.843174 289.76916 
L 689.51528 289.746912 
L 693.187385 289.754355 
L 696.859491 289.760849 
L 700.531596 289.751216 
L 704.203702 289.754789 
L 707.875807 289.720083 
L 711.547913 289.679174 
L 715.220018 289.644808 
L 718.892124 289.603589 
L 722.564229 289.577722 
L 726.236335 289.540662 
L 729.90844 289.498498 
L 733.580546 289.472253 
L 737.252651 289.440728 
L 740.924757 289.402967 
L 744.596862 289.373989 
L 748.268968 289.345541 
L 751.941073 289.305728 
L 755.613179 289.29268 
L 759.285284 289.249282 
L 762.95739 289.216464 
L 766.629496 289.183479 
L 770.301601 289.139821 
L 773.973707 289.096509 
L 777.645812 289.052321 
L 781.317918 289.016415 
L 784.990023 288.972202 
L 788.662129 288.937921 
L 792.334234 288.913546 
L 796.00634 288.871666 
L 799.678445 288.827288 
L 803.350551 288.818246 
L 807.022656 288.864283 
" clip-path="url(#p55ab073e9c)" style="fill: none; stroke-dasharray: 3.84,0.96,0.6,0.96; stroke-dashoffset: 0; stroke: #00aa00; stroke-opacity: 0.9; stroke-width: 0.6"/>
   </g>
   <g id="line2d_74">
    <path d="M 480.205265 40.570211 
L 483.87737 41.097882 
L 487.549476 41.593277 
L 491.221582 42.056686 
L 494.893687 42.527445 
L 498.565793 42.951835 
L 502.237898 43.33945 
L 505.910004 43.658439 
L 509.582109 43.951365 
L 513.254215 44.306316 
L 516.92632 44.852866 
L 520.598426 45.306523 
L 524.270531 45.591467 
L 527.942637 45.689011 
L 531.614742 45.619453 
L 535.286848 45.435837 
L 538.958953 45.251492 
L 542.631059 45.17146 
L 546.303164 45.134634 
L 549.97527 45.008639 
L 553.647375 44.867054 
L 557.319481 44.822308 
L 560.991586 44.802374 
L 564.663692 44.792732 
L 568.335797 44.728506 
L 572.007903 44.623327 
L 575.680008 44.496038 
L 579.352114 44.403271 
L 583.02422 44.317581 
L 586.696325 44.235948 
L 590.368431 44.110512 
L 594.040536 43.992487 
L 597.712642 43.899713 
L 601.384747 43.849681 
L 605.056853 43.754077 
L 608.728958 43.648454 
L 612.401064 43.626677 
L 616.073169 43.639472 
L 619.745275 43.699348 
L 623.41738 43.792162 
L 627.089486 43.842659 
L 630.761591 43.832112 
L 634.433697 43.792716 
L 638.105802 43.719362 
L 641.777908 43.58723 
L 645.450013 43.429022 
L 649.122119 43.276356 
L 652.794224 43.136834 
L 656.46633 42.998037 
L 660.138435 42.841354 
L 663.810541 42.661319 
L 667.482646 42.461182 
L 671.154752 42.303508 
L 674.826858 42.192544 
L 678.498963 42.029706 
L 682.171069 41.824416 
L 685.843174 41.640621 
L 689.51528 41.469302 
L 693.187385 41.288941 
L 696.859491 41.096705 
L 700.531596 40.896722 
L 704.203702 40.689045 
L 707.875807 40.480801 
L 711.547913 40.272722 
L 715.220018 40.066825 
L 718.892124 39.882242 
L 722.564229 39.69991 
L 726.236335 39.528746 
L 729.90844 39.370534 
L 733.580546 39.243126 
L 737.252651 39.161075 
L 740.924757 39.170983 
L 744.596862 39.139846 
L 748.268968 39.049997 
L 751.941073 38.956077 
L 755.613179 38.818333 
L 759.285284 38.685452 
L 762.95739 38.606139 
L 766.629496 38.568558 
L 770.301601 38.460791 
L 773.973707 38.318376 
L 777.645812 38.151278 
L 781.317918 37.942599 
L 784.990023 37.739924 
L 788.662129 37.546338 
L 792.334234 37.331282 
L 796.00634 37.113239 
L 799.678445 36.897847 
L 803.350551 36.681378 
L 807.022656 36.468531 
" clip-path="url(#p55ab073e9c)" style="fill: none; stroke-dasharray: 0.6,0.99; stroke-dashoffset: 0; stroke: #ff8c00; stroke-opacity: 0.9; stroke-width: 0.6"/>
   </g>
   <g id="line2d_75">
    <path d="M 480.205265 173.360133 
L 483.87737 173.292652 
L 487.549476 173.310214 
L 491.221582 173.378966 
L 494.893687 173.429333 
L 498.565793 173.492572 
L 502.237898 173.507176 
L 505.910004 173.464688 
L 509.582109 173.37181 
L 513.254215 173.269301 
L 516.92632 173.204557 
L 520.598426 173.101829 
L 524.270531 173.059933 
L 527.942637 173.081985 
L 531.614742 173.138705 
L 535.286848 173.275693 
L 538.958953 173.301411 
L 542.631059 173.326109 
L 546.303164 173.241628 
L 549.97527 173.179902 
L 553.647375 173.162536 
L 557.319481 173.057607 
L 560.991586 172.951584 
L 564.663692 172.845859 
L 568.335797 172.746937 
L 572.007903 172.652606 
L 575.680008 172.556833 
L 579.352114 172.451576 
L 583.02422 172.346642 
L 586.696325 172.245147 
L 590.368431 172.138431 
L 594.040536 172.04501 
L 597.712642 171.967789 
L 601.384747 171.922055 
L 605.056853 171.823205 
L 608.728958 171.719509 
L 612.401064 171.67292 
L 616.073169 171.633988 
L 619.745275 171.5944 
L 623.41738 171.54135 
L 627.089486 171.454645 
L 630.761591 171.346924 
L 634.433697 171.236638 
L 638.105802 171.129344 
L 641.777908 171.045389 
L 645.450013 170.962581 
L 649.122119 170.852966 
L 652.794224 170.745885 
L 656.46633 170.642853 
L 660.138435 170.532514 
L 663.810541 170.420811 
L 667.482646 170.375267 
L 671.154752 170.353421 
L 674.826858 170.286717 
L 678.498963 170.187702 
L 682.171069 170.221981 
L 685.843174 170.259395 
L 689.51528 170.203634 
L 693.187385 170.091913 
L 696.859491 169.992214 
L 700.531596 169.915143 
L 704.203702 169.856317 
L 707.875807 169.754015 
L 711.547913 169.639404 
L 715.220018 169.574938 
L 718.892124 169.571175 
L 722.564229 169.524034 
L 726.236335 169.455017 
L 729.90844 169.373552 
L 733.580546 169.297531 
L 737.252651 169.228729 
L 740.924757 169.215209 
L 744.596862 169.146886 
L 748.268968 169.04823 
L 751.941073 168.95265 
L 755.613179 168.841528 
L 759.285284 168.738309 
L 762.95739 168.671807 
L 766.629496 168.626627 
L 770.301601 168.520336 
L 773.973707 168.404355 
L 777.645812 168.28569 
L 781.317918 168.179845 
L 784.990023 168.061763 
L 788.662129 167.954931 
L 792.334234 167.835536 
L 796.00634 167.716881 
L 799.678445 167.597651 
L 803.350551 167.476848 
L 807.022656 167.39307 
" clip-path="url(#p55ab073e9c)" style="fill: none; stroke: #660066; stroke-opacity: 0.9; stroke-width: 0.6; stroke-linecap: square"/>
   </g>
   <g id="line2d_76">
    <path d="M 480.205265 102.957161 
L 483.87737 102.979439 
L 487.549476 102.982337 
L 491.221582 103.028088 
L 494.893687 103.129119 
L 498.565793 103.180884 
L 502.237898 103.228165 
L 505.910004 103.266911 
L 509.582109 103.332865 
L 513.254215 103.447115 
L 516.92632 103.646221 
L 520.598426 103.640577 
L 524.270531 103.617232 
L 527.942637 103.615294 
L 531.614742 103.612246 
L 535.286848 103.534897 
L 538.958953 103.475636 
L 542.631059 103.349422 
L 546.303164 103.277617 
L 549.97527 103.370332 
L 553.647375 103.332007 
L 557.319481 103.184978 
L 560.991586 103.074454 
L 564.663692 102.977906 
L 568.335797 102.915435 
L 572.007903 102.825032 
L 575.680008 102.713645 
L 579.352114 102.571002 
L 583.02422 102.455545 
L 586.696325 102.341865 
L 590.368431 102.249126 
L 594.040536 102.109383 
L 597.712642 101.966823 
L 601.384747 101.824808 
L 605.056853 101.741532 
L 608.728958 101.629075 
L 612.401064 101.474437 
L 616.073169 101.335396 
L 619.745275 101.197138 
L 623.41738 101.063205 
L 627.089486 100.957633 
L 630.761591 100.848857 
L 634.433697 100.729296 
L 638.105802 100.613786 
L 641.777908 100.526021 
L 645.450013 100.419137 
L 649.122119 100.289075 
L 652.794224 100.163961 
L 656.46633 100.05644 
L 660.138435 99.969316 
L 663.810541 99.888894 
L 667.482646 99.930979 
L 671.154752 99.946293 
L 674.826858 99.933432 
L 678.498963 99.826002 
L 682.171069 99.69931 
L 685.843174 99.615814 
L 689.51528 99.553636 
L 693.187385 99.48756 
L 696.859491 99.427373 
L 700.531596 99.36762 
L 704.203702 99.340124 
L 707.875807 99.274324 
L 711.547913 99.201395 
L 715.220018 99.08392 
L 718.892124 98.96821 
L 722.564229 98.894096 
L 726.236335 98.778 
L 729.90844 98.647017 
L 733.580546 98.499041 
L 737.252651 98.340076 
L 740.924757 98.172671 
L 744.596862 98.041967 
L 748.268968 97.919158 
L 751.941073 97.766425 
L 755.613179 97.655805 
L 759.285284 97.51557 
L 762.95739 97.357709 
L 766.629496 97.210675 
L 770.301601 97.126607 
L 773.973707 97.012206 
L 777.645812 96.89015 
L 781.317918 96.835823 
L 784.990023 96.691522 
L 788.662129 96.551755 
L 792.334234 96.496703 
L 796.00634 96.37915 
L 799.678445 96.236453 
L 803.350551 96.11578 
L 807.022656 96.105405 
" clip-path="url(#p55ab073e9c)" style="fill: none; stroke: #ff1493; stroke-opacity: 0.9; stroke-width: 0.6; stroke-linecap: square"/>
   </g>
   <g id="patch_9">
    <path d="M 480.205265 291.935625 
L 480.205265 21.935625 
" style="fill: none; stroke: #000000; stroke-width: 0.8; stroke-linejoin: miter; stroke-linecap: square"/>
   </g>
   <g id="patch_10">
    <path d="M 807.022656 291.935625 
L 807.022656 21.935625 
" style="fill: none; stroke: #000000; stroke-width: 0.8; stroke-linejoin: miter; stroke-linecap: square"/>
   </g>
   <g id="patch_11">
    <path d="M 480.205265 291.935625 
L 807.022656 291.935625 
" style="fill: none; stroke: #000000; stroke-width: 0.8; stroke-linejoin: miter; stroke-linecap: square"/>
   </g>
   <g id="patch_12">
    <path d="M 480.205265 21.935625 
L 807.022656 21.935625 
" style="fill: none; stroke: #000000; stroke-width: 0.8; stroke-linejoin: miter; stroke-linecap: square"/>
   </g>
   <g id="text_41">
    <!-- Alibaba Dataset (30-Second Scale) -->
    <g transform="translate(545.254273 15.935625) scale(0.12 -0.12)">
     <defs>
      <path id="Arial-BoldMT-41" d="M 4597 0 
L 3591 0 
L 3191 1041 
L 1359 1041 
L 981 0 
L 0 0 
L 1784 4581 
L 2763 4581 
L 4597 0 
z
M 2894 1813 
L 2263 3513 
L 1644 1813 
L 2894 1813 
z
" transform="scale(0.015625)"/>
      <path id="Arial-BoldMT-62" d="M 422 0 
L 422 4581 
L 1300 4581 
L 1300 2931 
Q 1706 3394 2263 3394 
Q 2869 3394 3266 2955 
Q 3663 2516 3663 1694 
Q 3663 844 3258 384 
Q 2853 -75 2275 -75 
Q 1991 -75 1714 67 
Q 1438 209 1238 488 
L 1238 0 
L 422 0 
z
M 1294 1731 
Q 1294 1216 1456 969 
Q 1684 619 2063 619 
Q 2353 619 2558 867 
Q 2763 1116 2763 1650 
Q 2763 2219 2556 2470 
Q 2350 2722 2028 2722 
Q 1713 2722 1503 2476 
Q 1294 2231 1294 1731 
z
" transform="scale(0.015625)"/>
      <path id="Arial-BoldMT-33" d="M 241 1216 
L 1091 1319 
Q 1131 994 1309 822 
Q 1488 650 1741 650 
Q 2013 650 2198 856 
Q 2384 1063 2384 1413 
Q 2384 1744 2206 1937 
Q 2028 2131 1772 2131 
Q 1603 2131 1369 2066 
L 1466 2781 
Q 1822 2772 2009 2936 
Q 2197 3100 2197 3372 
Q 2197 3603 2059 3740 
Q 1922 3878 1694 3878 
Q 1469 3878 1309 3722 
Q 1150 3566 1116 3266 
L 306 3403 
Q 391 3819 561 4067 
Q 731 4316 1036 4458 
Q 1341 4600 1719 4600 
Q 2366 4600 2756 4188 
Q 3078 3850 3078 3425 
Q 3078 2822 2419 2463 
Q 2813 2378 3048 2084 
Q 3284 1791 3284 1375 
Q 3284 772 2843 347 
Q 2403 -78 1747 -78 
Q 1125 -78 715 280 
Q 306 638 241 1216 
z
" transform="scale(0.015625)"/>
      <path id="Arial-BoldMT-30" d="M 1756 4600 
Q 2422 4600 2797 4125 
Q 3244 3563 3244 2259 
Q 3244 959 2794 391 
Q 2422 -78 1756 -78 
Q 1088 -78 678 436 
Q 269 950 269 2269 
Q 269 3563 719 4131 
Q 1091 4600 1756 4600 
z
M 1756 3872 
Q 1597 3872 1472 3770 
Q 1347 3669 1278 3406 
Q 1188 3066 1188 2259 
Q 1188 1453 1269 1151 
Q 1350 850 1473 750 
Q 1597 650 1756 650 
Q 1916 650 2041 751 
Q 2166 853 2234 1116 
Q 2325 1453 2325 2259 
Q 2325 3066 2244 3367 
Q 2163 3669 2039 3770 
Q 1916 3872 1756 3872 
z
" transform="scale(0.015625)"/>
      <path id="Arial-BoldMT-64" d="M 3503 0 
L 2688 0 
L 2688 488 
Q 2484 203 2207 64 
Q 1931 -75 1650 -75 
Q 1078 -75 670 386 
Q 263 847 263 1672 
Q 263 2516 659 2955 
Q 1056 3394 1663 3394 
Q 2219 3394 2625 2931 
L 2625 4581 
L 3503 4581 
L 3503 0 
z
M 1159 1731 
Q 1159 1200 1306 963 
Q 1519 619 1900 619 
Q 2203 619 2415 876 
Q 2628 1134 2628 1647 
Q 2628 2219 2422 2470 
Q 2216 2722 1894 2722 
Q 1581 2722 1370 2473 
Q 1159 2225 1159 1731 
z
" transform="scale(0.015625)"/>
     </defs>
     <use xlink:href="#Arial-BoldMT-41"/>
     <use xlink:href="#Arial-BoldMT-6c" x="72.216797"/>
     <use xlink:href="#Arial-BoldMT-69" x="100"/>
     <use xlink:href="#Arial-BoldMT-62" x="127.783203"/>
     <use xlink:href="#Arial-BoldMT-61" x="188.867188"/>
     <use xlink:href="#Arial-BoldMT-62" x="244.482422"/>
     <use xlink:href="#Arial-BoldMT-61" x="305.566406"/>
     <use xlink:href="#Arial-BoldMT-20" x="361.181641"/>
     <use xlink:href="#Arial-BoldMT-44" x="388.964844"/>
     <use xlink:href="#Arial-BoldMT-61" x="461.181641"/>
     <use xlink:href="#Arial-BoldMT-74" x="516.796875"/>
     <use xlink:href="#Arial-BoldMT-61" x="550.097656"/>
     <use xlink:href="#Arial-BoldMT-73" x="605.712891"/>
     <use xlink:href="#Arial-BoldMT-65" x="661.328125"/>
     <use xlink:href="#Arial-BoldMT-74" x="716.943359"/>
     <use xlink:href="#Arial-BoldMT-20" x="750.244141"/>
     <use xlink:href="#Arial-BoldMT-28" x="778.027344"/>
     <use xlink:href="#Arial-BoldMT-33" x="811.328125"/>
     <use xlink:href="#Arial-BoldMT-30" x="866.943359"/>
     <use xlink:href="#Arial-BoldMT-2d" x="922.558594"/>
     <use xlink:href="#Arial-BoldMT-53" x="955.859375"/>
     <use xlink:href="#Arial-BoldMT-65" x="1022.558594"/>
     <use xlink:href="#Arial-BoldMT-63" x="1078.173828"/>
     <use xlink:href="#Arial-BoldMT-6f" x="1133.789062"/>
     <use xlink:href="#Arial-BoldMT-6e" x="1194.873047"/>
     <use xlink:href="#Arial-BoldMT-64" x="1255.957031"/>
     <use xlink:href="#Arial-BoldMT-20" x="1317.041016"/>
     <use xlink:href="#Arial-BoldMT-53" x="1344.824219"/>
     <use xlink:href="#Arial-BoldMT-63" x="1411.523438"/>
     <use xlink:href="#Arial-BoldMT-61" x="1467.138672"/>
     <use xlink:href="#Arial-BoldMT-6c" x="1522.753906"/>
     <use xlink:href="#Arial-BoldMT-65" x="1550.537109"/>
     <use xlink:href="#Arial-BoldMT-29" x="1606.152344"/>
    </g>
   </g>
   <g id="legend_2">
    <g id="patch_13">
     <path d="M 726.123906 105.520312 
L 800.722656 105.520312 
Q 802.522656 105.520312 802.522656 103.720312 
L 802.522656 28.235625 
Q 802.522656 26.435625 800.722656 26.435625 
L 726.123906 26.435625 
Q 724.323906 26.435625 724.323906 28.235625 
L 724.323906 103.720312 
Q 724.323906 105.520312 726.123906 105.520312 
z
" style="fill: #ffffff; opacity: 0.9; stroke: #cccccc; stroke-linejoin: miter"/>
    </g>
    <g id="line2d_77">
     <path d="M 727.923906 33.327656 
L 734.673906 33.327656 
L 741.423906 33.327656 
" style="fill: none; stroke: #ff0000; stroke-opacity: 0.9; stroke-width: 0.6; stroke-linecap: square"/>
    </g>
    <g id="text_42">
     <!-- ARIMA -->
     <g transform="translate(745.923906 36.477656) scale(0.09 -0.09)">
      <use xlink:href="#ArialMT-41"/>
      <use xlink:href="#ArialMT-52" x="66.699219"/>
      <use xlink:href="#ArialMT-49" x="138.916016"/>
      <use xlink:href="#ArialMT-4d" x="166.699219"/>
      <use xlink:href="#ArialMT-41" x="250"/>
     </g>
    </g>
    <g id="line2d_78">
     <path d="M 727.923906 46.058438 
L 734.673906 46.058438 
L 741.423906 46.058438 
" style="fill: none; stroke-dasharray: 2.22,0.96; stroke-dashoffset: 0; stroke: #0000ff; stroke-opacity: 0.9; stroke-width: 0.6"/>
    </g>
    <g id="text_43">
     <!-- LSTM -->
     <g transform="translate(745.923906 49.208438) scale(0.09 -0.09)">
      <use xlink:href="#ArialMT-4c"/>
      <use xlink:href="#ArialMT-53" x="55.615234"/>
      <use xlink:href="#ArialMT-54" x="122.314453"/>
      <use xlink:href="#ArialMT-4d" x="183.398438"/>
     </g>
    </g>
    <g id="line2d_79">
     <path d="M 727.923906 58.789219 
L 734.673906 58.789219 
L 741.423906 58.789219 
" style="fill: none; stroke-dasharray: 3.84,0.96,0.6,0.96; stroke-dashoffset: 0; stroke: #00aa00; stroke-opacity: 0.9; stroke-width: 0.6"/>
    </g>
    <g id="text_44">
     <!-- SWT-CLSTM -->
     <g transform="translate(745.923906 61.939219) scale(0.09 -0.09)">
      <use xlink:href="#ArialMT-53"/>
      <use xlink:href="#ArialMT-57" x="66.699219"/>
      <use xlink:href="#ArialMT-54" x="161.083984"/>
      <use xlink:href="#ArialMT-2d" x="216.667969"/>
      <use xlink:href="#ArialMT-43" x="249.96875"/>
      <use xlink:href="#ArialMT-4c" x="322.185547"/>
      <use xlink:href="#ArialMT-53" x="377.800781"/>
      <use xlink:href="#ArialMT-54" x="444.5"/>
      <use xlink:href="#ArialMT-4d" x="505.583984"/>
     </g>
    </g>
    <g id="line2d_80">
     <path d="M 727.923906 71.52 
L 734.673906 71.52 
L 741.423906 71.52 
" style="fill: none; stroke-dasharray: 0.6,0.99; stroke-dashoffset: 0; stroke: #ff8c00; stroke-opacity: 0.9; stroke-width: 0.6"/>
    </g>
    <g id="text_45">
     <!-- TFC -->
     <g transform="translate(745.923906 74.67) scale(0.09 -0.09)">
      <use xlink:href="#ArialMT-54"/>
      <use xlink:href="#ArialMT-46" x="61.083984"/>
      <use xlink:href="#ArialMT-43" x="122.167969"/>
     </g>
    </g>
    <g id="line2d_81">
     <path d="M 727.923906 84.250781 
L 734.673906 84.250781 
L 741.423906 84.250781 
" style="fill: none; stroke: #660066; stroke-opacity: 0.9; stroke-width: 0.6; stroke-linecap: square"/>
    </g>
    <g id="text_46">
     <!-- TimeMixer++ -->
     <g transform="translate(745.923906 87.400781) scale(0.09 -0.09)">
      <use xlink:href="#ArialMT-54"/>
      <use xlink:href="#ArialMT-69" x="57.333984"/>
      <use xlink:href="#ArialMT-6d" x="79.550781"/>
      <use xlink:href="#ArialMT-65" x="162.851562"/>
      <use xlink:href="#ArialMT-4d" x="218.466797"/>
      <use xlink:href="#ArialMT-69" x="301.767578"/>
      <use xlink:href="#ArialMT-78" x="323.984375"/>
      <use xlink:href="#ArialMT-65" x="373.984375"/>
      <use xlink:href="#ArialMT-72" x="429.599609"/>
      <use xlink:href="#ArialMT-2b" x="462.900391"/>
      <use xlink:href="#ArialMT-2b" x="521.298828"/>
     </g>
    </g>
    <g id="line2d_82">
     <path d="M 727.923906 96.981562 
L 734.673906 96.981562 
L 741.423906 96.981562 
" style="fill: none; stroke: #ff1493; stroke-opacity: 0.9; stroke-width: 0.6; stroke-linecap: square"/>
    </g>
    <g id="text_47">
     <!-- PatchTST -->
     <g transform="translate(745.923906 100.131562) scale(0.09 -0.09)">
      <use xlink:href="#ArialMT-50"/>
      <use xlink:href="#ArialMT-61" x="66.699219"/>
      <use xlink:href="#ArialMT-74" x="122.314453"/>
      <use xlink:href="#ArialMT-63" x="150.097656"/>
      <use xlink:href="#ArialMT-68" x="200.097656"/>
      <use xlink:href="#ArialMT-54" x="255.712891"/>
      <use xlink:href="#ArialMT-53" x="316.796875"/>
      <use xlink:href="#ArialMT-54" x="383.496094"/>
     </g>
    </g>
   </g>
  </g>
 </g>
 <defs>
  <clipPath id="p17131d8ae2">
   <rect x="55.342656" y="21.935625" width="326.817391" height="270"/>
  </clipPath>
  <clipPath id="p55ab073e9c">
   <rect x="480.205265" y="21.935625" width="326.817391" height="270"/>
  </clipPath>
 </defs>
</svg>
