<?xml version="1.0" encoding="utf-8" standalone="no"?>
<!DOCTYPE svg PUBLIC "-//W3C//DTD SVG 1.1//EN"
  "http://www.w3.org/Graphics/SVG/1.1/DTD/svg11.dtd">
<svg xmlns:xlink="http://www.w3.org/1999/xlink" width="705.6pt" height="561.6pt" viewBox="0 0 705.6 561.6" xmlns="http://www.w3.org/2000/svg" version="1.1">
 <metadata>
  <rdf:RDF xmlns:dc="http://purl.org/dc/elements/1.1/" xmlns:cc="http://creativecommons.org/ns#" xmlns:rdf="http://www.w3.org/1999/02/22-rdf-syntax-ns#">
   <cc:Work>
    <dc:type rdf:resource="http://purl.org/dc/dcmitype/StillImage"/>
    <dc:date>2025-05-17T12:22:01.405967</dc:date>
    <dc:format>image/svg+xml</dc:format>
    <dc:creator>
     <cc:Agent>
      <dc:title>Matplotlib v3.9.4, https://matplotlib.org/</dc:title>
     </cc:Agent>
    </dc:creator>
   </cc:Work>
  </rdf:RDF>
 </metadata>
 <defs>
  <style type="text/css">*{stroke-linejoin: round; stroke-linecap: butt}</style>
 </defs>
 <g id="figure_1">
  <g id="patch_1">
   <path d="M 0 561.6 
L 705.6 561.6 
L 705.6 0 
L 0 0 
z
" style="fill: #ffffff"/>
  </g>
  <g id="axes_1">
   <g id="patch_2">
    <path d="M 45.587812 528.834375 
L 702 528.834375 
L 702 3.6 
L 45.587812 3.6 
z
" style="fill: #ffffff"/>
   </g>
   <g id="matplotlib.axis_1">
    <g id="xtick_1">
     <g id="line2d_1">
      <path d="M 45.587812 528.834375 
L 45.587812 3.6 
" clip-path="url(#p95742a6d9d)" style="fill: none; stroke-dasharray: 1.85,0.8; stroke-dashoffset: 0; stroke: #b0b0b0; stroke-opacity: 0.7; stroke-width: 0.5"/>
     </g>
     <g id="line2d_2">
      <defs>
       <path id="m48d9589697" d="M 0 0 
L 0 3.5 
" style="stroke: #000000; stroke-width: 0.8"/>
      </defs>
      <g>
       <use xlink:href="#m48d9589697" x="45.587812" y="528.834375" style="stroke: #000000; stroke-width: 0.8"/>
      </g>
     </g>
     <g id="text_1">
      <!-- 0.00 -->
      <g transform="translate(37.712812 542.08375) scale(0.09 -0.09)">
       <defs>
        <path id="TimesNewRomanPSMT-30" d="M 231 2094 
Q 231 2819 450 3342 
Q 669 3866 1031 4122 
Q 1313 4325 1613 4325 
Q 2100 4325 2488 3828 
Q 2972 3213 2972 2159 
Q 2972 1422 2759 906 
Q 2547 391 2217 158 
Q 1888 -75 1581 -75 
Q 975 -75 572 641 
Q 231 1244 231 2094 
z
M 844 2016 
Q 844 1141 1059 588 
Q 1238 122 1591 122 
Q 1759 122 1940 273 
Q 2122 425 2216 781 
Q 2359 1319 2359 2297 
Q 2359 3022 2209 3506 
Q 2097 3866 1919 4016 
Q 1791 4119 1609 4119 
Q 1397 4119 1231 3928 
Q 1006 3669 925 3112 
Q 844 2556 844 2016 
z
" transform="scale(0.015625)"/>
        <path id="TimesNewRomanPSMT-2e" d="M 800 606 
Q 947 606 1047 504 
Q 1147 403 1147 259 
Q 1147 116 1045 14 
Q 944 -88 800 -88 
Q 656 -88 554 14 
Q 453 116 453 259 
Q 453 406 554 506 
Q 656 606 800 606 
z
" transform="scale(0.015625)"/>
       </defs>
       <use xlink:href="#TimesNewRomanPSMT-30"/>
       <use xlink:href="#TimesNewRomanPSMT-2e" x="50"/>
       <use xlink:href="#TimesNewRomanPSMT-30" x="75"/>
       <use xlink:href="#TimesNewRomanPSMT-30" x="125"/>
      </g>
     </g>
    </g>
    <g id="xtick_2">
     <g id="line2d_3">
      <path d="M 125.7695 528.834375 
L 125.7695 3.6 
" clip-path="url(#p95742a6d9d)" style="fill: none; stroke-dasharray: 1.85,0.8; stroke-dashoffset: 0; stroke: #b0b0b0; stroke-opacity: 0.7; stroke-width: 0.5"/>
     </g>
     <g id="line2d_4">
      <g>
       <use xlink:href="#m48d9589697" x="125.7695" y="528.834375" style="stroke: #000000; stroke-width: 0.8"/>
      </g>
     </g>
     <g id="text_2">
      <!-- 0.02 -->
      <g transform="translate(117.8945 542.08375) scale(0.09 -0.09)">
       <defs>
        <path id="TimesNewRomanPSMT-32" d="M 2934 816 
L 2638 0 
L 138 0 
L 138 116 
Q 1241 1122 1691 1759 
Q 2141 2397 2141 2925 
Q 2141 3328 1894 3587 
Q 1647 3847 1303 3847 
Q 991 3847 742 3664 
Q 494 3481 375 3128 
L 259 3128 
Q 338 3706 661 4015 
Q 984 4325 1469 4325 
Q 1984 4325 2329 3994 
Q 2675 3663 2675 3213 
Q 2675 2891 2525 2569 
Q 2294 2063 1775 1497 
Q 997 647 803 472 
L 1909 472 
Q 2247 472 2383 497 
Q 2519 522 2628 598 
Q 2738 675 2819 816 
L 2934 816 
z
" transform="scale(0.015625)"/>
       </defs>
       <use xlink:href="#TimesNewRomanPSMT-30"/>
       <use xlink:href="#TimesNewRomanPSMT-2e" x="50"/>
       <use xlink:href="#TimesNewRomanPSMT-30" x="75"/>
       <use xlink:href="#TimesNewRomanPSMT-32" x="125"/>
      </g>
     </g>
    </g>
    <g id="xtick_3">
     <g id="line2d_5">
      <path d="M 205.951188 528.834375 
L 205.951188 3.6 
" clip-path="url(#p95742a6d9d)" style="fill: none; stroke-dasharray: 1.85,0.8; stroke-dashoffset: 0; stroke: #b0b0b0; stroke-opacity: 0.7; stroke-width: 0.5"/>
     </g>
     <g id="line2d_6">
      <g>
       <use xlink:href="#m48d9589697" x="205.951188" y="528.834375" style="stroke: #000000; stroke-width: 0.8"/>
      </g>
     </g>
     <g id="text_3">
      <!-- 0.04 -->
      <g transform="translate(198.076188 542.08375) scale(0.09 -0.09)">
       <defs>
        <path id="TimesNewRomanPSMT-34" d="M 2978 1563 
L 2978 1119 
L 2409 1119 
L 2409 0 
L 1894 0 
L 1894 1119 
L 100 1119 
L 100 1519 
L 2066 4325 
L 2409 4325 
L 2409 1563 
L 2978 1563 
z
M 1894 1563 
L 1894 3666 
L 406 1563 
L 1894 1563 
z
" transform="scale(0.015625)"/>
       </defs>
       <use xlink:href="#TimesNewRomanPSMT-30"/>
       <use xlink:href="#TimesNewRomanPSMT-2e" x="50"/>
       <use xlink:href="#TimesNewRomanPSMT-30" x="75"/>
       <use xlink:href="#TimesNewRomanPSMT-34" x="125"/>
      </g>
     </g>
    </g>
    <g id="xtick_4">
     <g id="line2d_7">
      <path d="M 286.132876 528.834375 
L 286.132876 3.6 
" clip-path="url(#p95742a6d9d)" style="fill: none; stroke-dasharray: 1.85,0.8; stroke-dashoffset: 0; stroke: #b0b0b0; stroke-opacity: 0.7; stroke-width: 0.5"/>
     </g>
     <g id="line2d_8">
      <g>
       <use xlink:href="#m48d9589697" x="286.132876" y="528.834375" style="stroke: #000000; stroke-width: 0.8"/>
      </g>
     </g>
     <g id="text_4">
      <!-- 0.06 -->
      <g transform="translate(278.257876 542.08375) scale(0.09 -0.09)">
       <defs>
        <path id="TimesNewRomanPSMT-36" d="M 2869 4325 
L 2869 4209 
Q 2456 4169 2195 4045 
Q 1934 3922 1679 3669 
Q 1425 3416 1258 3105 
Q 1091 2794 978 2366 
Q 1428 2675 1881 2675 
Q 2316 2675 2634 2325 
Q 2953 1975 2953 1425 
Q 2953 894 2631 456 
Q 2244 -75 1606 -75 
Q 1172 -75 869 213 
Q 275 772 275 1663 
Q 275 2231 503 2743 
Q 731 3256 1154 3653 
Q 1578 4050 1965 4187 
Q 2353 4325 2688 4325 
L 2869 4325 
z
M 925 2138 
Q 869 1716 869 1456 
Q 869 1156 980 804 
Q 1091 453 1309 247 
Q 1469 100 1697 100 
Q 1969 100 2183 356 
Q 2397 613 2397 1088 
Q 2397 1622 2184 2012 
Q 1972 2403 1581 2403 
Q 1463 2403 1327 2353 
Q 1191 2303 925 2138 
z
" transform="scale(0.015625)"/>
       </defs>
       <use xlink:href="#TimesNewRomanPSMT-30"/>
       <use xlink:href="#TimesNewRomanPSMT-2e" x="50"/>
       <use xlink:href="#TimesNewRomanPSMT-30" x="75"/>
       <use xlink:href="#TimesNewRomanPSMT-36" x="125"/>
      </g>
     </g>
    </g>
    <g id="xtick_5">
     <g id="line2d_9">
      <path d="M 366.314564 528.834375 
L 366.314564 3.6 
" clip-path="url(#p95742a6d9d)" style="fill: none; stroke-dasharray: 1.85,0.8; stroke-dashoffset: 0; stroke: #b0b0b0; stroke-opacity: 0.7; stroke-width: 0.5"/>
     </g>
     <g id="line2d_10">
      <g>
       <use xlink:href="#m48d9589697" x="366.314564" y="528.834375" style="stroke: #000000; stroke-width: 0.8"/>
      </g>
     </g>
     <g id="text_5">
      <!-- 0.08 -->
      <g transform="translate(358.439564 542.08375) scale(0.09 -0.09)">
       <defs>
        <path id="TimesNewRomanPSMT-38" d="M 1228 2134 
Q 725 2547 579 2797 
Q 434 3047 434 3316 
Q 434 3728 753 4026 
Q 1072 4325 1600 4325 
Q 2113 4325 2425 4047 
Q 2738 3769 2738 3413 
Q 2738 3175 2569 2928 
Q 2400 2681 1866 2347 
Q 2416 1922 2594 1678 
Q 2831 1359 2831 1006 
Q 2831 559 2490 242 
Q 2150 -75 1597 -75 
Q 994 -75 656 303 
Q 388 606 388 966 
Q 388 1247 577 1523 
Q 766 1800 1228 2134 
z
M 1719 2469 
Q 2094 2806 2194 3001 
Q 2294 3197 2294 3444 
Q 2294 3772 2109 3958 
Q 1925 4144 1606 4144 
Q 1288 4144 1088 3959 
Q 888 3775 888 3528 
Q 888 3366 970 3203 
Q 1053 3041 1206 2894 
L 1719 2469 
z
M 1375 2016 
Q 1116 1797 991 1539 
Q 866 1281 866 981 
Q 866 578 1086 336 
Q 1306 94 1647 94 
Q 1984 94 2187 284 
Q 2391 475 2391 747 
Q 2391 972 2272 1150 
Q 2050 1481 1375 2016 
z
" transform="scale(0.015625)"/>
       </defs>
       <use xlink:href="#TimesNewRomanPSMT-30"/>
       <use xlink:href="#TimesNewRomanPSMT-2e" x="50"/>
       <use xlink:href="#TimesNewRomanPSMT-30" x="75"/>
       <use xlink:href="#TimesNewRomanPSMT-38" x="125"/>
      </g>
     </g>
    </g>
    <g id="xtick_6">
     <g id="line2d_11">
      <path d="M 446.496252 528.834375 
L 446.496252 3.6 
" clip-path="url(#p95742a6d9d)" style="fill: none; stroke-dasharray: 1.85,0.8; stroke-dashoffset: 0; stroke: #b0b0b0; stroke-opacity: 0.7; stroke-width: 0.5"/>
     </g>
     <g id="line2d_12">
      <g>
       <use xlink:href="#m48d9589697" x="446.496252" y="528.834375" style="stroke: #000000; stroke-width: 0.8"/>
      </g>
     </g>
     <g id="text_6">
      <!-- 0.10 -->
      <g transform="translate(438.621252 542.08375) scale(0.09 -0.09)">
       <defs>
        <path id="TimesNewRomanPSMT-31" d="M 750 3822 
L 1781 4325 
L 1884 4325 
L 1884 747 
Q 1884 391 1914 303 
Q 1944 216 2037 169 
Q 2131 122 2419 116 
L 2419 0 
L 825 0 
L 825 116 
Q 1125 122 1212 167 
Q 1300 213 1334 289 
Q 1369 366 1369 747 
L 1369 3034 
Q 1369 3497 1338 3628 
Q 1316 3728 1258 3775 
Q 1200 3822 1119 3822 
Q 1003 3822 797 3725 
L 750 3822 
z
" transform="scale(0.015625)"/>
       </defs>
       <use xlink:href="#TimesNewRomanPSMT-30"/>
       <use xlink:href="#TimesNewRomanPSMT-2e" x="50"/>
       <use xlink:href="#TimesNewRomanPSMT-31" x="75"/>
       <use xlink:href="#TimesNewRomanPSMT-30" x="125"/>
      </g>
     </g>
    </g>
    <g id="xtick_7">
     <g id="line2d_13">
      <path d="M 526.67794 528.834375 
L 526.67794 3.6 
" clip-path="url(#p95742a6d9d)" style="fill: none; stroke-dasharray: 1.85,0.8; stroke-dashoffset: 0; stroke: #b0b0b0; stroke-opacity: 0.7; stroke-width: 0.5"/>
     </g>
     <g id="line2d_14">
      <g>
       <use xlink:href="#m48d9589697" x="526.67794" y="528.834375" style="stroke: #000000; stroke-width: 0.8"/>
      </g>
     </g>
     <g id="text_7">
      <!-- 0.12 -->
      <g transform="translate(518.80294 542.08375) scale(0.09 -0.09)">
       <use xlink:href="#TimesNewRomanPSMT-30"/>
       <use xlink:href="#TimesNewRomanPSMT-2e" x="50"/>
       <use xlink:href="#TimesNewRomanPSMT-31" x="75"/>
       <use xlink:href="#TimesNewRomanPSMT-32" x="125"/>
      </g>
     </g>
    </g>
    <g id="xtick_8">
     <g id="line2d_15">
      <path d="M 606.859628 528.834375 
L 606.859628 3.6 
" clip-path="url(#p95742a6d9d)" style="fill: none; stroke-dasharray: 1.85,0.8; stroke-dashoffset: 0; stroke: #b0b0b0; stroke-opacity: 0.7; stroke-width: 0.5"/>
     </g>
     <g id="line2d_16">
      <g>
       <use xlink:href="#m48d9589697" x="606.859628" y="528.834375" style="stroke: #000000; stroke-width: 0.8"/>
      </g>
     </g>
     <g id="text_8">
      <!-- 0.14 -->
      <g transform="translate(598.984628 542.08375) scale(0.09 -0.09)">
       <use xlink:href="#TimesNewRomanPSMT-30"/>
       <use xlink:href="#TimesNewRomanPSMT-2e" x="50"/>
       <use xlink:href="#TimesNewRomanPSMT-31" x="75"/>
       <use xlink:href="#TimesNewRomanPSMT-34" x="125"/>
      </g>
     </g>
    </g>
    <g id="xtick_9">
     <g id="line2d_17">
      <path d="M 687.041316 528.834375 
L 687.041316 3.6 
" clip-path="url(#p95742a6d9d)" style="fill: none; stroke-dasharray: 1.85,0.8; stroke-dashoffset: 0; stroke: #b0b0b0; stroke-opacity: 0.7; stroke-width: 0.5"/>
     </g>
     <g id="line2d_18">
      <g>
       <use xlink:href="#m48d9589697" x="687.041316" y="528.834375" style="stroke: #000000; stroke-width: 0.8"/>
      </g>
     </g>
     <g id="text_9">
      <!-- 0.16 -->
      <g transform="translate(679.166316 542.08375) scale(0.09 -0.09)">
       <use xlink:href="#TimesNewRomanPSMT-30"/>
       <use xlink:href="#TimesNewRomanPSMT-2e" x="50"/>
       <use xlink:href="#TimesNewRomanPSMT-31" x="75"/>
       <use xlink:href="#TimesNewRomanPSMT-36" x="125"/>
      </g>
     </g>
    </g>
    <g id="text_10">
     <!-- MSE -->
     <g transform="translate(362.485391 555.647031) scale(0.11 -0.11)">
      <defs>
       <path id="TimesNewRomanPSMT-4d" d="M 2619 0 
L 981 3566 
L 981 734 
Q 981 344 1066 247 
Q 1181 116 1431 116 
L 1581 116 
L 1581 0 
L 106 0 
L 106 116 
L 256 116 
Q 525 116 638 278 
Q 706 378 706 734 
L 706 3503 
Q 706 3784 644 3909 
Q 600 4000 483 4061 
Q 366 4122 106 4122 
L 106 4238 
L 1306 4238 
L 2844 922 
L 4356 4238 
L 5556 4238 
L 5556 4122 
L 5409 4122 
Q 5138 4122 5025 3959 
Q 4956 3859 4956 3503 
L 4956 734 
Q 4956 344 5044 247 
Q 5159 116 5409 116 
L 5556 116 
L 5556 0 
L 3756 0 
L 3756 116 
L 3906 116 
Q 4178 116 4288 278 
Q 4356 378 4356 734 
L 4356 3566 
L 2722 0 
L 2619 0 
z
" transform="scale(0.015625)"/>
       <path id="TimesNewRomanPSMT-53" d="M 2934 4334 
L 2934 2869 
L 2819 2869 
Q 2763 3291 2617 3541 
Q 2472 3791 2203 3937 
Q 1934 4084 1647 4084 
Q 1322 4084 1109 3886 
Q 897 3688 897 3434 
Q 897 3241 1031 3081 
Q 1225 2847 1953 2456 
Q 2547 2138 2764 1967 
Q 2981 1797 3098 1565 
Q 3216 1334 3216 1081 
Q 3216 600 2842 251 
Q 2469 -97 1881 -97 
Q 1697 -97 1534 -69 
Q 1438 -53 1133 45 
Q 828 144 747 144 
Q 669 144 623 97 
Q 578 50 556 -97 
L 441 -97 
L 441 1356 
L 556 1356 
Q 638 900 775 673 
Q 913 447 1195 297 
Q 1478 147 1816 147 
Q 2206 147 2432 353 
Q 2659 559 2659 841 
Q 2659 997 2573 1156 
Q 2488 1316 2306 1453 
Q 2184 1547 1640 1851 
Q 1097 2156 867 2337 
Q 638 2519 519 2737 
Q 400 2956 400 3219 
Q 400 3675 750 4004 
Q 1100 4334 1641 4334 
Q 1978 4334 2356 4169 
Q 2531 4091 2603 4091 
Q 2684 4091 2736 4139 
Q 2788 4188 2819 4334 
L 2934 4334 
z
" transform="scale(0.015625)"/>
       <path id="TimesNewRomanPSMT-45" d="M 1338 4006 
L 1338 2331 
L 2269 2331 
Q 2631 2331 2753 2441 
Q 2916 2584 2934 2947 
L 3050 2947 
L 3050 1472 
L 2934 1472 
Q 2891 1781 2847 1869 
Q 2791 1978 2662 2040 
Q 2534 2103 2269 2103 
L 1338 2103 
L 1338 706 
Q 1338 425 1363 364 
Q 1388 303 1450 267 
Q 1513 231 1688 231 
L 2406 231 
Q 2766 231 2928 281 
Q 3091 331 3241 478 
Q 3434 672 3638 1063 
L 3763 1063 
L 3397 0 
L 131 0 
L 131 116 
L 281 116 
Q 431 116 566 188 
Q 666 238 702 338 
Q 738 438 738 747 
L 738 3500 
Q 738 3903 656 3997 
Q 544 4122 281 4122 
L 131 4122 
L 131 4238 
L 3397 4238 
L 3444 3309 
L 3322 3309 
Q 3256 3644 3176 3769 
Q 3097 3894 2941 3959 
Q 2816 4006 2500 4006 
L 1338 4006 
z
" transform="scale(0.015625)"/>
      </defs>
      <use xlink:href="#TimesNewRomanPSMT-4d"/>
      <use xlink:href="#TimesNewRomanPSMT-53" x="88.916016"/>
      <use xlink:href="#TimesNewRomanPSMT-45" x="144.53125"/>
     </g>
    </g>
   </g>
   <g id="matplotlib.axis_2">
    <g id="ytick_1">
     <g id="line2d_19">
      <path d="M 45.587812 528.834375 
L 702 528.834375 
" clip-path="url(#p95742a6d9d)" style="fill: none; stroke-dasharray: 1.85,0.8; stroke-dashoffset: 0; stroke: #b0b0b0; stroke-opacity: 0.7; stroke-width: 0.5"/>
     </g>
     <g id="line2d_20">
      <defs>
       <path id="m85a66ad4ee" d="M 0 0 
L -3.5 0 
" style="stroke: #000000; stroke-width: 0.8"/>
      </defs>
      <g>
       <use xlink:href="#m85a66ad4ee" x="45.587812" y="528.834375" style="stroke: #000000; stroke-width: 0.8"/>
      </g>
     </g>
     <g id="text_11">
      <!-- 0% -->
      <g transform="translate(26.591094 531.959062) scale(0.09 -0.09)">
       <defs>
        <path id="TimesNewRomanPSMT-25" d="M 4350 4334 
L 1263 -175 
L 984 -175 
L 4072 4334 
L 4350 4334 
z
M 1138 4334 
Q 1559 4334 1792 3984 
Q 2025 3634 2025 3181 
Q 2025 2638 1762 2341 
Q 1500 2044 1131 2044 
Q 884 2044 678 2180 
Q 472 2316 348 2584 
Q 225 2853 225 3181 
Q 225 3509 350 3786 
Q 475 4063 692 4198 
Q 909 4334 1138 4334 
z
M 1128 4159 
Q 969 4159 845 3971 
Q 722 3784 722 3184 
Q 722 2750 791 2522 
Q 844 2350 956 2256 
Q 1022 2200 1119 2200 
Q 1269 2200 1375 2363 
Q 1531 2603 1531 3166 
Q 1531 3759 1378 4000 
Q 1278 4159 1128 4159 
z
M 4206 2103 
Q 4428 2103 4648 1962 
Q 4869 1822 4989 1553 
Q 5109 1284 5109 963 
Q 5109 409 4843 117 
Q 4578 -175 4216 -175 
Q 3988 -175 3773 -34 
Q 3559 106 3436 367 
Q 3313 628 3313 963 
Q 3313 1291 3436 1562 
Q 3559 1834 3773 1968 
Q 3988 2103 4206 2103 
z
M 4209 1938 
Q 4059 1938 3950 1769 
Q 3809 1550 3809 941 
Q 3809 381 3953 159 
Q 4059 0 4209 0 
Q 4353 0 4466 172 
Q 4616 400 4616 956 
Q 4616 1544 4466 1778 
Q 4363 1938 4209 1938 
z
" transform="scale(0.015625)"/>
       </defs>
       <use xlink:href="#TimesNewRomanPSMT-30"/>
       <use xlink:href="#TimesNewRomanPSMT-25" x="50"/>
      </g>
     </g>
    </g>
    <g id="ytick_2">
     <g id="line2d_21">
      <path d="M 45.587812 428.789732 
L 702 428.789732 
" clip-path="url(#p95742a6d9d)" style="fill: none; stroke-dasharray: 1.85,0.8; stroke-dashoffset: 0; stroke: #b0b0b0; stroke-opacity: 0.7; stroke-width: 0.5"/>
     </g>
     <g id="line2d_22">
      <g>
       <use xlink:href="#m85a66ad4ee" x="45.587812" y="428.789732" style="stroke: #000000; stroke-width: 0.8"/>
      </g>
     </g>
     <g id="text_12">
      <!-- 20% -->
      <g transform="translate(22.091094 431.91442) scale(0.09 -0.09)">
       <use xlink:href="#TimesNewRomanPSMT-32"/>
       <use xlink:href="#TimesNewRomanPSMT-30" x="50"/>
       <use xlink:href="#TimesNewRomanPSMT-25" x="100"/>
      </g>
     </g>
    </g>
    <g id="ytick_3">
     <g id="line2d_23">
      <path d="M 45.587812 328.745089 
L 702 328.745089 
" clip-path="url(#p95742a6d9d)" style="fill: none; stroke-dasharray: 1.85,0.8; stroke-dashoffset: 0; stroke: #b0b0b0; stroke-opacity: 0.7; stroke-width: 0.5"/>
     </g>
     <g id="line2d_24">
      <g>
       <use xlink:href="#m85a66ad4ee" x="45.587812" y="328.745089" style="stroke: #000000; stroke-width: 0.8"/>
      </g>
     </g>
     <g id="text_13">
      <!-- 40% -->
      <g transform="translate(22.091094 331.869777) scale(0.09 -0.09)">
       <use xlink:href="#TimesNewRomanPSMT-34"/>
       <use xlink:href="#TimesNewRomanPSMT-30" x="50"/>
       <use xlink:href="#TimesNewRomanPSMT-25" x="100"/>
      </g>
     </g>
    </g>
    <g id="ytick_4">
     <g id="line2d_25">
      <path d="M 45.587812 228.700446 
L 702 228.700446 
" clip-path="url(#p95742a6d9d)" style="fill: none; stroke-dasharray: 1.85,0.8; stroke-dashoffset: 0; stroke: #b0b0b0; stroke-opacity: 0.7; stroke-width: 0.5"/>
     </g>
     <g id="line2d_26">
      <g>
       <use xlink:href="#m85a66ad4ee" x="45.587812" y="228.700446" style="stroke: #000000; stroke-width: 0.8"/>
      </g>
     </g>
     <g id="text_14">
      <!-- 60% -->
      <g transform="translate(22.091094 231.825134) scale(0.09 -0.09)">
       <use xlink:href="#TimesNewRomanPSMT-36"/>
       <use xlink:href="#TimesNewRomanPSMT-30" x="50"/>
       <use xlink:href="#TimesNewRomanPSMT-25" x="100"/>
      </g>
     </g>
    </g>
    <g id="ytick_5">
     <g id="line2d_27">
      <path d="M 45.587812 128.655804 
L 702 128.655804 
" clip-path="url(#p95742a6d9d)" style="fill: none; stroke-dasharray: 1.85,0.8; stroke-dashoffset: 0; stroke: #b0b0b0; stroke-opacity: 0.7; stroke-width: 0.5"/>
     </g>
     <g id="line2d_28">
      <g>
       <use xlink:href="#m85a66ad4ee" x="45.587812" y="128.655804" style="stroke: #000000; stroke-width: 0.8"/>
      </g>
     </g>
     <g id="text_15">
      <!-- 80% -->
      <g transform="translate(22.091094 131.780491) scale(0.09 -0.09)">
       <use xlink:href="#TimesNewRomanPSMT-38"/>
       <use xlink:href="#TimesNewRomanPSMT-30" x="50"/>
       <use xlink:href="#TimesNewRomanPSMT-25" x="100"/>
      </g>
     </g>
    </g>
    <g id="ytick_6">
     <g id="line2d_29">
      <path d="M 45.587812 28.611161 
L 702 28.611161 
" clip-path="url(#p95742a6d9d)" style="fill: none; stroke-dasharray: 1.85,0.8; stroke-dashoffset: 0; stroke: #b0b0b0; stroke-opacity: 0.7; stroke-width: 0.5"/>
     </g>
     <g id="line2d_30">
      <g>
       <use xlink:href="#m85a66ad4ee" x="45.587812" y="28.611161" style="stroke: #000000; stroke-width: 0.8"/>
      </g>
     </g>
     <g id="text_16">
      <!-- 100% -->
      <g transform="translate(17.591094 31.735848) scale(0.09 -0.09)">
       <use xlink:href="#TimesNewRomanPSMT-31"/>
       <use xlink:href="#TimesNewRomanPSMT-30" x="50"/>
       <use xlink:href="#TimesNewRomanPSMT-30" x="100"/>
       <use xlink:href="#TimesNewRomanPSMT-25" x="150"/>
      </g>
     </g>
    </g>
    <g id="text_17">
     <!-- CDF -->
     <g transform="translate(11.238125 276.916406) rotate(-90) scale(0.11 -0.11)">
      <defs>
       <path id="TimesNewRomanPSMT-43" d="M 3853 4334 
L 3950 2894 
L 3853 2894 
Q 3659 3541 3300 3825 
Q 2941 4109 2438 4109 
Q 2016 4109 1675 3895 
Q 1334 3681 1139 3212 
Q 944 2744 944 2047 
Q 944 1472 1128 1050 
Q 1313 628 1683 403 
Q 2053 178 2528 178 
Q 2941 178 3256 354 
Q 3572 531 3950 1056 
L 4047 994 
Q 3728 428 3303 165 
Q 2878 -97 2294 -97 
Q 1241 -97 663 684 
Q 231 1266 231 2053 
Q 231 2688 515 3219 
Q 800 3750 1298 4042 
Q 1797 4334 2388 4334 
Q 2847 4334 3294 4109 
Q 3425 4041 3481 4041 
Q 3566 4041 3628 4100 
Q 3709 4184 3744 4334 
L 3853 4334 
z
" transform="scale(0.015625)"/>
       <path id="TimesNewRomanPSMT-44" d="M 109 0 
L 109 116 
L 269 116 
Q 538 116 650 288 
Q 719 391 719 750 
L 719 3488 
Q 719 3884 631 3984 
Q 509 4122 269 4122 
L 109 4122 
L 109 4238 
L 1834 4238 
Q 2784 4238 3279 4022 
Q 3775 3806 4076 3303 
Q 4378 2800 4378 2141 
Q 4378 1256 3841 663 
Q 3238 0 2003 0 
L 109 0 
z
M 1319 306 
Q 1716 219 1984 219 
Q 2709 219 3187 728 
Q 3666 1238 3666 2109 
Q 3666 2988 3187 3494 
Q 2709 4000 1959 4000 
Q 1678 4000 1319 3909 
L 1319 306 
z
" transform="scale(0.015625)"/>
       <path id="TimesNewRomanPSMT-46" d="M 1309 4006 
L 1309 2341 
L 2081 2341 
Q 2347 2341 2470 2458 
Q 2594 2575 2634 2922 
L 2750 2922 
L 2750 1488 
L 2634 1488 
Q 2631 1734 2570 1850 
Q 2509 1966 2401 2023 
Q 2294 2081 2081 2081 
L 1309 2081 
L 1309 750 
Q 1309 428 1350 325 
Q 1381 247 1481 191 
Q 1619 116 1769 116 
L 1922 116 
L 1922 0 
L 103 0 
L 103 116 
L 253 116 
Q 516 116 634 269 
Q 709 369 709 750 
L 709 3488 
Q 709 3809 669 3913 
Q 638 3991 541 4047 
Q 406 4122 253 4122 
L 103 4122 
L 103 4238 
L 3256 4238 
L 3297 3306 
L 3188 3306 
Q 3106 3603 2998 3742 
Q 2891 3881 2733 3943 
Q 2575 4006 2244 4006 
L 1309 4006 
z
" transform="scale(0.015625)"/>
      </defs>
      <use xlink:href="#TimesNewRomanPSMT-43"/>
      <use xlink:href="#TimesNewRomanPSMT-44" x="66.699219"/>
      <use xlink:href="#TimesNewRomanPSMT-46" x="138.916016"/>
     </g>
    </g>
   </g>
   <g id="line2d_31">
    <path d="M 45.587812 528.834375 
L 617.220668 512.212626 
L 619.15186 510.637919 
L 621.083052 487.521583 
L 624.945436 407.304957 
L 626.876628 361.355046 
L 628.80782 330.136461 
L 630.739012 267.22538 
L 632.670204 243.785328 
L 636.532589 202.601001 
L 638.463781 105.238052 
L 640.394973 54.679316 
L 642.326165 28.611161 
L 642.326165 28.611161 
" clip-path="url(#p95742a6d9d)" style="fill: none; stroke-dasharray: 7.68,1.92,1.2,1.92; stroke-dashoffset: 0; stroke: #3d85c6; stroke-width: 1.2"/>
    <defs>
     <path id="mac8c16f45d" d="M 0 2 
C 0.530406 2 1.03916 1.789267 1.414214 1.414214 
C 1.789267 1.03916 2 0.530406 2 0 
C 2 -0.530406 1.789267 -1.03916 1.414214 -1.414214 
C 1.03916 -1.789267 0.530406 -2 0 -2 
C -0.530406 -2 -1.03916 -1.789267 -1.414214 -1.414214 
C -1.789267 -1.03916 -2 -0.530406 -2 0 
C -2 0.530406 -1.789267 1.03916 -1.414214 1.414214 
C -1.03916 1.789267 -0.530406 2 0 2 
z
" style="stroke: #3d85c6"/>
    </defs>
    <g clip-path="url(#p95742a6d9d)">
     <use xlink:href="#mac8c16f45d" x="45.587812" y="528.834375" style="fill: #3d85c6; stroke: #3d85c6"/>
     <use xlink:href="#mac8c16f45d" x="105.454767" y="527.093584" style="fill: #3d85c6; stroke: #3d85c6"/>
     <use xlink:href="#mac8c16f45d" x="165.321721" y="525.352792" style="fill: #3d85c6; stroke: #3d85c6"/>
     <use xlink:href="#mac8c16f45d" x="225.188676" y="523.612001" style="fill: #3d85c6; stroke: #3d85c6"/>
     <use xlink:href="#mac8c16f45d" x="285.05563" y="521.87121" style="fill: #3d85c6; stroke: #3d85c6"/>
     <use xlink:href="#mac8c16f45d" x="344.922585" y="520.130418" style="fill: #3d85c6; stroke: #3d85c6"/>
     <use xlink:href="#mac8c16f45d" x="404.789539" y="518.389627" style="fill: #3d85c6; stroke: #3d85c6"/>
     <use xlink:href="#mac8c16f45d" x="464.656494" y="516.648836" style="fill: #3d85c6; stroke: #3d85c6"/>
     <use xlink:href="#mac8c16f45d" x="524.523448" y="514.908045" style="fill: #3d85c6; stroke: #3d85c6"/>
     <use xlink:href="#mac8c16f45d" x="584.390402" y="513.167253" style="fill: #3d85c6; stroke: #3d85c6"/>
    </g>
   </g>
   <g id="line2d_32">
    <path d="M 45.587812 528.834375 
L 310.792122 512.21644 
L 311.706619 511.832015 
L 314.450112 461.894003 
L 316.279107 420.444616 
L 319.0226 375.709731 
L 319.937098 358.664074 
L 320.851596 344.020715 
L 321.766093 309.24497 
L 323.595088 257.934678 
L 324.509586 200.91321 
L 325.424084 126.797723 
L 326.338581 101.567282 
L 328.167576 28.611161 
L 328.167576 28.611161 
" clip-path="url(#p95742a6d9d)" style="fill: none; stroke-dasharray: 7.68,1.92,1.2,1.92; stroke-dashoffset: 0; stroke: #e06666; stroke-width: 1.2"/>
    <defs>
     <path id="mc1179dc807" d="M -2 2 
L 2 2 
L 2 -2 
L -2 -2 
z
" style="stroke: #e06666; stroke-linejoin: miter"/>
    </defs>
    <g clip-path="url(#p95742a6d9d)">
     <use xlink:href="#mc1179dc807" x="45.587812" y="528.834375" style="fill: #e06666; stroke: #e06666; stroke-linejoin: miter"/>
     <use xlink:href="#mc1179dc807" x="73.937239" y="527.057975" style="fill: #e06666; stroke: #e06666; stroke-linejoin: miter"/>
     <use xlink:href="#mc1179dc807" x="102.286665" y="525.281575" style="fill: #e06666; stroke: #e06666; stroke-linejoin: miter"/>
     <use xlink:href="#mc1179dc807" x="130.636091" y="523.505175" style="fill: #e06666; stroke: #e06666; stroke-linejoin: miter"/>
     <use xlink:href="#mc1179dc807" x="158.985517" y="521.728775" style="fill: #e06666; stroke: #e06666; stroke-linejoin: miter"/>
     <use xlink:href="#mc1179dc807" x="187.334943" y="519.952375" style="fill: #e06666; stroke: #e06666; stroke-linejoin: miter"/>
     <use xlink:href="#mc1179dc807" x="215.684369" y="518.175976" style="fill: #e06666; stroke: #e06666; stroke-linejoin: miter"/>
     <use xlink:href="#mc1179dc807" x="244.033796" y="516.399576" style="fill: #e06666; stroke: #e06666; stroke-linejoin: miter"/>
     <use xlink:href="#mc1179dc807" x="272.383222" y="514.623176" style="fill: #e06666; stroke: #e06666; stroke-linejoin: miter"/>
     <use xlink:href="#mc1179dc807" x="300.732648" y="512.846776" style="fill: #e06666; stroke: #e06666; stroke-linejoin: miter"/>
    </g>
   </g>
   <g id="line2d_33">
    <path d="M 45.587812 528.834375 
L 398.391194 512.194367 
L 399.611967 502.329098 
L 400.83274 476.751527 
L 402.053513 417.704578 
L 403.274286 388.459003 
L 408.157378 329.662609 
L 409.378151 308.783636 
L 411.819697 275.42305 
L 413.04047 253.752617 
L 416.702788 211.390443 
L 417.923561 198.537883 
L 419.144334 183.469935 
L 420.365107 139.036197 
L 421.58588 102.302142 
L 422.806653 28.611161 
L 422.806653 28.611161 
" clip-path="url(#p95742a6d9d)" style="fill: none; stroke-dasharray: 7.68,1.92,1.2,1.92; stroke-dashoffset: 0; stroke: #6aa84f; stroke-width: 1.2"/>
    <defs>
     <path id="maea93241dc" d="M 0 -2 
L -2 2 
L 2 2 
z
" style="stroke: #6aa84f; stroke-linejoin: miter"/>
    </defs>
    <g clip-path="url(#p95742a6d9d)">
     <use xlink:href="#maea93241dc" x="45.587812" y="528.834375" style="fill: #6aa84f; stroke: #6aa84f; stroke-linejoin: miter"/>
     <use xlink:href="#maea93241dc" x="83.431774" y="527.049461" style="fill: #6aa84f; stroke: #6aa84f; stroke-linejoin: miter"/>
     <use xlink:href="#maea93241dc" x="121.275735" y="525.264546" style="fill: #6aa84f; stroke: #6aa84f; stroke-linejoin: miter"/>
     <use xlink:href="#maea93241dc" x="159.119697" y="523.479632" style="fill: #6aa84f; stroke: #6aa84f; stroke-linejoin: miter"/>
     <use xlink:href="#maea93241dc" x="196.963658" y="521.694718" style="fill: #6aa84f; stroke: #6aa84f; stroke-linejoin: miter"/>
     <use xlink:href="#maea93241dc" x="234.807619" y="519.909803" style="fill: #6aa84f; stroke: #6aa84f; stroke-linejoin: miter"/>
     <use xlink:href="#maea93241dc" x="272.651581" y="518.124889" style="fill: #6aa84f; stroke: #6aa84f; stroke-linejoin: miter"/>
     <use xlink:href="#maea93241dc" x="310.495542" y="516.339975" style="fill: #6aa84f; stroke: #6aa84f; stroke-linejoin: miter"/>
     <use xlink:href="#maea93241dc" x="348.339503" y="514.55506" style="fill: #6aa84f; stroke: #6aa84f; stroke-linejoin: miter"/>
     <use xlink:href="#maea93241dc" x="386.183465" y="512.770146" style="fill: #6aa84f; stroke: #6aa84f; stroke-linejoin: miter"/>
    </g>
   </g>
   <g id="line2d_34">
    <path d="M 45.587812 528.834375 
L 359.884298 512.194259 
L 360.964355 489.510619 
L 362.044412 472.697669 
L 364.204525 398.244307 
L 365.284582 383.11306 
L 366.364638 362.378974 
L 367.444695 346.325822 
L 368.524752 320.90805 
L 370.684865 288.086072 
L 371.764922 260.834092 
L 372.844978 247.632117 
L 373.925035 215.753919 
L 375.005091 144.965331 
L 376.085148 121.928009 
L 378.245261 54.10168 
L 379.325318 28.611161 
L 379.325318 28.611161 
" clip-path="url(#p95742a6d9d)" style="fill: none; stroke-dasharray: 7.68,1.92,1.2,1.92; stroke-dashoffset: 0; stroke: #a64d79; stroke-width: 1.2"/>
    <defs>
     <path id="me2eae07f05" d="M 0 2.828427 
L 2.828427 0 
L 0 -2.828427 
L -2.828427 0 
z
" style="stroke: #a64d79; stroke-linejoin: miter"/>
    </defs>
    <g clip-path="url(#p95742a6d9d)">
     <use xlink:href="#me2eae07f05" x="45.587812" y="528.834375" style="fill: #a64d79; stroke: #a64d79; stroke-linejoin: miter"/>
     <use xlink:href="#me2eae07f05" x="79.069569" y="527.061717" style="fill: #a64d79; stroke: #a64d79; stroke-linejoin: miter"/>
     <use xlink:href="#me2eae07f05" x="112.551325" y="525.289058" style="fill: #a64d79; stroke: #a64d79; stroke-linejoin: miter"/>
     <use xlink:href="#me2eae07f05" x="146.033081" y="523.5164" style="fill: #a64d79; stroke: #a64d79; stroke-linejoin: miter"/>
     <use xlink:href="#me2eae07f05" x="179.514837" y="521.743742" style="fill: #a64d79; stroke: #a64d79; stroke-linejoin: miter"/>
     <use xlink:href="#me2eae07f05" x="212.996594" y="519.971083" style="fill: #a64d79; stroke: #a64d79; stroke-linejoin: miter"/>
     <use xlink:href="#me2eae07f05" x="246.47835" y="518.198425" style="fill: #a64d79; stroke: #a64d79; stroke-linejoin: miter"/>
     <use xlink:href="#me2eae07f05" x="279.960106" y="516.425767" style="fill: #a64d79; stroke: #a64d79; stroke-linejoin: miter"/>
     <use xlink:href="#me2eae07f05" x="313.441862" y="514.653108" style="fill: #a64d79; stroke: #a64d79; stroke-linejoin: miter"/>
     <use xlink:href="#me2eae07f05" x="346.923619" y="512.88045" style="fill: #a64d79; stroke: #a64d79; stroke-linejoin: miter"/>
    </g>
   </g>
   <g id="line2d_35">
    <path d="M 45.587812 528.834375 
L 255.973307 512.204922 
L 256.698774 507.037591 
L 257.424241 476.900565 
L 258.149708 457.953539 
L 258.875176 411.142582 
L 262.502512 337.753786 
L 263.227979 311.197285 
L 263.953446 288.798248 
L 264.678913 273.672657 
L 265.404381 255.063961 
L 266.129848 191.202767 
L 266.855315 162.966858 
L 268.30625 74.094408 
L 269.031717 56.556277 
L 269.757184 28.611161 
L 269.757184 28.611161 
" clip-path="url(#p95742a6d9d)" style="fill: none; stroke-dasharray: 7.68,1.92,1.2,1.92; stroke-dashoffset: 0; stroke: #f6b26b; stroke-width: 1.2"/>
    <defs>
     <path id="mfc31fd73de" d="M -2 2 
L 2 -2 
M -2 -2 
L 2 2 
" style="stroke: #f6b26b"/>
    </defs>
    <g clip-path="url(#p95742a6d9d)">
     <use xlink:href="#mfc31fd73de" x="45.587812" y="528.834375" style="fill: #f6b26b; stroke: #f6b26b"/>
     <use xlink:href="#mfc31fd73de" x="68.077296" y="527.056744" style="fill: #f6b26b; stroke: #f6b26b"/>
     <use xlink:href="#mfc31fd73de" x="90.56678" y="525.279113" style="fill: #f6b26b; stroke: #f6b26b"/>
     <use xlink:href="#mfc31fd73de" x="113.056264" y="523.501481" style="fill: #f6b26b; stroke: #f6b26b"/>
     <use xlink:href="#mfc31fd73de" x="135.545748" y="521.72385" style="fill: #f6b26b; stroke: #f6b26b"/>
     <use xlink:href="#mfc31fd73de" x="158.035232" y="519.946219" style="fill: #f6b26b; stroke: #f6b26b"/>
     <use xlink:href="#mfc31fd73de" x="180.524716" y="518.168588" style="fill: #f6b26b; stroke: #f6b26b"/>
     <use xlink:href="#mfc31fd73de" x="203.0142" y="516.390957" style="fill: #f6b26b; stroke: #f6b26b"/>
     <use xlink:href="#mfc31fd73de" x="225.503684" y="514.613326" style="fill: #f6b26b; stroke: #f6b26b"/>
     <use xlink:href="#mfc31fd73de" x="247.993167" y="512.835694" style="fill: #f6b26b; stroke: #f6b26b"/>
    </g>
   </g>
   <g id="line2d_36">
    <path d="M 45.587812 528.834375 
L 369.673932 512.178725 
L 370.791471 498.611951 
L 374.144086 451.299951 
L 377.496701 407.585146 
L 380.849316 365.201554 
L 381.966854 327.730881 
L 384.201931 233.770836 
L 385.319469 176.884384 
L 386.437007 105.846519 
L 387.554546 71.903386 
L 389.789623 47.376194 
L 390.907161 28.611161 
L 390.907161 28.611161 
" clip-path="url(#p95742a6d9d)" style="fill: none; stroke-dasharray: 7.68,1.92,1.2,1.92; stroke-dashoffset: 0; stroke: #8e7cc3; stroke-width: 1.2"/>
    <defs>
     <path id="m20d1e9854c" d="M -2 0 
L 2 0 
M 0 2 
L 0 -2 
" style="stroke: #8e7cc3"/>
    </defs>
    <g clip-path="url(#p95742a6d9d)">
     <use xlink:href="#m20d1e9854c" x="45.587812" y="528.834375" style="fill: #8e7cc3; stroke: #8e7cc3"/>
     <use xlink:href="#m20d1e9854c" x="80.231501" y="527.053943" style="fill: #8e7cc3; stroke: #8e7cc3"/>
     <use xlink:href="#m20d1e9854c" x="114.87519" y="525.273512" style="fill: #8e7cc3; stroke: #8e7cc3"/>
     <use xlink:href="#m20d1e9854c" x="149.518879" y="523.49308" style="fill: #8e7cc3; stroke: #8e7cc3"/>
     <use xlink:href="#m20d1e9854c" x="184.162567" y="521.712649" style="fill: #8e7cc3; stroke: #8e7cc3"/>
     <use xlink:href="#m20d1e9854c" x="218.806256" y="519.932217" style="fill: #8e7cc3; stroke: #8e7cc3"/>
     <use xlink:href="#m20d1e9854c" x="253.449945" y="518.151786" style="fill: #8e7cc3; stroke: #8e7cc3"/>
     <use xlink:href="#m20d1e9854c" x="288.093633" y="516.371354" style="fill: #8e7cc3; stroke: #8e7cc3"/>
     <use xlink:href="#m20d1e9854c" x="322.737322" y="514.590923" style="fill: #8e7cc3; stroke: #8e7cc3"/>
     <use xlink:href="#m20d1e9854c" x="357.381011" y="512.810491" style="fill: #8e7cc3; stroke: #8e7cc3"/>
    </g>
   </g>
   <g id="patch_3">
    <path d="M 45.587812 528.834375 
L 45.587812 3.6 
" style="fill: none; stroke: #000000; stroke-width: 0.5; stroke-linejoin: miter; stroke-linecap: square"/>
   </g>
   <g id="patch_4">
    <path d="M 702 528.834375 
L 702 3.6 
" style="fill: none; stroke: #000000; stroke-width: 0.5; stroke-linejoin: miter; stroke-linecap: square"/>
   </g>
   <g id="patch_5">
    <path d="M 45.587812 528.834375 
L 702 528.834375 
" style="fill: none; stroke: #000000; stroke-width: 0.5; stroke-linejoin: miter; stroke-linecap: square"/>
   </g>
   <g id="patch_6">
    <path d="M 45.587812 3.6 
L 702 3.6 
" style="fill: none; stroke: #000000; stroke-width: 0.5; stroke-linejoin: miter; stroke-linecap: square"/>
   </g>
   <g id="legend_1">
    <g id="patch_7">
     <path d="M 625.30875 524.834375 
L 696.4 524.834375 
Q 698 524.834375 698 523.234375 
L 698 456.166875 
Q 698 454.566875 696.4 454.566875 
L 625.30875 454.566875 
Q 623.70875 454.566875 623.70875 456.166875 
L 623.70875 523.234375 
Q 623.70875 524.834375 625.30875 524.834375 
z
" style="fill: #ffffff; opacity: 0.9; stroke: #cccccc; stroke-linejoin: miter"/>
    </g>
    <g id="line2d_37">
     <path d="M 626.90875 460.566875 
L 634.90875 460.566875 
L 642.90875 460.566875 
" style="fill: none; stroke-dasharray: 7.68,1.92,1.2,1.92; stroke-dashoffset: 0; stroke: #3d85c6; stroke-width: 1.2"/>
     <g>
      <use xlink:href="#mac8c16f45d" x="634.90875" y="460.566875" style="fill: #3d85c6; stroke: #3d85c6"/>
     </g>
    </g>
    <g id="text_18">
     <!-- ARIMA -->
     <g transform="translate(649.30875 463.366875) scale(0.08 -0.08)">
      <defs>
       <path id="TimesNewRomanPSMT-41" d="M 2928 1419 
L 1288 1419 
L 1000 750 
Q 894 503 894 381 
Q 894 284 986 211 
Q 1078 138 1384 116 
L 1384 0 
L 50 0 
L 50 116 
Q 316 163 394 238 
Q 553 388 747 847 
L 2238 4334 
L 2347 4334 
L 3822 809 
Q 4000 384 4145 257 
Q 4291 131 4550 116 
L 4550 0 
L 2878 0 
L 2878 116 
Q 3131 128 3220 200 
Q 3309 272 3309 375 
Q 3309 513 3184 809 
L 2928 1419 
z
M 2841 1650 
L 2122 3363 
L 1384 1650 
L 2841 1650 
z
" transform="scale(0.015625)"/>
       <path id="TimesNewRomanPSMT-52" d="M 4325 0 
L 3194 0 
L 1759 1981 
Q 1600 1975 1500 1975 
Q 1459 1975 1412 1976 
Q 1366 1978 1316 1981 
L 1316 750 
Q 1316 350 1403 253 
Q 1522 116 1759 116 
L 1925 116 
L 1925 0 
L 109 0 
L 109 116 
L 269 116 
Q 538 116 653 291 
Q 719 388 719 750 
L 719 3488 
Q 719 3888 631 3984 
Q 509 4122 269 4122 
L 109 4122 
L 109 4238 
L 1653 4238 
Q 2328 4238 2648 4139 
Q 2969 4041 3192 3777 
Q 3416 3513 3416 3147 
Q 3416 2756 3161 2468 
Q 2906 2181 2372 2063 
L 3247 847 
Q 3547 428 3762 290 
Q 3978 153 4325 116 
L 4325 0 
z
M 1316 2178 
Q 1375 2178 1419 2176 
Q 1463 2175 1491 2175 
Q 2097 2175 2405 2437 
Q 2713 2700 2713 3106 
Q 2713 3503 2464 3751 
Q 2216 4000 1806 4000 
Q 1625 4000 1316 3941 
L 1316 2178 
z
" transform="scale(0.015625)"/>
       <path id="TimesNewRomanPSMT-49" d="M 1975 116 
L 1975 0 
L 159 0 
L 159 116 
L 309 116 
Q 572 116 691 269 
Q 766 369 766 750 
L 766 3488 
Q 766 3809 725 3913 
Q 694 3991 597 4047 
Q 459 4122 309 4122 
L 159 4122 
L 159 4238 
L 1975 4238 
L 1975 4122 
L 1822 4122 
Q 1563 4122 1444 3969 
Q 1366 3869 1366 3488 
L 1366 750 
Q 1366 428 1406 325 
Q 1438 247 1538 191 
Q 1672 116 1822 116 
L 1975 116 
z
" transform="scale(0.015625)"/>
      </defs>
      <use xlink:href="#TimesNewRomanPSMT-41"/>
      <use xlink:href="#TimesNewRomanPSMT-52" x="72.216797"/>
      <use xlink:href="#TimesNewRomanPSMT-49" x="138.916016"/>
      <use xlink:href="#TimesNewRomanPSMT-4d" x="172.216797"/>
      <use xlink:href="#TimesNewRomanPSMT-41" x="261.132812"/>
     </g>
    </g>
    <g id="line2d_38">
     <path d="M 626.90875 471.878125 
L 634.90875 471.878125 
L 642.90875 471.878125 
" style="fill: none; stroke-dasharray: 7.68,1.92,1.2,1.92; stroke-dashoffset: 0; stroke: #e06666; stroke-width: 1.2"/>
     <g>
      <use xlink:href="#mc1179dc807" x="634.90875" y="471.878125" style="fill: #e06666; stroke: #e06666; stroke-linejoin: miter"/>
     </g>
    </g>
    <g id="text_19">
     <!-- CNN-LSTM -->
     <g transform="translate(649.30875 474.678125) scale(0.08 -0.08)">
      <defs>
       <path id="TimesNewRomanPSMT-4e" d="M -84 4238 
L 1066 4238 
L 3656 1059 
L 3656 3503 
Q 3656 3894 3569 3991 
Q 3453 4122 3203 4122 
L 3056 4122 
L 3056 4238 
L 4531 4238 
L 4531 4122 
L 4381 4122 
Q 4113 4122 4000 3959 
Q 3931 3859 3931 3503 
L 3931 -69 
L 3819 -69 
L 1025 3344 
L 1025 734 
Q 1025 344 1109 247 
Q 1228 116 1475 116 
L 1625 116 
L 1625 0 
L 150 0 
L 150 116 
L 297 116 
Q 569 116 681 278 
Q 750 378 750 734 
L 750 3681 
Q 566 3897 470 3965 
Q 375 4034 191 4094 
Q 100 4122 -84 4122 
L -84 4238 
z
" transform="scale(0.015625)"/>
       <path id="TimesNewRomanPSMT-2d" d="M 259 1672 
L 1875 1672 
L 1875 1200 
L 259 1200 
L 259 1672 
z
" transform="scale(0.015625)"/>
       <path id="TimesNewRomanPSMT-4c" d="M 3669 1172 
L 3772 1150 
L 3409 0 
L 128 0 
L 128 116 
L 288 116 
Q 556 116 672 291 
Q 738 391 738 753 
L 738 3488 
Q 738 3884 650 3984 
Q 528 4122 288 4122 
L 128 4122 
L 128 4238 
L 2047 4238 
L 2047 4122 
Q 1709 4125 1573 4059 
Q 1438 3994 1388 3894 
Q 1338 3794 1338 3416 
L 1338 753 
Q 1338 494 1388 397 
Q 1425 331 1503 300 
Q 1581 269 1991 269 
L 2300 269 
Q 2788 269 2984 341 
Q 3181 413 3343 595 
Q 3506 778 3669 1172 
z
" transform="scale(0.015625)"/>
       <path id="TimesNewRomanPSMT-54" d="M 3703 4238 
L 3750 3244 
L 3631 3244 
Q 3597 3506 3538 3619 
Q 3441 3800 3280 3886 
Q 3119 3972 2856 3972 
L 2259 3972 
L 2259 734 
Q 2259 344 2344 247 
Q 2463 116 2709 116 
L 2856 116 
L 2856 0 
L 1059 0 
L 1059 116 
L 1209 116 
Q 1478 116 1591 278 
Q 1659 378 1659 734 
L 1659 3972 
L 1150 3972 
Q 853 3972 728 3928 
Q 566 3869 450 3700 
Q 334 3531 313 3244 
L 194 3244 
L 244 4238 
L 3703 4238 
z
" transform="scale(0.015625)"/>
      </defs>
      <use xlink:href="#TimesNewRomanPSMT-43"/>
      <use xlink:href="#TimesNewRomanPSMT-4e" x="66.699219"/>
      <use xlink:href="#TimesNewRomanPSMT-4e" x="138.916016"/>
      <use xlink:href="#TimesNewRomanPSMT-2d" x="211.132812"/>
      <use xlink:href="#TimesNewRomanPSMT-4c" x="244.433594"/>
      <use xlink:href="#TimesNewRomanPSMT-53" x="305.517578"/>
      <use xlink:href="#TimesNewRomanPSMT-54" x="361.132812"/>
      <use xlink:href="#TimesNewRomanPSMT-4d" x="422.216797"/>
     </g>
    </g>
    <g id="line2d_39">
     <path d="M 626.90875 483.189375 
L 634.90875 483.189375 
L 642.90875 483.189375 
" style="fill: none; stroke-dasharray: 7.68,1.92,1.2,1.92; stroke-dashoffset: 0; stroke: #6aa84f; stroke-width: 1.2"/>
     <g>
      <use xlink:href="#maea93241dc" x="634.90875" y="483.189375" style="fill: #6aa84f; stroke: #6aa84f; stroke-linejoin: miter"/>
     </g>
    </g>
    <g id="text_20">
     <!-- GRU -->
     <g transform="translate(649.30875 485.989375) scale(0.08 -0.08)">
      <defs>
       <path id="TimesNewRomanPSMT-47" d="M 3928 4334 
L 4038 2997 
L 3928 2997 
Q 3763 3497 3500 3750 
Q 3122 4116 2528 4116 
Q 1719 4116 1297 3475 
Q 944 2934 944 2188 
Q 944 1581 1178 1081 
Q 1413 581 1792 348 
Q 2172 116 2572 116 
Q 2806 116 3025 175 
Q 3244 234 3447 350 
L 3447 1575 
Q 3447 1894 3398 1992 
Q 3350 2091 3248 2142 
Q 3147 2194 2891 2194 
L 2891 2313 
L 4531 2313 
L 4531 2194 
L 4453 2194 
Q 4209 2194 4119 2031 
Q 4056 1916 4056 1575 
L 4056 278 
Q 3697 84 3347 -6 
Q 2997 -97 2569 -97 
Q 1341 -97 703 691 
Q 225 1281 225 2053 
Q 225 2613 494 3125 
Q 813 3734 1369 4063 
Q 1834 4334 2469 4334 
Q 2700 4334 2889 4296 
Q 3078 4259 3425 4131 
Q 3600 4066 3659 4066 
Q 3719 4066 3761 4120 
Q 3803 4175 3813 4334 
L 3928 4334 
z
" transform="scale(0.015625)"/>
       <path id="TimesNewRomanPSMT-55" d="M 3053 4122 
L 3053 4238 
L 4553 4238 
L 4553 4122 
L 4394 4122 
Q 4144 4122 4009 3913 
Q 3944 3816 3944 3463 
L 3944 1744 
Q 3944 1106 3817 754 
Q 3691 403 3320 151 
Q 2950 -100 2313 -100 
Q 1619 -100 1259 140 
Q 900 381 750 788 
Q 650 1066 650 1831 
L 650 3488 
Q 650 3878 542 4000 
Q 434 4122 194 4122 
L 34 4122 
L 34 4238 
L 1866 4238 
L 1866 4122 
L 1703 4122 
Q 1441 4122 1328 3956 
Q 1250 3844 1250 3488 
L 1250 1641 
Q 1250 1394 1295 1075 
Q 1341 756 1459 578 
Q 1578 400 1801 284 
Q 2025 169 2350 169 
Q 2766 169 3094 350 
Q 3422 531 3542 814 
Q 3663 1097 3663 1772 
L 3663 3488 
Q 3663 3884 3575 3984 
Q 3453 4122 3213 4122 
L 3053 4122 
z
" transform="scale(0.015625)"/>
      </defs>
      <use xlink:href="#TimesNewRomanPSMT-47"/>
      <use xlink:href="#TimesNewRomanPSMT-52" x="72.216797"/>
      <use xlink:href="#TimesNewRomanPSMT-55" x="138.916016"/>
     </g>
    </g>
    <g id="line2d_40">
     <path d="M 626.90875 494.500625 
L 634.90875 494.500625 
L 642.90875 494.500625 
" style="fill: none; stroke-dasharray: 7.68,1.92,1.2,1.92; stroke-dashoffset: 0; stroke: #a64d79; stroke-width: 1.2"/>
     <g>
      <use xlink:href="#me2eae07f05" x="634.90875" y="494.500625" style="fill: #a64d79; stroke: #a64d79; stroke-linejoin: miter"/>
     </g>
    </g>
    <g id="text_21">
     <!-- LSTM -->
     <g transform="translate(649.30875 497.300625) scale(0.08 -0.08)">
      <use xlink:href="#TimesNewRomanPSMT-4c"/>
      <use xlink:href="#TimesNewRomanPSMT-53" x="61.083984"/>
      <use xlink:href="#TimesNewRomanPSMT-54" x="116.699219"/>
      <use xlink:href="#TimesNewRomanPSMT-4d" x="177.783203"/>
     </g>
    </g>
    <g id="line2d_41">
     <path d="M 626.90875 505.811875 
L 634.90875 505.811875 
L 642.90875 505.811875 
" style="fill: none; stroke-dasharray: 7.68,1.92,1.2,1.92; stroke-dashoffset: 0; stroke: #f6b26b; stroke-width: 1.2"/>
     <g>
      <use xlink:href="#mfc31fd73de" x="634.90875" y="505.811875" style="fill: #f6b26b; stroke: #f6b26b"/>
     </g>
    </g>
    <g id="text_22">
     <!-- SWT-CLSTM -->
     <g transform="translate(649.30875 508.611875) scale(0.08 -0.08)">
      <defs>
       <path id="TimesNewRomanPSMT-57" d="M 5991 4238 
L 5991 4122 
Q 5825 4122 5722 4062 
Q 5619 4003 5525 3841 
Q 5463 3731 5328 3319 
L 4147 -97 
L 4022 -97 
L 3056 2613 
L 2097 -97 
L 1984 -97 
L 725 3422 
Q 584 3816 547 3888 
Q 484 4006 376 4064 
Q 269 4122 84 4122 
L 84 4238 
L 1653 4238 
L 1653 4122 
L 1578 4122 
Q 1413 4122 1325 4047 
Q 1238 3972 1238 3866 
Q 1238 3756 1375 3363 
L 2209 984 
L 2913 3006 
L 2788 3363 
L 2688 3647 
Q 2622 3803 2541 3922 
Q 2500 3981 2441 4022 
Q 2363 4078 2284 4103 
Q 2225 4122 2097 4122 
L 2097 4238 
L 3747 4238 
L 3747 4122 
L 3634 4122 
Q 3459 4122 3378 4047 
Q 3297 3972 3297 3844 
Q 3297 3684 3438 3288 
L 4250 984 
L 5056 3319 
Q 5194 3706 5194 3856 
Q 5194 3928 5148 3990 
Q 5103 4053 5034 4078 
Q 4916 4122 4725 4122 
L 4725 4238 
L 5991 4238 
z
" transform="scale(0.015625)"/>
      </defs>
      <use xlink:href="#TimesNewRomanPSMT-53"/>
      <use xlink:href="#TimesNewRomanPSMT-57" x="55.615234"/>
      <use xlink:href="#TimesNewRomanPSMT-54" x="150"/>
      <use xlink:href="#TimesNewRomanPSMT-2d" x="201.958984"/>
      <use xlink:href="#TimesNewRomanPSMT-43" x="235.259766"/>
      <use xlink:href="#TimesNewRomanPSMT-4c" x="301.958984"/>
      <use xlink:href="#TimesNewRomanPSMT-53" x="363.042969"/>
      <use xlink:href="#TimesNewRomanPSMT-54" x="418.658203"/>
      <use xlink:href="#TimesNewRomanPSMT-4d" x="479.742188"/>
     </g>
    </g>
    <g id="line2d_42">
     <path d="M 626.90875 517.123125 
L 634.90875 517.123125 
L 642.90875 517.123125 
" style="fill: none; stroke-dasharray: 7.68,1.92,1.2,1.92; stroke-dashoffset: 0; stroke: #8e7cc3; stroke-width: 1.2"/>
     <g>
      <use xlink:href="#m20d1e9854c" x="634.90875" y="517.123125" style="fill: #8e7cc3; stroke: #8e7cc3"/>
     </g>
    </g>
    <g id="text_23">
     <!-- TCN -->
     <g transform="translate(649.30875 519.923125) scale(0.08 -0.08)">
      <use xlink:href="#TimesNewRomanPSMT-54"/>
      <use xlink:href="#TimesNewRomanPSMT-43" x="61.083984"/>
      <use xlink:href="#TimesNewRomanPSMT-4e" x="127.783203"/>
     </g>
    </g>
   </g>
  </g>
 </g>
 <defs>
  <clipPath id="p95742a6d9d">
   <rect x="45.587812" y="3.6" width="656.412187" height="525.234375"/>
  </clipPath>
 </defs>
</svg>
