<?xml version="1.0" encoding="utf-8" standalone="no"?>
<!DOCTYPE svg PUBLIC "-//W3C//DTD SVG 1.1//EN"
  "http://www.w3.org/Graphics/SVG/1.1/DTD/svg11.dtd">
<svg xmlns:xlink="http://www.w3.org/1999/xlink" width="561.6pt" height="417.6pt" viewBox="0 0 561.6 417.6" xmlns="http://www.w3.org/2000/svg" version="1.1">
 <metadata>
  <rdf:RDF xmlns:dc="http://purl.org/dc/elements/1.1/" xmlns:cc="http://creativecommons.org/ns#" xmlns:rdf="http://www.w3.org/1999/02/22-rdf-syntax-ns#">
   <cc:Work>
    <dc:type rdf:resource="http://purl.org/dc/dcmitype/StillImage"/>
    <dc:date>2025-05-20T10:59:35.133525</dc:date>
    <dc:format>image/svg+xml</dc:format>
    <dc:creator>
     <cc:Agent>
      <dc:title>Matplotlib v3.9.4, https://matplotlib.org/</dc:title>
     </cc:Agent>
    </dc:creator>
   </cc:Work>
  </rdf:RDF>
 </metadata>
 <defs>
  <style type="text/css">*{stroke-linejoin: round; stroke-linecap: butt}</style>
 </defs>
 <g id="figure_1">
  <g id="patch_1">
   <path d="M 0 417.6 
L 561.6 417.6 
L 561.6 0 
L 0 0 
z
" style="fill: #ffffff"/>
  </g>
  <g id="axes_1">
   <g id="patch_2">
    <path d="M 45.587813 383.088281 
L 558 383.088281 
L 558 17.9325 
L 45.587813 17.9325 
z
" style="fill: #ffffff"/>
   </g>
   <g id="matplotlib.axis_1">
    <g id="xtick_1">
     <g id="line2d_1">
      <path d="M 384.849347 383.088281 
L 384.849347 17.9325 
" clip-path="url(#p0f57aabf7a)" style="fill: none; stroke-dasharray: 1.85,0.8; stroke-dashoffset: 0; stroke: #b0b0b0; stroke-opacity: 0.7; stroke-width: 0.5"/>
     </g>
     <g id="line2d_2">
      <defs>
       <path id="mb296e8725e" d="M 0 0 
L 0 3.5 
" style="stroke: #000000; stroke-width: 0.8"/>
      </defs>
      <g>
       <use xlink:href="#mb296e8725e" x="384.849347" y="383.088281" style="stroke: #000000; stroke-width: 0.8"/>
      </g>
     </g>
     <g id="text_1">
      <!-- $\mathdefault{10^{-1}}$ -->
      <g transform="translate(376.704347 398.063125) scale(0.09 -0.09)">
       <defs>
        <path id="TimesNewRomanPSMT-31" d="M 750 3822 
L 1781 4325 
L 1884 4325 
L 1884 747 
Q 1884 391 1914 303 
Q 1944 216 2037 169 
Q 2131 122 2419 116 
L 2419 0 
L 825 0 
L 825 116 
Q 1125 122 1212 167 
Q 1300 213 1334 289 
Q 1369 366 1369 747 
L 1369 3034 
Q 1369 3497 1338 3628 
Q 1316 3728 1258 3775 
Q 1200 3822 1119 3822 
Q 1003 3822 797 3725 
L 750 3822 
z
" transform="scale(0.015625)"/>
        <path id="TimesNewRomanPSMT-30" d="M 231 2094 
Q 231 2819 450 3342 
Q 669 3866 1031 4122 
Q 1313 4325 1613 4325 
Q 2100 4325 2488 3828 
Q 2972 3213 2972 2159 
Q 2972 1422 2759 906 
Q 2547 391 2217 158 
Q 1888 -75 1581 -75 
Q 975 -75 572 641 
Q 231 1244 231 2094 
z
M 844 2016 
Q 844 1141 1059 588 
Q 1238 122 1591 122 
Q 1759 122 1940 273 
Q 2122 425 2216 781 
Q 2359 1319 2359 2297 
Q 2359 3022 2209 3506 
Q 2097 3866 1919 4016 
Q 1791 4119 1609 4119 
Q 1397 4119 1231 3928 
Q 1006 3669 925 3112 
Q 844 2556 844 2016 
z
" transform="scale(0.015625)"/>
        <path id="TimesNewRomanPSMT-2212" d="M 3484 2000 
L 116 2000 
L 116 2256 
L 3484 2256 
L 3484 2000 
z
" transform="scale(0.015625)"/>
       </defs>
       <use xlink:href="#TimesNewRomanPSMT-31" transform="translate(0 0.582813)"/>
       <use xlink:href="#TimesNewRomanPSMT-30" transform="translate(50 0.582813)"/>
       <use xlink:href="#TimesNewRomanPSMT-2212" transform="translate(101.502813 60.695312) scale(0.7)"/>
       <use xlink:href="#TimesNewRomanPSMT-31" transform="translate(140.980352 60.695312) scale(0.7)"/>
      </g>
     </g>
    </g>
    <g id="xtick_2">
     <g id="line2d_3">
      <path d="M 70.244011 383.088281 
L 70.244011 17.9325 
" clip-path="url(#p0f57aabf7a)" style="fill: none; stroke-dasharray: 1.85,0.8; stroke-dashoffset: 0; stroke: #b0b0b0; stroke-opacity: 0.7; stroke-width: 0.5"/>
     </g>
     <g id="line2d_4">
      <defs>
       <path id="mb68d762702" d="M 0 0 
L 0 2 
" style="stroke: #000000; stroke-width: 0.6"/>
      </defs>
      <g>
       <use xlink:href="#mb68d762702" x="70.244011" y="383.088281" style="stroke: #000000; stroke-width: 0.6"/>
      </g>
     </g>
    </g>
    <g id="xtick_3">
     <g id="line2d_5">
      <path d="M 152.996039 383.088281 
L 152.996039 17.9325 
" clip-path="url(#p0f57aabf7a)" style="fill: none; stroke-dasharray: 1.85,0.8; stroke-dashoffset: 0; stroke: #b0b0b0; stroke-opacity: 0.7; stroke-width: 0.5"/>
     </g>
     <g id="line2d_6">
      <g>
       <use xlink:href="#mb68d762702" x="152.996039" y="383.088281" style="stroke: #000000; stroke-width: 0.6"/>
      </g>
     </g>
     <g id="text_2">
      <!-- $\mathdefault{6\times10^{-2}}$ -->
      <g transform="translate(138.326039 396.463125) scale(0.09 -0.09)">
       <defs>
        <path id="TimesNewRomanPSMT-36" d="M 2869 4325 
L 2869 4209 
Q 2456 4169 2195 4045 
Q 1934 3922 1679 3669 
Q 1425 3416 1258 3105 
Q 1091 2794 978 2366 
Q 1428 2675 1881 2675 
Q 2316 2675 2634 2325 
Q 2953 1975 2953 1425 
Q 2953 894 2631 456 
Q 2244 -75 1606 -75 
Q 1172 -75 869 213 
Q 275 772 275 1663 
Q 275 2231 503 2743 
Q 731 3256 1154 3653 
Q 1578 4050 1965 4187 
Q 2353 4325 2688 4325 
L 2869 4325 
z
M 925 2138 
Q 869 1716 869 1456 
Q 869 1156 980 804 
Q 1091 453 1309 247 
Q 1469 100 1697 100 
Q 1969 100 2183 356 
Q 2397 613 2397 1088 
Q 2397 1622 2184 2012 
Q 1972 2403 1581 2403 
Q 1463 2403 1327 2353 
Q 1191 2303 925 2138 
z
" transform="scale(0.015625)"/>
        <path id="TimesNewRomanPSMT-d7" d="M 516 1025 
L 1619 2128 
L 519 3228 
L 700 3409 
L 1800 2309 
L 2900 3409 
L 3075 3231 
L 1975 2131 
L 3081 1025 
L 2903 844 
L 1797 1950 
L 694 847 
L 516 1025 
z
" transform="scale(0.015625)"/>
        <path id="TimesNewRomanPSMT-32" d="M 2934 816 
L 2638 0 
L 138 0 
L 138 116 
Q 1241 1122 1691 1759 
Q 2141 2397 2141 2925 
Q 2141 3328 1894 3587 
Q 1647 3847 1303 3847 
Q 991 3847 742 3664 
Q 494 3481 375 3128 
L 259 3128 
Q 338 3706 661 4015 
Q 984 4325 1469 4325 
Q 1984 4325 2329 3994 
Q 2675 3663 2675 3213 
Q 2675 2891 2525 2569 
Q 2294 2063 1775 1497 
Q 997 647 803 472 
L 1909 472 
Q 2247 472 2383 497 
Q 2519 522 2628 598 
Q 2738 675 2819 816 
L 2934 816 
z
" transform="scale(0.015625)"/>
       </defs>
       <use xlink:href="#TimesNewRomanPSMT-36" transform="translate(0 0.582813)"/>
       <use xlink:href="#TimesNewRomanPSMT-d7" transform="translate(69.482422 0.582813)"/>
       <use xlink:href="#TimesNewRomanPSMT-31" transform="translate(145.361328 0.582813)"/>
       <use xlink:href="#TimesNewRomanPSMT-30" transform="translate(195.361328 0.582813)"/>
       <use xlink:href="#TimesNewRomanPSMT-2212" transform="translate(246.864141 60.695312) scale(0.7)"/>
       <use xlink:href="#TimesNewRomanPSMT-32" transform="translate(286.34168 60.695312) scale(0.7)"/>
      </g>
     </g>
    </g>
    <g id="xtick_4">
     <g id="line2d_7">
      <path d="M 222.961881 383.088281 
L 222.961881 17.9325 
" clip-path="url(#p0f57aabf7a)" style="fill: none; stroke-dasharray: 1.85,0.8; stroke-dashoffset: 0; stroke: #b0b0b0; stroke-opacity: 0.7; stroke-width: 0.5"/>
     </g>
     <g id="line2d_8">
      <g>
       <use xlink:href="#mb68d762702" x="222.961881" y="383.088281" style="stroke: #000000; stroke-width: 0.6"/>
      </g>
     </g>
    </g>
    <g id="xtick_5">
     <g id="line2d_9">
      <path d="M 283.56905 383.088281 
L 283.56905 17.9325 
" clip-path="url(#p0f57aabf7a)" style="fill: none; stroke-dasharray: 1.85,0.8; stroke-dashoffset: 0; stroke: #b0b0b0; stroke-opacity: 0.7; stroke-width: 0.5"/>
     </g>
     <g id="line2d_10">
      <g>
       <use xlink:href="#mb68d762702" x="283.56905" y="383.088281" style="stroke: #000000; stroke-width: 0.6"/>
      </g>
     </g>
    </g>
    <g id="xtick_6">
     <g id="line2d_11">
      <path d="M 337.028362 383.088281 
L 337.028362 17.9325 
" clip-path="url(#p0f57aabf7a)" style="fill: none; stroke-dasharray: 1.85,0.8; stroke-dashoffset: 0; stroke: #b0b0b0; stroke-opacity: 0.7; stroke-width: 0.5"/>
     </g>
     <g id="line2d_12">
      <g>
       <use xlink:href="#mb68d762702" x="337.028362" y="383.088281" style="stroke: #000000; stroke-width: 0.6"/>
      </g>
     </g>
    </g>
    <g id="text_3">
     <!-- RMSE (log scale) -->
     <g transform="translate(262.382969 411.626406) scale(0.11 -0.11)">
      <defs>
       <path id="TimesNewRomanPSMT-52" d="M 4325 0 
L 3194 0 
L 1759 1981 
Q 1600 1975 1500 1975 
Q 1459 1975 1412 1976 
Q 1366 1978 1316 1981 
L 1316 750 
Q 1316 350 1403 253 
Q 1522 116 1759 116 
L 1925 116 
L 1925 0 
L 109 0 
L 109 116 
L 269 116 
Q 538 116 653 291 
Q 719 388 719 750 
L 719 3488 
Q 719 3888 631 3984 
Q 509 4122 269 4122 
L 109 4122 
L 109 4238 
L 1653 4238 
Q 2328 4238 2648 4139 
Q 2969 4041 3192 3777 
Q 3416 3513 3416 3147 
Q 3416 2756 3161 2468 
Q 2906 2181 2372 2063 
L 3247 847 
Q 3547 428 3762 290 
Q 3978 153 4325 116 
L 4325 0 
z
M 1316 2178 
Q 1375 2178 1419 2176 
Q 1463 2175 1491 2175 
Q 2097 2175 2405 2437 
Q 2713 2700 2713 3106 
Q 2713 3503 2464 3751 
Q 2216 4000 1806 4000 
Q 1625 4000 1316 3941 
L 1316 2178 
z
" transform="scale(0.015625)"/>
       <path id="TimesNewRomanPSMT-4d" d="M 2619 0 
L 981 3566 
L 981 734 
Q 981 344 1066 247 
Q 1181 116 1431 116 
L 1581 116 
L 1581 0 
L 106 0 
L 106 116 
L 256 116 
Q 525 116 638 278 
Q 706 378 706 734 
L 706 3503 
Q 706 3784 644 3909 
Q 600 4000 483 4061 
Q 366 4122 106 4122 
L 106 4238 
L 1306 4238 
L 2844 922 
L 4356 4238 
L 5556 4238 
L 5556 4122 
L 5409 4122 
Q 5138 4122 5025 3959 
Q 4956 3859 4956 3503 
L 4956 734 
Q 4956 344 5044 247 
Q 5159 116 5409 116 
L 5556 116 
L 5556 0 
L 3756 0 
L 3756 116 
L 3906 116 
Q 4178 116 4288 278 
Q 4356 378 4356 734 
L 4356 3566 
L 2722 0 
L 2619 0 
z
" transform="scale(0.015625)"/>
       <path id="TimesNewRomanPSMT-53" d="M 2934 4334 
L 2934 2869 
L 2819 2869 
Q 2763 3291 2617 3541 
Q 2472 3791 2203 3937 
Q 1934 4084 1647 4084 
Q 1322 4084 1109 3886 
Q 897 3688 897 3434 
Q 897 3241 1031 3081 
Q 1225 2847 1953 2456 
Q 2547 2138 2764 1967 
Q 2981 1797 3098 1565 
Q 3216 1334 3216 1081 
Q 3216 600 2842 251 
Q 2469 -97 1881 -97 
Q 1697 -97 1534 -69 
Q 1438 -53 1133 45 
Q 828 144 747 144 
Q 669 144 623 97 
Q 578 50 556 -97 
L 441 -97 
L 441 1356 
L 556 1356 
Q 638 900 775 673 
Q 913 447 1195 297 
Q 1478 147 1816 147 
Q 2206 147 2432 353 
Q 2659 559 2659 841 
Q 2659 997 2573 1156 
Q 2488 1316 2306 1453 
Q 2184 1547 1640 1851 
Q 1097 2156 867 2337 
Q 638 2519 519 2737 
Q 400 2956 400 3219 
Q 400 3675 750 4004 
Q 1100 4334 1641 4334 
Q 1978 4334 2356 4169 
Q 2531 4091 2603 4091 
Q 2684 4091 2736 4139 
Q 2788 4188 2819 4334 
L 2934 4334 
z
" transform="scale(0.015625)"/>
       <path id="TimesNewRomanPSMT-45" d="M 1338 4006 
L 1338 2331 
L 2269 2331 
Q 2631 2331 2753 2441 
Q 2916 2584 2934 2947 
L 3050 2947 
L 3050 1472 
L 2934 1472 
Q 2891 1781 2847 1869 
Q 2791 1978 2662 2040 
Q 2534 2103 2269 2103 
L 1338 2103 
L 1338 706 
Q 1338 425 1363 364 
Q 1388 303 1450 267 
Q 1513 231 1688 231 
L 2406 231 
Q 2766 231 2928 281 
Q 3091 331 3241 478 
Q 3434 672 3638 1063 
L 3763 1063 
L 3397 0 
L 131 0 
L 131 116 
L 281 116 
Q 431 116 566 188 
Q 666 238 702 338 
Q 738 438 738 747 
L 738 3500 
Q 738 3903 656 3997 
Q 544 4122 281 4122 
L 131 4122 
L 131 4238 
L 3397 4238 
L 3444 3309 
L 3322 3309 
Q 3256 3644 3176 3769 
Q 3097 3894 2941 3959 
Q 2816 4006 2500 4006 
L 1338 4006 
z
" transform="scale(0.015625)"/>
       <path id="TimesNewRomanPSMT-20" transform="scale(0.015625)"/>
       <path id="TimesNewRomanPSMT-28" d="M 1988 -1253 
L 1988 -1369 
Q 1516 -1131 1200 -813 
Q 750 -359 506 256 
Q 263 872 263 1534 
Q 263 2503 741 3301 
Q 1219 4100 1988 4444 
L 1988 4313 
Q 1603 4100 1356 3731 
Q 1109 3363 987 2797 
Q 866 2231 866 1616 
Q 866 947 969 400 
Q 1050 -31 1165 -292 
Q 1281 -553 1476 -793 
Q 1672 -1034 1988 -1253 
z
" transform="scale(0.015625)"/>
       <path id="TimesNewRomanPSMT-6c" d="M 1184 4444 
L 1184 647 
Q 1184 378 1223 290 
Q 1263 203 1344 158 
Q 1425 113 1647 113 
L 1647 0 
L 244 0 
L 244 113 
Q 441 113 512 153 
Q 584 194 625 287 
Q 666 381 666 647 
L 666 3247 
Q 666 3731 644 3842 
Q 622 3953 573 3993 
Q 525 4034 450 4034 
Q 369 4034 244 3984 
L 191 4094 
L 1044 4444 
L 1184 4444 
z
" transform="scale(0.015625)"/>
       <path id="TimesNewRomanPSMT-6f" d="M 1600 2947 
Q 2250 2947 2644 2453 
Q 2978 2031 2978 1484 
Q 2978 1100 2793 706 
Q 2609 313 2286 112 
Q 1963 -88 1566 -88 
Q 919 -88 538 428 
Q 216 863 216 1403 
Q 216 1797 411 2186 
Q 606 2575 925 2761 
Q 1244 2947 1600 2947 
z
M 1503 2744 
Q 1338 2744 1170 2645 
Q 1003 2547 900 2300 
Q 797 2053 797 1666 
Q 797 1041 1045 587 
Q 1294 134 1700 134 
Q 2003 134 2200 384 
Q 2397 634 2397 1244 
Q 2397 2006 2069 2444 
Q 1847 2744 1503 2744 
z
" transform="scale(0.015625)"/>
       <path id="TimesNewRomanPSMT-67" d="M 966 1044 
Q 703 1172 562 1401 
Q 422 1631 422 1909 
Q 422 2334 742 2640 
Q 1063 2947 1563 2947 
Q 1972 2947 2272 2747 
L 2878 2747 
Q 3013 2747 3034 2739 
Q 3056 2731 3066 2713 
Q 3084 2684 3084 2613 
Q 3084 2531 3069 2500 
Q 3059 2484 3036 2475 
Q 3013 2466 2878 2466 
L 2506 2466 
Q 2681 2241 2681 1891 
Q 2681 1491 2375 1206 
Q 2069 922 1553 922 
Q 1341 922 1119 984 
Q 981 866 932 777 
Q 884 688 884 625 
Q 884 572 936 522 
Q 988 472 1138 450 
Q 1225 438 1575 428 
Q 2219 413 2409 384 
Q 2700 344 2873 169 
Q 3047 -6 3047 -263 
Q 3047 -616 2716 -925 
Q 2228 -1381 1444 -1381 
Q 841 -1381 425 -1109 
Q 191 -953 191 -784 
Q 191 -709 225 -634 
Q 278 -519 444 -313 
Q 466 -284 763 25 
Q 600 122 533 198 
Q 466 275 466 372 
Q 466 481 555 628 
Q 644 775 966 1044 
z
M 1509 2797 
Q 1278 2797 1122 2612 
Q 966 2428 966 2047 
Q 966 1553 1178 1281 
Q 1341 1075 1591 1075 
Q 1828 1075 1981 1253 
Q 2134 1431 2134 1813 
Q 2134 2309 1919 2591 
Q 1759 2797 1509 2797 
z
M 934 0 
Q 788 -159 713 -296 
Q 638 -434 638 -550 
Q 638 -700 819 -813 
Q 1131 -1006 1722 -1006 
Q 2284 -1006 2551 -807 
Q 2819 -609 2819 -384 
Q 2819 -222 2659 -153 
Q 2497 -84 2016 -72 
Q 1313 -53 934 0 
z
" transform="scale(0.015625)"/>
       <path id="TimesNewRomanPSMT-73" d="M 2050 2947 
L 2050 1972 
L 1947 1972 
Q 1828 2431 1642 2597 
Q 1456 2763 1169 2763 
Q 950 2763 815 2647 
Q 681 2531 681 2391 
Q 681 2216 781 2091 
Q 878 1963 1175 1819 
L 1631 1597 
Q 2266 1288 2266 781 
Q 2266 391 1970 151 
Q 1675 -88 1309 -88 
Q 1047 -88 709 6 
Q 606 38 541 38 
Q 469 38 428 -44 
L 325 -44 
L 325 978 
L 428 978 
Q 516 541 762 319 
Q 1009 97 1316 97 
Q 1531 97 1667 223 
Q 1803 350 1803 528 
Q 1803 744 1651 891 
Q 1500 1038 1047 1263 
Q 594 1488 453 1669 
Q 313 1847 313 2119 
Q 313 2472 555 2709 
Q 797 2947 1181 2947 
Q 1350 2947 1591 2875 
Q 1750 2828 1803 2828 
Q 1853 2828 1881 2850 
Q 1909 2872 1947 2947 
L 2050 2947 
z
" transform="scale(0.015625)"/>
       <path id="TimesNewRomanPSMT-63" d="M 2631 1088 
Q 2516 522 2178 217 
Q 1841 -88 1431 -88 
Q 944 -88 581 321 
Q 219 731 219 1428 
Q 219 2103 620 2525 
Q 1022 2947 1584 2947 
Q 2006 2947 2278 2723 
Q 2550 2500 2550 2259 
Q 2550 2141 2473 2067 
Q 2397 1994 2259 1994 
Q 2075 1994 1981 2113 
Q 1928 2178 1911 2362 
Q 1894 2547 1784 2644 
Q 1675 2738 1481 2738 
Q 1169 2738 978 2506 
Q 725 2200 725 1697 
Q 725 1184 976 792 
Q 1228 400 1656 400 
Q 1963 400 2206 609 
Q 2378 753 2541 1131 
L 2631 1088 
z
" transform="scale(0.015625)"/>
       <path id="TimesNewRomanPSMT-61" d="M 1822 413 
Q 1381 72 1269 19 
Q 1100 -59 909 -59 
Q 613 -59 420 144 
Q 228 347 228 678 
Q 228 888 322 1041 
Q 450 1253 767 1440 
Q 1084 1628 1822 1897 
L 1822 2009 
Q 1822 2438 1686 2597 
Q 1550 2756 1291 2756 
Q 1094 2756 978 2650 
Q 859 2544 859 2406 
L 866 2225 
Q 866 2081 792 2003 
Q 719 1925 600 1925 
Q 484 1925 411 2006 
Q 338 2088 338 2228 
Q 338 2497 613 2722 
Q 888 2947 1384 2947 
Q 1766 2947 2009 2819 
Q 2194 2722 2281 2516 
Q 2338 2381 2338 1966 
L 2338 994 
Q 2338 584 2353 492 
Q 2369 400 2405 369 
Q 2441 338 2488 338 
Q 2538 338 2575 359 
Q 2641 400 2828 588 
L 2828 413 
Q 2478 -56 2159 -56 
Q 2006 -56 1915 50 
Q 1825 156 1822 413 
z
M 1822 616 
L 1822 1706 
Q 1350 1519 1213 1441 
Q 966 1303 859 1153 
Q 753 1003 753 825 
Q 753 600 887 451 
Q 1022 303 1197 303 
Q 1434 303 1822 616 
z
" transform="scale(0.015625)"/>
       <path id="TimesNewRomanPSMT-65" d="M 681 1784 
Q 678 1147 991 784 
Q 1303 422 1725 422 
Q 2006 422 2214 576 
Q 2422 731 2563 1106 
L 2659 1044 
Q 2594 616 2278 264 
Q 1963 -88 1488 -88 
Q 972 -88 605 314 
Q 238 716 238 1394 
Q 238 2128 614 2539 
Q 991 2950 1559 2950 
Q 2041 2950 2350 2633 
Q 2659 2316 2659 1784 
L 681 1784 
z
M 681 1966 
L 2006 1966 
Q 1991 2241 1941 2353 
Q 1863 2528 1708 2628 
Q 1553 2728 1384 2728 
Q 1125 2728 920 2526 
Q 716 2325 681 1966 
z
" transform="scale(0.015625)"/>
       <path id="TimesNewRomanPSMT-29" d="M 144 4313 
L 144 4444 
Q 619 4209 934 3891 
Q 1381 3434 1625 2820 
Q 1869 2206 1869 1541 
Q 1869 572 1392 -226 
Q 916 -1025 144 -1369 
L 144 -1253 
Q 528 -1038 776 -670 
Q 1025 -303 1145 264 
Q 1266 831 1266 1447 
Q 1266 2113 1163 2663 
Q 1084 3094 967 3353 
Q 850 3613 656 3853 
Q 463 4094 144 4313 
z
" transform="scale(0.015625)"/>
      </defs>
      <use xlink:href="#TimesNewRomanPSMT-52"/>
      <use xlink:href="#TimesNewRomanPSMT-4d" x="66.699219"/>
      <use xlink:href="#TimesNewRomanPSMT-53" x="155.615234"/>
      <use xlink:href="#TimesNewRomanPSMT-45" x="211.230469"/>
      <use xlink:href="#TimesNewRomanPSMT-20" x="272.314453"/>
      <use xlink:href="#TimesNewRomanPSMT-28" x="297.314453"/>
      <use xlink:href="#TimesNewRomanPSMT-6c" x="330.615234"/>
      <use xlink:href="#TimesNewRomanPSMT-6f" x="358.398438"/>
      <use xlink:href="#TimesNewRomanPSMT-67" x="408.398438"/>
      <use xlink:href="#TimesNewRomanPSMT-20" x="458.398438"/>
      <use xlink:href="#TimesNewRomanPSMT-73" x="483.398438"/>
      <use xlink:href="#TimesNewRomanPSMT-63" x="522.314453"/>
      <use xlink:href="#TimesNewRomanPSMT-61" x="566.699219"/>
      <use xlink:href="#TimesNewRomanPSMT-6c" x="611.083984"/>
      <use xlink:href="#TimesNewRomanPSMT-65" x="638.867188"/>
      <use xlink:href="#TimesNewRomanPSMT-29" x="683.251953"/>
     </g>
    </g>
   </g>
   <g id="matplotlib.axis_2">
    <g id="ytick_1">
     <g id="line2d_13">
      <path d="M 45.587813 383.088281 
L 558 383.088281 
" clip-path="url(#p0f57aabf7a)" style="fill: none; stroke-dasharray: 1.85,0.8; stroke-dashoffset: 0; stroke: #b0b0b0; stroke-opacity: 0.7; stroke-width: 0.5"/>
     </g>
     <g id="line2d_14">
      <defs>
       <path id="m0da825d875" d="M 0 0 
L -3.5 0 
" style="stroke: #000000; stroke-width: 0.8"/>
      </defs>
      <g>
       <use xlink:href="#m0da825d875" x="45.587813" y="383.088281" style="stroke: #000000; stroke-width: 0.8"/>
      </g>
     </g>
     <g id="text_4">
      <!-- 0% -->
      <g transform="translate(26.591094 386.212969) scale(0.09 -0.09)">
       <defs>
        <path id="TimesNewRomanPSMT-25" d="M 4350 4334 
L 1263 -175 
L 984 -175 
L 4072 4334 
L 4350 4334 
z
M 1138 4334 
Q 1559 4334 1792 3984 
Q 2025 3634 2025 3181 
Q 2025 2638 1762 2341 
Q 1500 2044 1131 2044 
Q 884 2044 678 2180 
Q 472 2316 348 2584 
Q 225 2853 225 3181 
Q 225 3509 350 3786 
Q 475 4063 692 4198 
Q 909 4334 1138 4334 
z
M 1128 4159 
Q 969 4159 845 3971 
Q 722 3784 722 3184 
Q 722 2750 791 2522 
Q 844 2350 956 2256 
Q 1022 2200 1119 2200 
Q 1269 2200 1375 2363 
Q 1531 2603 1531 3166 
Q 1531 3759 1378 4000 
Q 1278 4159 1128 4159 
z
M 4206 2103 
Q 4428 2103 4648 1962 
Q 4869 1822 4989 1553 
Q 5109 1284 5109 963 
Q 5109 409 4843 117 
Q 4578 -175 4216 -175 
Q 3988 -175 3773 -34 
Q 3559 106 3436 367 
Q 3313 628 3313 963 
Q 3313 1291 3436 1562 
Q 3559 1834 3773 1968 
Q 3988 2103 4206 2103 
z
M 4209 1938 
Q 4059 1938 3950 1769 
Q 3809 1550 3809 941 
Q 3809 381 3953 159 
Q 4059 0 4209 0 
Q 4353 0 4466 172 
Q 4616 400 4616 956 
Q 4616 1544 4466 1778 
Q 4363 1938 4209 1938 
z
" transform="scale(0.015625)"/>
       </defs>
       <use xlink:href="#TimesNewRomanPSMT-30"/>
       <use xlink:href="#TimesNewRomanPSMT-25" x="50"/>
      </g>
     </g>
    </g>
    <g id="ytick_2">
     <g id="line2d_15">
      <path d="M 45.587813 313.534799 
L 558 313.534799 
" clip-path="url(#p0f57aabf7a)" style="fill: none; stroke-dasharray: 1.85,0.8; stroke-dashoffset: 0; stroke: #b0b0b0; stroke-opacity: 0.7; stroke-width: 0.5"/>
     </g>
     <g id="line2d_16">
      <g>
       <use xlink:href="#m0da825d875" x="45.587813" y="313.534799" style="stroke: #000000; stroke-width: 0.8"/>
      </g>
     </g>
     <g id="text_5">
      <!-- 20% -->
      <g transform="translate(22.091094 316.659487) scale(0.09 -0.09)">
       <use xlink:href="#TimesNewRomanPSMT-32"/>
       <use xlink:href="#TimesNewRomanPSMT-30" x="50"/>
       <use xlink:href="#TimesNewRomanPSMT-25" x="100"/>
      </g>
     </g>
    </g>
    <g id="ytick_3">
     <g id="line2d_17">
      <path d="M 45.587813 243.981317 
L 558 243.981317 
" clip-path="url(#p0f57aabf7a)" style="fill: none; stroke-dasharray: 1.85,0.8; stroke-dashoffset: 0; stroke: #b0b0b0; stroke-opacity: 0.7; stroke-width: 0.5"/>
     </g>
     <g id="line2d_18">
      <g>
       <use xlink:href="#m0da825d875" x="45.587813" y="243.981317" style="stroke: #000000; stroke-width: 0.8"/>
      </g>
     </g>
     <g id="text_6">
      <!-- 40% -->
      <g transform="translate(22.091094 247.106004) scale(0.09 -0.09)">
       <defs>
        <path id="TimesNewRomanPSMT-34" d="M 2978 1563 
L 2978 1119 
L 2409 1119 
L 2409 0 
L 1894 0 
L 1894 1119 
L 100 1119 
L 100 1519 
L 2066 4325 
L 2409 4325 
L 2409 1563 
L 2978 1563 
z
M 1894 1563 
L 1894 3666 
L 406 1563 
L 1894 1563 
z
" transform="scale(0.015625)"/>
       </defs>
       <use xlink:href="#TimesNewRomanPSMT-34"/>
       <use xlink:href="#TimesNewRomanPSMT-30" x="50"/>
       <use xlink:href="#TimesNewRomanPSMT-25" x="100"/>
      </g>
     </g>
    </g>
    <g id="ytick_4">
     <g id="line2d_19">
      <path d="M 45.587813 174.427835 
L 558 174.427835 
" clip-path="url(#p0f57aabf7a)" style="fill: none; stroke-dasharray: 1.85,0.8; stroke-dashoffset: 0; stroke: #b0b0b0; stroke-opacity: 0.7; stroke-width: 0.5"/>
     </g>
     <g id="line2d_20">
      <g>
       <use xlink:href="#m0da825d875" x="45.587813" y="174.427835" style="stroke: #000000; stroke-width: 0.8"/>
      </g>
     </g>
     <g id="text_7">
      <!-- 60% -->
      <g transform="translate(22.091094 177.552522) scale(0.09 -0.09)">
       <use xlink:href="#TimesNewRomanPSMT-36"/>
       <use xlink:href="#TimesNewRomanPSMT-30" x="50"/>
       <use xlink:href="#TimesNewRomanPSMT-25" x="100"/>
      </g>
     </g>
    </g>
    <g id="ytick_5">
     <g id="line2d_21">
      <path d="M 45.587813 104.874353 
L 558 104.874353 
" clip-path="url(#p0f57aabf7a)" style="fill: none; stroke-dasharray: 1.85,0.8; stroke-dashoffset: 0; stroke: #b0b0b0; stroke-opacity: 0.7; stroke-width: 0.5"/>
     </g>
     <g id="line2d_22">
      <g>
       <use xlink:href="#m0da825d875" x="45.587813" y="104.874353" style="stroke: #000000; stroke-width: 0.8"/>
      </g>
     </g>
     <g id="text_8">
      <!-- 80% -->
      <g transform="translate(22.091094 107.99904) scale(0.09 -0.09)">
       <defs>
        <path id="TimesNewRomanPSMT-38" d="M 1228 2134 
Q 725 2547 579 2797 
Q 434 3047 434 3316 
Q 434 3728 753 4026 
Q 1072 4325 1600 4325 
Q 2113 4325 2425 4047 
Q 2738 3769 2738 3413 
Q 2738 3175 2569 2928 
Q 2400 2681 1866 2347 
Q 2416 1922 2594 1678 
Q 2831 1359 2831 1006 
Q 2831 559 2490 242 
Q 2150 -75 1597 -75 
Q 994 -75 656 303 
Q 388 606 388 966 
Q 388 1247 577 1523 
Q 766 1800 1228 2134 
z
M 1719 2469 
Q 2094 2806 2194 3001 
Q 2294 3197 2294 3444 
Q 2294 3772 2109 3958 
Q 1925 4144 1606 4144 
Q 1288 4144 1088 3959 
Q 888 3775 888 3528 
Q 888 3366 970 3203 
Q 1053 3041 1206 2894 
L 1719 2469 
z
M 1375 2016 
Q 1116 1797 991 1539 
Q 866 1281 866 981 
Q 866 578 1086 336 
Q 1306 94 1647 94 
Q 1984 94 2187 284 
Q 2391 475 2391 747 
Q 2391 972 2272 1150 
Q 2050 1481 1375 2016 
z
" transform="scale(0.015625)"/>
       </defs>
       <use xlink:href="#TimesNewRomanPSMT-38"/>
       <use xlink:href="#TimesNewRomanPSMT-30" x="50"/>
       <use xlink:href="#TimesNewRomanPSMT-25" x="100"/>
      </g>
     </g>
    </g>
    <g id="ytick_6">
     <g id="line2d_23">
      <path d="M 45.587813 35.320871 
L 558 35.320871 
" clip-path="url(#p0f57aabf7a)" style="fill: none; stroke-dasharray: 1.85,0.8; stroke-dashoffset: 0; stroke: #b0b0b0; stroke-opacity: 0.7; stroke-width: 0.5"/>
     </g>
     <g id="line2d_24">
      <g>
       <use xlink:href="#m0da825d875" x="45.587813" y="35.320871" style="stroke: #000000; stroke-width: 0.8"/>
      </g>
     </g>
     <g id="text_9">
      <!-- 100% -->
      <g transform="translate(17.591094 38.445558) scale(0.09 -0.09)">
       <use xlink:href="#TimesNewRomanPSMT-31"/>
       <use xlink:href="#TimesNewRomanPSMT-30" x="50"/>
       <use xlink:href="#TimesNewRomanPSMT-30" x="100"/>
       <use xlink:href="#TimesNewRomanPSMT-25" x="150"/>
      </g>
     </g>
    </g>
    <g id="text_10">
     <!-- Cumulative Distribution Function (CDF) -->
     <g transform="translate(11.238125 290.800625) rotate(-90) scale(0.11 -0.11)">
      <defs>
       <path id="TimesNewRomanPSMT-43" d="M 3853 4334 
L 3950 2894 
L 3853 2894 
Q 3659 3541 3300 3825 
Q 2941 4109 2438 4109 
Q 2016 4109 1675 3895 
Q 1334 3681 1139 3212 
Q 944 2744 944 2047 
Q 944 1472 1128 1050 
Q 1313 628 1683 403 
Q 2053 178 2528 178 
Q 2941 178 3256 354 
Q 3572 531 3950 1056 
L 4047 994 
Q 3728 428 3303 165 
Q 2878 -97 2294 -97 
Q 1241 -97 663 684 
Q 231 1266 231 2053 
Q 231 2688 515 3219 
Q 800 3750 1298 4042 
Q 1797 4334 2388 4334 
Q 2847 4334 3294 4109 
Q 3425 4041 3481 4041 
Q 3566 4041 3628 4100 
Q 3709 4184 3744 4334 
L 3853 4334 
z
" transform="scale(0.015625)"/>
       <path id="TimesNewRomanPSMT-75" d="M 2709 2863 
L 2709 1128 
Q 2709 631 2732 520 
Q 2756 409 2807 365 
Q 2859 322 2928 322 
Q 3025 322 3147 375 
L 3191 266 
L 2334 -88 
L 2194 -88 
L 2194 519 
Q 1825 119 1631 15 
Q 1438 -88 1222 -88 
Q 981 -88 804 51 
Q 628 191 559 409 
Q 491 628 491 1028 
L 491 2306 
Q 491 2509 447 2587 
Q 403 2666 317 2708 
Q 231 2750 6 2747 
L 6 2863 
L 1009 2863 
L 1009 947 
Q 1009 547 1148 422 
Q 1288 297 1484 297 
Q 1619 297 1789 381 
Q 1959 466 2194 703 
L 2194 2325 
Q 2194 2569 2105 2655 
Q 2016 2741 1734 2747 
L 1734 2863 
L 2709 2863 
z
" transform="scale(0.015625)"/>
       <path id="TimesNewRomanPSMT-6d" d="M 1050 2338 
Q 1363 2650 1419 2697 
Q 1559 2816 1721 2881 
Q 1884 2947 2044 2947 
Q 2313 2947 2506 2790 
Q 2700 2634 2766 2338 
Q 3088 2713 3309 2830 
Q 3531 2947 3766 2947 
Q 3994 2947 4170 2830 
Q 4347 2713 4450 2447 
Q 4519 2266 4519 1878 
L 4519 647 
Q 4519 378 4559 278 
Q 4591 209 4675 161 
Q 4759 113 4950 113 
L 4950 0 
L 3538 0 
L 3538 113 
L 3597 113 
Q 3781 113 3884 184 
Q 3956 234 3988 344 
Q 4000 397 4000 647 
L 4000 1878 
Q 4000 2228 3916 2372 
Q 3794 2572 3525 2572 
Q 3359 2572 3192 2489 
Q 3025 2406 2788 2181 
L 2781 2147 
L 2788 2013 
L 2788 647 
Q 2788 353 2820 281 
Q 2853 209 2943 161 
Q 3034 113 3253 113 
L 3253 0 
L 1806 0 
L 1806 113 
Q 2044 113 2133 169 
Q 2222 225 2256 338 
Q 2272 391 2272 647 
L 2272 1878 
Q 2272 2228 2169 2381 
Q 2031 2581 1784 2581 
Q 1616 2581 1450 2491 
Q 1191 2353 1050 2181 
L 1050 647 
Q 1050 366 1089 281 
Q 1128 197 1204 155 
Q 1281 113 1516 113 
L 1516 0 
L 100 0 
L 100 113 
Q 297 113 375 155 
Q 453 197 493 289 
Q 534 381 534 647 
L 534 1741 
Q 534 2213 506 2350 
Q 484 2453 437 2492 
Q 391 2531 309 2531 
Q 222 2531 100 2484 
L 53 2597 
L 916 2947 
L 1050 2947 
L 1050 2338 
z
" transform="scale(0.015625)"/>
       <path id="TimesNewRomanPSMT-74" d="M 1031 3803 
L 1031 2863 
L 1700 2863 
L 1700 2644 
L 1031 2644 
L 1031 788 
Q 1031 509 1111 412 
Q 1191 316 1316 316 
Q 1419 316 1516 380 
Q 1613 444 1666 569 
L 1788 569 
Q 1678 263 1478 108 
Q 1278 -47 1066 -47 
Q 922 -47 784 33 
Q 647 113 581 261 
Q 516 409 516 719 
L 516 2644 
L 63 2644 
L 63 2747 
Q 234 2816 414 2980 
Q 594 3144 734 3369 
Q 806 3488 934 3803 
L 1031 3803 
z
" transform="scale(0.015625)"/>
       <path id="TimesNewRomanPSMT-69" d="M 928 4444 
Q 1059 4444 1151 4351 
Q 1244 4259 1244 4128 
Q 1244 3997 1151 3903 
Q 1059 3809 928 3809 
Q 797 3809 703 3903 
Q 609 3997 609 4128 
Q 609 4259 701 4351 
Q 794 4444 928 4444 
z
M 1188 2947 
L 1188 647 
Q 1188 378 1227 289 
Q 1266 200 1342 156 
Q 1419 113 1622 113 
L 1622 0 
L 231 0 
L 231 113 
Q 441 113 512 153 
Q 584 194 626 287 
Q 669 381 669 647 
L 669 1750 
Q 669 2216 641 2353 
Q 619 2453 572 2492 
Q 525 2531 444 2531 
Q 356 2531 231 2484 
L 188 2597 
L 1050 2947 
L 1188 2947 
z
" transform="scale(0.015625)"/>
       <path id="TimesNewRomanPSMT-76" d="M 53 2863 
L 1400 2863 
L 1400 2747 
L 1313 2747 
Q 1191 2747 1127 2687 
Q 1063 2628 1063 2528 
Q 1063 2419 1128 2269 
L 1794 688 
L 2463 2328 
Q 2534 2503 2534 2594 
Q 2534 2638 2509 2666 
Q 2475 2713 2422 2730 
Q 2369 2747 2206 2747 
L 2206 2863 
L 3141 2863 
L 3141 2747 
Q 2978 2734 2916 2681 
Q 2806 2588 2719 2369 
L 1703 -88 
L 1575 -88 
L 553 2328 
Q 484 2497 421 2570 
Q 359 2644 263 2694 
Q 209 2722 53 2747 
L 53 2863 
z
" transform="scale(0.015625)"/>
       <path id="TimesNewRomanPSMT-44" d="M 109 0 
L 109 116 
L 269 116 
Q 538 116 650 288 
Q 719 391 719 750 
L 719 3488 
Q 719 3884 631 3984 
Q 509 4122 269 4122 
L 109 4122 
L 109 4238 
L 1834 4238 
Q 2784 4238 3279 4022 
Q 3775 3806 4076 3303 
Q 4378 2800 4378 2141 
Q 4378 1256 3841 663 
Q 3238 0 2003 0 
L 109 0 
z
M 1319 306 
Q 1716 219 1984 219 
Q 2709 219 3187 728 
Q 3666 1238 3666 2109 
Q 3666 2988 3187 3494 
Q 2709 4000 1959 4000 
Q 1678 4000 1319 3909 
L 1319 306 
z
" transform="scale(0.015625)"/>
       <path id="TimesNewRomanPSMT-72" d="M 1038 2947 
L 1038 2303 
Q 1397 2947 1775 2947 
Q 1947 2947 2059 2842 
Q 2172 2738 2172 2600 
Q 2172 2478 2090 2393 
Q 2009 2309 1897 2309 
Q 1788 2309 1652 2417 
Q 1516 2525 1450 2525 
Q 1394 2525 1328 2463 
Q 1188 2334 1038 2041 
L 1038 669 
Q 1038 431 1097 309 
Q 1138 225 1241 169 
Q 1344 113 1538 113 
L 1538 0 
L 72 0 
L 72 113 
Q 291 113 397 181 
Q 475 231 506 341 
Q 522 394 522 644 
L 522 1753 
Q 522 2253 501 2348 
Q 481 2444 426 2487 
Q 372 2531 291 2531 
Q 194 2531 72 2484 
L 41 2597 
L 906 2947 
L 1038 2947 
z
" transform="scale(0.015625)"/>
       <path id="TimesNewRomanPSMT-62" d="M 984 2369 
Q 1400 2947 1881 2947 
Q 2322 2947 2650 2570 
Q 2978 2194 2978 1541 
Q 2978 778 2472 313 
Q 2038 -88 1503 -88 
Q 1253 -88 995 3 
Q 738 94 469 275 
L 469 3241 
Q 469 3728 445 3840 
Q 422 3953 372 3993 
Q 322 4034 247 4034 
Q 159 4034 28 3984 
L -16 4094 
L 844 4444 
L 984 4444 
L 984 2369 
z
M 984 2169 
L 984 456 
Q 1144 300 1314 220 
Q 1484 141 1663 141 
Q 1947 141 2192 453 
Q 2438 766 2438 1363 
Q 2438 1913 2192 2208 
Q 1947 2503 1634 2503 
Q 1469 2503 1303 2419 
Q 1178 2356 984 2169 
z
" transform="scale(0.015625)"/>
       <path id="TimesNewRomanPSMT-6e" d="M 1034 2341 
Q 1538 2947 1994 2947 
Q 2228 2947 2397 2830 
Q 2566 2713 2666 2444 
Q 2734 2256 2734 1869 
L 2734 647 
Q 2734 375 2778 278 
Q 2813 200 2889 156 
Q 2966 113 3172 113 
L 3172 0 
L 1756 0 
L 1756 113 
L 1816 113 
Q 2016 113 2095 173 
Q 2175 234 2206 353 
Q 2219 400 2219 647 
L 2219 1819 
Q 2219 2209 2117 2386 
Q 2016 2563 1775 2563 
Q 1403 2563 1034 2156 
L 1034 647 
Q 1034 356 1069 288 
Q 1113 197 1189 155 
Q 1266 113 1500 113 
L 1500 0 
L 84 0 
L 84 113 
L 147 113 
Q 366 113 442 223 
Q 519 334 519 647 
L 519 1709 
Q 519 2225 495 2337 
Q 472 2450 423 2490 
Q 375 2531 294 2531 
Q 206 2531 84 2484 
L 38 2597 
L 900 2947 
L 1034 2947 
L 1034 2341 
z
" transform="scale(0.015625)"/>
       <path id="TimesNewRomanPSMT-46" d="M 1309 4006 
L 1309 2341 
L 2081 2341 
Q 2347 2341 2470 2458 
Q 2594 2575 2634 2922 
L 2750 2922 
L 2750 1488 
L 2634 1488 
Q 2631 1734 2570 1850 
Q 2509 1966 2401 2023 
Q 2294 2081 2081 2081 
L 1309 2081 
L 1309 750 
Q 1309 428 1350 325 
Q 1381 247 1481 191 
Q 1619 116 1769 116 
L 1922 116 
L 1922 0 
L 103 0 
L 103 116 
L 253 116 
Q 516 116 634 269 
Q 709 369 709 750 
L 709 3488 
Q 709 3809 669 3913 
Q 638 3991 541 4047 
Q 406 4122 253 4122 
L 103 4122 
L 103 4238 
L 3256 4238 
L 3297 3306 
L 3188 3306 
Q 3106 3603 2998 3742 
Q 2891 3881 2733 3943 
Q 2575 4006 2244 4006 
L 1309 4006 
z
" transform="scale(0.015625)"/>
      </defs>
      <use xlink:href="#TimesNewRomanPSMT-43"/>
      <use xlink:href="#TimesNewRomanPSMT-75" x="66.699219"/>
      <use xlink:href="#TimesNewRomanPSMT-6d" x="116.699219"/>
      <use xlink:href="#TimesNewRomanPSMT-75" x="194.482422"/>
      <use xlink:href="#TimesNewRomanPSMT-6c" x="244.482422"/>
      <use xlink:href="#TimesNewRomanPSMT-61" x="272.265625"/>
      <use xlink:href="#TimesNewRomanPSMT-74" x="316.650391"/>
      <use xlink:href="#TimesNewRomanPSMT-69" x="344.433594"/>
      <use xlink:href="#TimesNewRomanPSMT-76" x="372.216797"/>
      <use xlink:href="#TimesNewRomanPSMT-65" x="422.216797"/>
      <use xlink:href="#TimesNewRomanPSMT-20" x="466.601562"/>
      <use xlink:href="#TimesNewRomanPSMT-44" x="491.601562"/>
      <use xlink:href="#TimesNewRomanPSMT-69" x="563.818359"/>
      <use xlink:href="#TimesNewRomanPSMT-73" x="591.601562"/>
      <use xlink:href="#TimesNewRomanPSMT-74" x="630.517578"/>
      <use xlink:href="#TimesNewRomanPSMT-72" x="658.300781"/>
      <use xlink:href="#TimesNewRomanPSMT-69" x="691.601562"/>
      <use xlink:href="#TimesNewRomanPSMT-62" x="719.384766"/>
      <use xlink:href="#TimesNewRomanPSMT-75" x="769.384766"/>
      <use xlink:href="#TimesNewRomanPSMT-74" x="819.384766"/>
      <use xlink:href="#TimesNewRomanPSMT-69" x="847.167969"/>
      <use xlink:href="#TimesNewRomanPSMT-6f" x="874.951172"/>
      <use xlink:href="#TimesNewRomanPSMT-6e" x="924.951172"/>
      <use xlink:href="#TimesNewRomanPSMT-20" x="974.951172"/>
      <use xlink:href="#TimesNewRomanPSMT-46" x="999.951172"/>
      <use xlink:href="#TimesNewRomanPSMT-75" x="1055.566406"/>
      <use xlink:href="#TimesNewRomanPSMT-6e" x="1105.566406"/>
      <use xlink:href="#TimesNewRomanPSMT-63" x="1155.566406"/>
      <use xlink:href="#TimesNewRomanPSMT-74" x="1199.951172"/>
      <use xlink:href="#TimesNewRomanPSMT-69" x="1227.734375"/>
      <use xlink:href="#TimesNewRomanPSMT-6f" x="1255.517578"/>
      <use xlink:href="#TimesNewRomanPSMT-6e" x="1305.517578"/>
      <use xlink:href="#TimesNewRomanPSMT-20" x="1355.517578"/>
      <use xlink:href="#TimesNewRomanPSMT-28" x="1380.517578"/>
      <use xlink:href="#TimesNewRomanPSMT-43" x="1413.818359"/>
      <use xlink:href="#TimesNewRomanPSMT-44" x="1480.517578"/>
      <use xlink:href="#TimesNewRomanPSMT-46" x="1552.734375"/>
      <use xlink:href="#TimesNewRomanPSMT-29" x="1608.349609"/>
     </g>
    </g>
   </g>
   <g id="line2d_25">
    <path d="M -1 379.229487 
L 103.967159 378.225486 
L 198.664074 377.097317 
L 284.353844 375.852442 
L 362.609954 374.490859 
L 434.624918 373.012569 
L 496.76288 371.534279 
L 498.288527 359.503444 
L 499.809063 313.438295 
L 501.324522 293.206248 
L 507.336259 226.416404 
L 508.826834 207.986319 
L 510.312529 193.518968 
L 511.793378 167.070795 
L 513.26941 94.389725 
L 514.740658 35.320871 
L 514.740658 35.320871 
" clip-path="url(#p0f57aabf7a)" style="fill: none; stroke-dasharray: 7.68,1.92,1.2,1.92; stroke-dashoffset: 0; stroke: #3d85c6; stroke-width: 1.2"/>
    <defs>
     <path id="meff87d3d83" d="M 0 2 
C 0.530406 2 1.03916 1.789267 1.414214 1.414214 
C 1.789267 1.03916 2 0.530406 2 0 
C 2 -0.530406 1.789267 -1.03916 1.414214 -1.414214 
C 1.03916 -1.789267 0.530406 -2 0 -2 
C -0.530406 -2 -1.03916 -1.789267 -1.414214 -1.414214 
C -1.789267 -1.03916 -2 -0.530406 -2 0 
C -2 0.530406 -1.789267 1.03916 -1.414214 1.414214 
C -1.03916 1.789267 -0.530406 2 0 2 
z
" style="stroke: #3d85c6"/>
    </defs>
    <g clip-path="url(#p0f57aabf7a)">
     <use xlink:href="#meff87d3d83" x="-1" y="379.228848" style="fill: #3d85c6; stroke: #3d85c6"/>
     <use xlink:href="#meff87d3d83" x="2.686862" y="379.198045" style="fill: #3d85c6; stroke: #3d85c6"/>
     <use xlink:href="#meff87d3d83" x="24.831721" y="379.003533" style="fill: #3d85c6; stroke: #3d85c6"/>
     <use xlink:href="#meff87d3d83" x="45.946205" y="378.809021" style="fill: #3d85c6; stroke: #3d85c6"/>
     <use xlink:href="#meff87d3d83" x="66.121951" y="378.614509" style="fill: #3d85c6; stroke: #3d85c6"/>
     <use xlink:href="#meff87d3d83" x="85.43889" y="378.419998" style="fill: #3d85c6; stroke: #3d85c6"/>
     <use xlink:href="#meff87d3d83" x="103.967159" y="378.225486" style="fill: #3d85c6; stroke: #3d85c6"/>
     <use xlink:href="#meff87d3d83" x="121.768639" y="378.030974" style="fill: #3d85c6; stroke: #3d85c6"/>
     <use xlink:href="#meff87d3d83" x="138.898202" y="377.836462" style="fill: #3d85c6; stroke: #3d85c6"/>
     <use xlink:href="#meff87d3d83" x="155.404732" y="377.64195" style="fill: #3d85c6; stroke: #3d85c6"/>
     <use xlink:href="#meff87d3d83" x="171.331965" y="377.447438" style="fill: #3d85c6; stroke: #3d85c6"/>
     <use xlink:href="#meff87d3d83" x="186.719186" y="377.252927" style="fill: #3d85c6; stroke: #3d85c6"/>
     <use xlink:href="#meff87d3d83" x="201.601816" y="377.058415" style="fill: #3d85c6; stroke: #3d85c6"/>
     <use xlink:href="#meff87d3d83" x="216.011902" y="376.863903" style="fill: #3d85c6; stroke: #3d85c6"/>
     <use xlink:href="#meff87d3d83" x="229.978528" y="376.669391" style="fill: #3d85c6; stroke: #3d85c6"/>
     <use xlink:href="#meff87d3d83" x="243.528178" y="376.474879" style="fill: #3d85c6; stroke: #3d85c6"/>
     <use xlink:href="#meff87d3d83" x="256.685029" y="376.280368" style="fill: #3d85c6; stroke: #3d85c6"/>
     <use xlink:href="#meff87d3d83" x="269.471214" y="376.085856" style="fill: #3d85c6; stroke: #3d85c6"/>
     <use xlink:href="#meff87d3d83" x="281.907048" y="375.891344" style="fill: #3d85c6; stroke: #3d85c6"/>
     <use xlink:href="#meff87d3d83" x="294.01122" y="375.696832" style="fill: #3d85c6; stroke: #3d85c6"/>
     <use xlink:href="#meff87d3d83" x="305.800962" y="375.50232" style="fill: #3d85c6; stroke: #3d85c6"/>
     <use xlink:href="#meff87d3d83" x="317.292198" y="375.307808" style="fill: #3d85c6; stroke: #3d85c6"/>
     <use xlink:href="#meff87d3d83" x="328.49967" y="375.113297" style="fill: #3d85c6; stroke: #3d85c6"/>
     <use xlink:href="#meff87d3d83" x="339.437056" y="374.918785" style="fill: #3d85c6; stroke: #3d85c6"/>
     <use xlink:href="#meff87d3d83" x="350.117068" y="374.724273" style="fill: #3d85c6; stroke: #3d85c6"/>
     <use xlink:href="#meff87d3d83" x="360.55154" y="374.529761" style="fill: #3d85c6; stroke: #3d85c6"/>
     <use xlink:href="#meff87d3d83" x="370.75151" y="374.335249" style="fill: #3d85c6; stroke: #3d85c6"/>
     <use xlink:href="#meff87d3d83" x="380.727286" y="374.140738" style="fill: #3d85c6; stroke: #3d85c6"/>
     <use xlink:href="#meff87d3d83" x="390.488513" y="373.946226" style="fill: #3d85c6; stroke: #3d85c6"/>
     <use xlink:href="#meff87d3d83" x="400.044225" y="373.751714" style="fill: #3d85c6; stroke: #3d85c6"/>
     <use xlink:href="#meff87d3d83" x="409.402898" y="373.557202" style="fill: #3d85c6; stroke: #3d85c6"/>
     <use xlink:href="#meff87d3d83" x="418.572494" y="373.36269" style="fill: #3d85c6; stroke: #3d85c6"/>
     <use xlink:href="#meff87d3d83" x="427.560502" y="373.168178" style="fill: #3d85c6; stroke: #3d85c6"/>
     <use xlink:href="#meff87d3d83" x="436.373974" y="372.973667" style="fill: #3d85c6; stroke: #3d85c6"/>
     <use xlink:href="#meff87d3d83" x="445.01956" y="372.779155" style="fill: #3d85c6; stroke: #3d85c6"/>
     <use xlink:href="#meff87d3d83" x="453.503537" y="372.584643" style="fill: #3d85c6; stroke: #3d85c6"/>
     <use xlink:href="#meff87d3d83" x="461.831836" y="372.390131" style="fill: #3d85c6; stroke: #3d85c6"/>
     <use xlink:href="#meff87d3d83" x="470.010068" y="372.195619" style="fill: #3d85c6; stroke: #3d85c6"/>
     <use xlink:href="#meff87d3d83" x="478.043544" y="372.001107" style="fill: #3d85c6; stroke: #3d85c6"/>
     <use xlink:href="#meff87d3d83" x="485.9373" y="371.806596" style="fill: #3d85c6; stroke: #3d85c6"/>
     <use xlink:href="#meff87d3d83" x="493.696114" y="371.612084" style="fill: #3d85c6; stroke: #3d85c6"/>
     <use xlink:href="#meff87d3d83" x="501.324522" y="293.206248" style="fill: #3d85c6; stroke: #3d85c6"/>
     <use xlink:href="#meff87d3d83" x="508.826834" y="207.986319" style="fill: #3d85c6; stroke: #3d85c6"/>
    </g>
   </g>
   <g id="line2d_26">
    <path d="M -1 375.624338 
L 73.964187 374.28395 
L 144.223328 372.809922 
L 197.291533 371.535087 
L 198.853943 371.267825 
L 200.410993 359.721392 
L 201.962719 349.274424 
L 203.509159 336.549697 
L 206.58632 307.73307 
L 211.163296 276.632284 
L 212.678755 264.781726 
L 214.189171 254.601306 
L 215.694577 230.424357 
L 218.690492 194.752188 
L 220.181067 155.109469 
L 221.666762 103.582569 
L 223.147611 86.04175 
L 226.094891 35.320871 
L 226.094891 35.320871 
" clip-path="url(#p0f57aabf7a)" style="fill: none; stroke-dasharray: 7.68,1.92,1.2,1.92; stroke-dashoffset: 0; stroke: #e06666; stroke-width: 1.2"/>
    <defs>
     <path id="mdb2f6205aa" d="M -2 2 
L 2 2 
L 2 -2 
L -2 -2 
z
" style="stroke: #e06666; stroke-linejoin: miter"/>
    </defs>
    <g clip-path="url(#p0f57aabf7a)">
     <use xlink:href="#mdb2f6205aa" x="-1" y="375.6237" style="fill: #e06666; stroke: #e06666; stroke-linejoin: miter"/>
     <use xlink:href="#mdb2f6205aa" x="5.365453" y="375.518947" style="fill: #e06666; stroke: #e06666; stroke-linejoin: miter"/>
     <use xlink:href="#mdb2f6205aa" x="17.155195" y="375.319754" style="fill: #e06666; stroke: #e06666; stroke-linejoin: miter"/>
     <use xlink:href="#mdb2f6205aa" x="28.646431" y="375.120561" style="fill: #e06666; stroke: #e06666; stroke-linejoin: miter"/>
     <use xlink:href="#mdb2f6205aa" x="39.853903" y="374.921368" style="fill: #e06666; stroke: #e06666; stroke-linejoin: miter"/>
     <use xlink:href="#mdb2f6205aa" x="50.791289" y="374.722175" style="fill: #e06666; stroke: #e06666; stroke-linejoin: miter"/>
     <use xlink:href="#mdb2f6205aa" x="61.471301" y="374.522982" style="fill: #e06666; stroke: #e06666; stroke-linejoin: miter"/>
     <use xlink:href="#mdb2f6205aa" x="71.905773" y="374.323789" style="fill: #e06666; stroke: #e06666; stroke-linejoin: miter"/>
     <use xlink:href="#mdb2f6205aa" x="82.105743" y="374.124596" style="fill: #e06666; stroke: #e06666; stroke-linejoin: miter"/>
     <use xlink:href="#mdb2f6205aa" x="92.081519" y="373.925403" style="fill: #e06666; stroke: #e06666; stroke-linejoin: miter"/>
     <use xlink:href="#mdb2f6205aa" x="101.842746" y="373.72621" style="fill: #e06666; stroke: #e06666; stroke-linejoin: miter"/>
     <use xlink:href="#mdb2f6205aa" x="111.398458" y="373.527017" style="fill: #e06666; stroke: #e06666; stroke-linejoin: miter"/>
     <use xlink:href="#mdb2f6205aa" x="120.757131" y="373.327824" style="fill: #e06666; stroke: #e06666; stroke-linejoin: miter"/>
     <use xlink:href="#mdb2f6205aa" x="129.926727" y="373.128631" style="fill: #e06666; stroke: #e06666; stroke-linejoin: miter"/>
     <use xlink:href="#mdb2f6205aa" x="138.914735" y="372.929438" style="fill: #e06666; stroke: #e06666; stroke-linejoin: miter"/>
     <use xlink:href="#mdb2f6205aa" x="147.728207" y="372.730245" style="fill: #e06666; stroke: #e06666; stroke-linejoin: miter"/>
     <use xlink:href="#mdb2f6205aa" x="156.373793" y="372.531052" style="fill: #e06666; stroke: #e06666; stroke-linejoin: miter"/>
     <use xlink:href="#mdb2f6205aa" x="164.85777" y="372.331859" style="fill: #e06666; stroke: #e06666; stroke-linejoin: miter"/>
     <use xlink:href="#mdb2f6205aa" x="173.186069" y="372.132666" style="fill: #e06666; stroke: #e06666; stroke-linejoin: miter"/>
     <use xlink:href="#mdb2f6205aa" x="181.364301" y="371.933473" style="fill: #e06666; stroke: #e06666; stroke-linejoin: miter"/>
     <use xlink:href="#mdb2f6205aa" x="189.397777" y="371.73428" style="fill: #e06666; stroke: #e06666; stroke-linejoin: miter"/>
     <use xlink:href="#mdb2f6205aa" x="197.291533" y="371.535087" style="fill: #e06666; stroke: #e06666; stroke-linejoin: miter"/>
     <use xlink:href="#mdb2f6205aa" x="205.050347" y="322.501279" style="fill: #e06666; stroke: #e06666; stroke-linejoin: miter"/>
     <use xlink:href="#mdb2f6205aa" x="212.678755" y="264.781726" style="fill: #e06666; stroke: #e06666; stroke-linejoin: miter"/>
     <use xlink:href="#mdb2f6205aa" x="220.181067" y="155.109469" style="fill: #e06666; stroke: #e06666; stroke-linejoin: miter"/>
    </g>
   </g>
   <g id="line2d_27">
    <path d="M -1 377.470126 
L 85.992165 376.283258 
L 166.513821 374.962282 
L 238.710034 373.561248 
L 305.9433 372.040125 
L 326.83348 371.519741 
L 328.401287 364.661164 
L 329.963697 346.879011 
L 331.520746 305.828129 
L 333.072473 285.49589 
L 337.696074 254.807568 
L 339.226866 244.619199 
L 340.752513 230.103626 
L 342.273049 218.034803 
L 343.788508 206.910532 
L 345.298924 191.844717 
L 349.800246 162.393497 
L 351.29082 153.458083 
L 352.776516 142.982477 
L 354.257364 112.091056 
L 355.733396 86.552643 
L 357.204644 35.320871 
L 357.204644 35.320871 
" clip-path="url(#p0f57aabf7a)" style="fill: none; stroke-dasharray: 7.68,1.92,1.2,1.92; stroke-dashoffset: 0; stroke: #6aa84f; stroke-width: 1.2"/>
    <defs>
     <path id="mf9aa8d9018" d="M 0 -2 
L -2 2 
L 2 2 
z
" style="stroke: #6aa84f; stroke-linejoin: miter"/>
    </defs>
    <g clip-path="url(#p0f57aabf7a)">
     <use xlink:href="#mf9aa8d9018" x="-1" y="377.469928" style="fill: #6aa84f; stroke: #6aa84f; stroke-linejoin: miter"/>
     <use xlink:href="#mf9aa8d9018" x="13.795951" y="377.283996" style="fill: #6aa84f; stroke: #6aa84f; stroke-linejoin: miter"/>
     <use xlink:href="#mf9aa8d9018" x="29.183173" y="377.083849" style="fill: #6aa84f; stroke: #6aa84f; stroke-linejoin: miter"/>
     <use xlink:href="#mf9aa8d9018" x="44.065803" y="376.883701" style="fill: #6aa84f; stroke: #6aa84f; stroke-linejoin: miter"/>
     <use xlink:href="#mf9aa8d9018" x="58.475888" y="376.683553" style="fill: #6aa84f; stroke: #6aa84f; stroke-linejoin: miter"/>
     <use xlink:href="#mf9aa8d9018" x="72.442515" y="376.483405" style="fill: #6aa84f; stroke: #6aa84f; stroke-linejoin: miter"/>
     <use xlink:href="#mf9aa8d9018" x="85.992165" y="376.283258" style="fill: #6aa84f; stroke: #6aa84f; stroke-linejoin: miter"/>
     <use xlink:href="#mf9aa8d9018" x="99.149015" y="376.08311" style="fill: #6aa84f; stroke: #6aa84f; stroke-linejoin: miter"/>
     <use xlink:href="#mf9aa8d9018" x="111.9352" y="375.882962" style="fill: #6aa84f; stroke: #6aa84f; stroke-linejoin: miter"/>
     <use xlink:href="#mf9aa8d9018" x="124.371034" y="375.682814" style="fill: #6aa84f; stroke: #6aa84f; stroke-linejoin: miter"/>
     <use xlink:href="#mf9aa8d9018" x="136.475207" y="375.482666" style="fill: #6aa84f; stroke: #6aa84f; stroke-linejoin: miter"/>
     <use xlink:href="#mf9aa8d9018" x="148.264949" y="375.282519" style="fill: #6aa84f; stroke: #6aa84f; stroke-linejoin: miter"/>
     <use xlink:href="#mf9aa8d9018" x="159.756184" y="375.082371" style="fill: #6aa84f; stroke: #6aa84f; stroke-linejoin: miter"/>
     <use xlink:href="#mf9aa8d9018" x="170.963656" y="374.882223" style="fill: #6aa84f; stroke: #6aa84f; stroke-linejoin: miter"/>
     <use xlink:href="#mf9aa8d9018" x="181.901043" y="374.682075" style="fill: #6aa84f; stroke: #6aa84f; stroke-linejoin: miter"/>
     <use xlink:href="#mf9aa8d9018" x="192.581054" y="374.481928" style="fill: #6aa84f; stroke: #6aa84f; stroke-linejoin: miter"/>
     <use xlink:href="#mf9aa8d9018" x="203.015527" y="374.28178" style="fill: #6aa84f; stroke: #6aa84f; stroke-linejoin: miter"/>
     <use xlink:href="#mf9aa8d9018" x="213.215496" y="374.081632" style="fill: #6aa84f; stroke: #6aa84f; stroke-linejoin: miter"/>
     <use xlink:href="#mf9aa8d9018" x="223.191273" y="373.881484" style="fill: #6aa84f; stroke: #6aa84f; stroke-linejoin: miter"/>
     <use xlink:href="#mf9aa8d9018" x="232.9525" y="373.681337" style="fill: #6aa84f; stroke: #6aa84f; stroke-linejoin: miter"/>
     <use xlink:href="#mf9aa8d9018" x="242.508212" y="373.481189" style="fill: #6aa84f; stroke: #6aa84f; stroke-linejoin: miter"/>
     <use xlink:href="#mf9aa8d9018" x="251.866885" y="373.281041" style="fill: #6aa84f; stroke: #6aa84f; stroke-linejoin: miter"/>
     <use xlink:href="#mf9aa8d9018" x="261.036481" y="373.080893" style="fill: #6aa84f; stroke: #6aa84f; stroke-linejoin: miter"/>
     <use xlink:href="#mf9aa8d9018" x="270.024488" y="372.880746" style="fill: #6aa84f; stroke: #6aa84f; stroke-linejoin: miter"/>
     <use xlink:href="#mf9aa8d9018" x="278.837961" y="372.680598" style="fill: #6aa84f; stroke: #6aa84f; stroke-linejoin: miter"/>
     <use xlink:href="#mf9aa8d9018" x="287.483547" y="372.48045" style="fill: #6aa84f; stroke: #6aa84f; stroke-linejoin: miter"/>
     <use xlink:href="#mf9aa8d9018" x="295.967524" y="372.280302" style="fill: #6aa84f; stroke: #6aa84f; stroke-linejoin: miter"/>
     <use xlink:href="#mf9aa8d9018" x="304.295823" y="372.080155" style="fill: #6aa84f; stroke: #6aa84f; stroke-linejoin: miter"/>
     <use xlink:href="#mf9aa8d9018" x="312.474054" y="371.880007" style="fill: #6aa84f; stroke: #6aa84f; stroke-linejoin: miter"/>
     <use xlink:href="#mf9aa8d9018" x="320.50753" y="371.679859" style="fill: #6aa84f; stroke: #6aa84f; stroke-linejoin: miter"/>
     <use xlink:href="#mf9aa8d9018" x="328.401287" y="364.661164" style="fill: #6aa84f; stroke: #6aa84f; stroke-linejoin: miter"/>
     <use xlink:href="#mf9aa8d9018" x="336.160101" y="265.164568" style="fill: #6aa84f; stroke: #6aa84f; stroke-linejoin: miter"/>
     <use xlink:href="#mf9aa8d9018" x="343.788508" y="206.910532" style="fill: #6aa84f; stroke: #6aa84f; stroke-linejoin: miter"/>
     <use xlink:href="#mf9aa8d9018" x="351.29082" y="153.458083" style="fill: #6aa84f; stroke: #6aa84f; stroke-linejoin: miter"/>
    </g>
   </g>
   <g id="line2d_28">
    <path d="M -1 376.781769 
L 80.888248 375.53489 
L 157.628538 374.143476 
L 226.729023 372.672552 
L 274.376738 371.519666 
L 275.933788 355.749444 
L 277.485514 344.06067 
L 279.031954 316.947821 
L 280.573142 292.298872 
L 282.109115 281.77926 
L 283.639908 267.364416 
L 285.165555 256.203872 
L 286.686091 238.532816 
L 289.711965 215.714174 
L 291.217372 196.767931 
L 292.717801 187.589595 
L 294.213287 165.427092 
L 295.703862 116.213135 
L 297.189557 100.197026 
L 298.670405 75.456797 
L 300.146438 53.042503 
L 301.617686 35.320871 
L 301.617686 35.320871 
" clip-path="url(#p0f57aabf7a)" style="fill: none; stroke-dasharray: 7.68,1.92,1.2,1.92; stroke-dashoffset: 0; stroke: #a64d79; stroke-width: 1.2"/>
    <defs>
     <path id="m32499caadb" d="M 0 2.828427 
L 2.828427 0 
L 0 -2.828427 
L -2.828427 0 
z
" style="stroke: #a64d79; stroke-linejoin: miter"/>
    </defs>
    <g clip-path="url(#p0f57aabf7a)">
     <use xlink:href="#m32499caadb" x="-1" y="376.781175" style="fill: #a64d79; stroke: #a64d79; stroke-linejoin: miter"/>
     <use xlink:href="#m32499caadb" x="2.888929" y="376.727531" style="fill: #a64d79; stroke: #a64d79; stroke-linejoin: miter"/>
     <use xlink:href="#m32499caadb" x="16.855556" y="376.528757" style="fill: #a64d79; stroke: #a64d79; stroke-linejoin: miter"/>
     <use xlink:href="#m32499caadb" x="30.405206" y="376.329984" style="fill: #a64d79; stroke: #a64d79; stroke-linejoin: miter"/>
     <use xlink:href="#m32499caadb" x="43.562056" y="376.13121" style="fill: #a64d79; stroke: #a64d79; stroke-linejoin: miter"/>
     <use xlink:href="#m32499caadb" x="56.348242" y="375.932437" style="fill: #a64d79; stroke: #a64d79; stroke-linejoin: miter"/>
     <use xlink:href="#m32499caadb" x="68.784076" y="375.733663" style="fill: #a64d79; stroke: #a64d79; stroke-linejoin: miter"/>
     <use xlink:href="#m32499caadb" x="80.888248" y="375.53489" style="fill: #a64d79; stroke: #a64d79; stroke-linejoin: miter"/>
     <use xlink:href="#m32499caadb" x="92.67799" y="375.336116" style="fill: #a64d79; stroke: #a64d79; stroke-linejoin: miter"/>
     <use xlink:href="#m32499caadb" x="104.169226" y="375.137343" style="fill: #a64d79; stroke: #a64d79; stroke-linejoin: miter"/>
     <use xlink:href="#m32499caadb" x="115.376698" y="374.93857" style="fill: #a64d79; stroke: #a64d79; stroke-linejoin: miter"/>
     <use xlink:href="#m32499caadb" x="126.314084" y="374.739796" style="fill: #a64d79; stroke: #a64d79; stroke-linejoin: miter"/>
     <use xlink:href="#m32499caadb" x="136.994096" y="374.541023" style="fill: #a64d79; stroke: #a64d79; stroke-linejoin: miter"/>
     <use xlink:href="#m32499caadb" x="147.428568" y="374.342249" style="fill: #a64d79; stroke: #a64d79; stroke-linejoin: miter"/>
     <use xlink:href="#m32499caadb" x="157.628538" y="374.143476" style="fill: #a64d79; stroke: #a64d79; stroke-linejoin: miter"/>
     <use xlink:href="#m32499caadb" x="167.604314" y="373.944702" style="fill: #a64d79; stroke: #a64d79; stroke-linejoin: miter"/>
     <use xlink:href="#m32499caadb" x="177.365541" y="373.745929" style="fill: #a64d79; stroke: #a64d79; stroke-linejoin: miter"/>
     <use xlink:href="#m32499caadb" x="186.921253" y="373.547155" style="fill: #a64d79; stroke: #a64d79; stroke-linejoin: miter"/>
     <use xlink:href="#m32499caadb" x="196.279926" y="373.348382" style="fill: #a64d79; stroke: #a64d79; stroke-linejoin: miter"/>
     <use xlink:href="#m32499caadb" x="205.449522" y="373.149608" style="fill: #a64d79; stroke: #a64d79; stroke-linejoin: miter"/>
     <use xlink:href="#m32499caadb" x="214.43753" y="372.950835" style="fill: #a64d79; stroke: #a64d79; stroke-linejoin: miter"/>
     <use xlink:href="#m32499caadb" x="223.251002" y="372.752061" style="fill: #a64d79; stroke: #a64d79; stroke-linejoin: miter"/>
     <use xlink:href="#m32499caadb" x="231.896588" y="372.553288" style="fill: #a64d79; stroke: #a64d79; stroke-linejoin: miter"/>
     <use xlink:href="#m32499caadb" x="240.380565" y="372.354515" style="fill: #a64d79; stroke: #a64d79; stroke-linejoin: miter"/>
     <use xlink:href="#m32499caadb" x="248.708864" y="372.155741" style="fill: #a64d79; stroke: #a64d79; stroke-linejoin: miter"/>
     <use xlink:href="#m32499caadb" x="256.887096" y="371.956968" style="fill: #a64d79; stroke: #a64d79; stroke-linejoin: miter"/>
     <use xlink:href="#m32499caadb" x="264.920572" y="371.758194" style="fill: #a64d79; stroke: #a64d79; stroke-linejoin: miter"/>
     <use xlink:href="#m32499caadb" x="272.814328" y="371.559421" style="fill: #a64d79; stroke: #a64d79; stroke-linejoin: miter"/>
     <use xlink:href="#m32499caadb" x="280.573142" y="292.298872" style="fill: #a64d79; stroke: #a64d79; stroke-linejoin: miter"/>
     <use xlink:href="#m32499caadb" x="288.20155" y="226.81955" style="fill: #a64d79; stroke: #a64d79; stroke-linejoin: miter"/>
     <use xlink:href="#m32499caadb" x="295.703862" y="116.213135" style="fill: #a64d79; stroke: #a64d79; stroke-linejoin: miter"/>
    </g>
   </g>
   <g id="line2d_29">
    <path d="M -1 373.673003 
L 66.432706 372.164938 
L 92.19165 371.527079 
L 93.754059 367.934624 
L 95.311109 346.982627 
L 96.862836 333.810191 
L 98.409275 301.266069 
L 101.486436 280.943211 
L 103.017229 269.87607 
L 106.063412 250.244383 
L 107.578871 231.781654 
L 109.089287 216.209296 
L 110.594693 205.693615 
L 112.095123 192.756395 
L 113.590609 148.358531 
L 115.081183 128.728237 
L 116.566879 95.461358 
L 118.047727 66.941936 
L 119.523759 54.748999 
L 120.995007 35.320871 
L 120.995007 35.320871 
" clip-path="url(#p0f57aabf7a)" style="fill: none; stroke-dasharray: 7.68,1.92,1.2,1.92; stroke-dashoffset: 0; stroke: #f6b26b; stroke-width: 1.2"/>
    <defs>
     <path id="m2f4be78c34" d="M -2 2 
L 2 -2 
M -2 -2 
L 2 2 
" style="stroke: #f6b26b"/>
    </defs>
    <g clip-path="url(#p0f57aabf7a)">
     <use xlink:href="#m2f4be78c34" x="-1" y="373.672637" style="fill: #f6b26b; stroke: #f6b26b"/>
     <use xlink:href="#m2f4be78c34" x="6.298575" y="373.52039" style="fill: #f6b26b; stroke: #f6b26b"/>
     <use xlink:href="#m2f4be78c34" x="15.657248" y="373.321059" style="fill: #f6b26b; stroke: #f6b26b"/>
     <use xlink:href="#m2f4be78c34" x="24.826843" y="373.121728" style="fill: #f6b26b; stroke: #f6b26b"/>
     <use xlink:href="#m2f4be78c34" x="33.814851" y="372.922396" style="fill: #f6b26b; stroke: #f6b26b"/>
     <use xlink:href="#m2f4be78c34" x="42.628323" y="372.723065" style="fill: #f6b26b; stroke: #f6b26b"/>
     <use xlink:href="#m2f4be78c34" x="51.27391" y="372.523734" style="fill: #f6b26b; stroke: #f6b26b"/>
     <use xlink:href="#m2f4be78c34" x="59.757887" y="372.324403" style="fill: #f6b26b; stroke: #f6b26b"/>
     <use xlink:href="#m2f4be78c34" x="68.086186" y="372.125072" style="fill: #f6b26b; stroke: #f6b26b"/>
     <use xlink:href="#m2f4be78c34" x="76.264417" y="371.925741" style="fill: #f6b26b; stroke: #f6b26b"/>
     <use xlink:href="#m2f4be78c34" x="84.297893" y="371.72641" style="fill: #f6b26b; stroke: #f6b26b"/>
     <use xlink:href="#m2f4be78c34" x="92.19165" y="371.527079" style="fill: #f6b26b; stroke: #f6b26b"/>
     <use xlink:href="#m2f4be78c34" x="99.950463" y="291.22847" style="fill: #f6b26b; stroke: #f6b26b"/>
     <use xlink:href="#m2f4be78c34" x="107.578871" y="231.781654" style="fill: #f6b26b; stroke: #f6b26b"/>
     <use xlink:href="#m2f4be78c34" x="115.081183" y="128.728237" style="fill: #f6b26b; stroke: #f6b26b"/>
    </g>
   </g>
   <g id="line2d_30">
    <path d="M -1 376.96656 
L 81.808057 375.741342 
L 158.76756 374.383756 
L 229.921569 372.906382 
L 288.298368 371.508866 
L 289.860777 362.076913 
L 294.515993 329.184454 
L 299.123947 298.792853 
L 303.685589 269.326743 
L 305.196005 243.276215 
L 308.201841 177.952894 
L 309.697326 138.404041 
L 311.187901 89.01678 
L 312.673596 65.418684 
L 314.154445 56.524903 
L 315.630477 48.36678 
L 317.101725 35.320871 
L 317.101725 35.320871 
" clip-path="url(#p0f57aabf7a)" style="fill: none; stroke-dasharray: 7.68,1.92,1.2,1.92; stroke-dashoffset: 0; stroke: #8e7cc3; stroke-width: 1.2"/>
    <defs>
     <path id="mb0c840effe" d="M -2 0 
L 2 0 
M 0 2 
L 0 -2 
" style="stroke: #8e7cc3"/>
    </defs>
    <g clip-path="url(#p0f57aabf7a)">
     <use xlink:href="#mb0c840effe" x="-1" y="376.965859" style="fill: #8e7cc3; stroke: #8e7cc3"/>
     <use xlink:href="#mb0c840effe" x="3.962884" y="376.899284" style="fill: #8e7cc3; stroke: #8e7cc3"/>
     <use xlink:href="#mb0c840effe" x="18.372969" y="376.699639" style="fill: #8e7cc3; stroke: #8e7cc3"/>
     <use xlink:href="#mb0c840effe" x="32.339596" y="376.499993" style="fill: #8e7cc3; stroke: #8e7cc3"/>
     <use xlink:href="#mb0c840effe" x="45.889245" y="376.300348" style="fill: #8e7cc3; stroke: #8e7cc3"/>
     <use xlink:href="#mb0c840effe" x="59.046096" y="376.100703" style="fill: #8e7cc3; stroke: #8e7cc3"/>
     <use xlink:href="#mb0c840effe" x="71.832281" y="375.901058" style="fill: #8e7cc3; stroke: #8e7cc3"/>
     <use xlink:href="#mb0c840effe" x="84.268115" y="375.701413" style="fill: #8e7cc3; stroke: #8e7cc3"/>
     <use xlink:href="#mb0c840effe" x="96.372287" y="375.501768" style="fill: #8e7cc3; stroke: #8e7cc3"/>
     <use xlink:href="#mb0c840effe" x="108.16203" y="375.302123" style="fill: #8e7cc3; stroke: #8e7cc3"/>
     <use xlink:href="#mb0c840effe" x="119.653265" y="375.102478" style="fill: #8e7cc3; stroke: #8e7cc3"/>
     <use xlink:href="#mb0c840effe" x="130.860737" y="374.902833" style="fill: #8e7cc3; stroke: #8e7cc3"/>
     <use xlink:href="#mb0c840effe" x="141.798123" y="374.703188" style="fill: #8e7cc3; stroke: #8e7cc3"/>
     <use xlink:href="#mb0c840effe" x="152.478135" y="374.503543" style="fill: #8e7cc3; stroke: #8e7cc3"/>
     <use xlink:href="#mb0c840effe" x="162.912607" y="374.303898" style="fill: #8e7cc3; stroke: #8e7cc3"/>
     <use xlink:href="#mb0c840effe" x="173.112577" y="374.104252" style="fill: #8e7cc3; stroke: #8e7cc3"/>
     <use xlink:href="#mb0c840effe" x="183.088354" y="373.904607" style="fill: #8e7cc3; stroke: #8e7cc3"/>
     <use xlink:href="#mb0c840effe" x="192.84958" y="373.704962" style="fill: #8e7cc3; stroke: #8e7cc3"/>
     <use xlink:href="#mb0c840effe" x="202.405292" y="373.505317" style="fill: #8e7cc3; stroke: #8e7cc3"/>
     <use xlink:href="#mb0c840effe" x="211.763965" y="373.305672" style="fill: #8e7cc3; stroke: #8e7cc3"/>
     <use xlink:href="#mb0c840effe" x="220.933561" y="373.106027" style="fill: #8e7cc3; stroke: #8e7cc3"/>
     <use xlink:href="#mb0c840effe" x="229.921569" y="372.906382" style="fill: #8e7cc3; stroke: #8e7cc3"/>
     <use xlink:href="#mb0c840effe" x="238.735041" y="372.706737" style="fill: #8e7cc3; stroke: #8e7cc3"/>
     <use xlink:href="#mb0c840effe" x="247.380628" y="372.507092" style="fill: #8e7cc3; stroke: #8e7cc3"/>
     <use xlink:href="#mb0c840effe" x="255.864605" y="372.307447" style="fill: #8e7cc3; stroke: #8e7cc3"/>
     <use xlink:href="#mb0c840effe" x="264.192904" y="372.107802" style="fill: #8e7cc3; stroke: #8e7cc3"/>
     <use xlink:href="#mb0c840effe" x="272.371135" y="371.908157" style="fill: #8e7cc3; stroke: #8e7cc3"/>
     <use xlink:href="#mb0c840effe" x="280.404611" y="371.708511" style="fill: #8e7cc3; stroke: #8e7cc3"/>
     <use xlink:href="#mb0c840effe" x="288.298368" y="371.508866" style="fill: #8e7cc3; stroke: #8e7cc3"/>
     <use xlink:href="#mb0c840effe" x="296.057181" y="318.791671" style="fill: #8e7cc3; stroke: #8e7cc3"/>
     <use xlink:href="#mb0c840effe" x="303.685589" y="269.326743" style="fill: #8e7cc3; stroke: #8e7cc3"/>
     <use xlink:href="#mb0c840effe" x="311.187901" y="89.01678" style="fill: #8e7cc3; stroke: #8e7cc3"/>
    </g>
   </g>
   <g id="patch_3">
    <path d="M 45.587813 383.088281 
L 45.587813 17.9325 
" style="fill: none; stroke: #000000; stroke-width: 0.5; stroke-linejoin: miter; stroke-linecap: square"/>
   </g>
   <g id="patch_4">
    <path d="M 558 383.088281 
L 558 17.9325 
" style="fill: none; stroke: #000000; stroke-width: 0.5; stroke-linejoin: miter; stroke-linecap: square"/>
   </g>
   <g id="patch_5">
    <path d="M 45.587812 383.088281 
L 558 383.088281 
" style="fill: none; stroke: #000000; stroke-width: 0.5; stroke-linejoin: miter; stroke-linecap: square"/>
   </g>
   <g id="patch_6">
    <path d="M 45.587812 17.9325 
L 558 17.9325 
" style="fill: none; stroke: #000000; stroke-width: 0.5; stroke-linejoin: miter; stroke-linecap: square"/>
   </g>
   <g id="text_11">
    <g id="patch_7">
     <path d="M 71.208422 56.506102 
L 214.153734 56.506102 
Q 216.853734 56.506102 216.853734 53.806102 
L 216.853734 36.173414 
Q 216.853734 33.473414 214.153734 33.473414 
L 71.208422 33.473414 
Q 68.508422 33.473414 68.508422 36.173414 
L 68.508422 53.806102 
Q 68.508422 56.506102 71.208422 56.506102 
z
" style="fill: #ffffff; opacity: 0.8; stroke: #808080; stroke-linejoin: miter"/>
    </g>
    <!-- Log scale provides clearer visualization -->
    <g transform="translate(71.208422 42.439664) scale(0.09 -0.09)">
     <defs>
      <path id="TimesNewRomanPSMT-4c" d="M 3669 1172 
L 3772 1150 
L 3409 0 
L 128 0 
L 128 116 
L 288 116 
Q 556 116 672 291 
Q 738 391 738 753 
L 738 3488 
Q 738 3884 650 3984 
Q 528 4122 288 4122 
L 128 4122 
L 128 4238 
L 2047 4238 
L 2047 4122 
Q 1709 4125 1573 4059 
Q 1438 3994 1388 3894 
Q 1338 3794 1338 3416 
L 1338 753 
Q 1338 494 1388 397 
Q 1425 331 1503 300 
Q 1581 269 1991 269 
L 2300 269 
Q 2788 269 2984 341 
Q 3181 413 3343 595 
Q 3506 778 3669 1172 
z
" transform="scale(0.015625)"/>
      <path id="TimesNewRomanPSMT-70" d="M -6 2578 
L 875 2934 
L 994 2934 
L 994 2266 
Q 1216 2644 1439 2795 
Q 1663 2947 1909 2947 
Q 2341 2947 2628 2609 
Q 2981 2197 2981 1534 
Q 2981 794 2556 309 
Q 2206 -88 1675 -88 
Q 1444 -88 1275 -22 
Q 1150 25 994 166 
L 994 -706 
Q 994 -1000 1030 -1079 
Q 1066 -1159 1155 -1206 
Q 1244 -1253 1478 -1253 
L 1478 -1369 
L -22 -1369 
L -22 -1253 
L 56 -1253 
Q 228 -1256 350 -1188 
Q 409 -1153 442 -1076 
Q 475 -1000 475 -688 
L 475 2019 
Q 475 2297 450 2372 
Q 425 2447 370 2484 
Q 316 2522 222 2522 
Q 147 2522 31 2478 
L -6 2578 
z
M 994 2081 
L 994 1013 
Q 994 666 1022 556 
Q 1066 375 1236 237 
Q 1406 100 1666 100 
Q 1978 100 2172 344 
Q 2425 663 2425 1241 
Q 2425 1897 2138 2250 
Q 1938 2494 1663 2494 
Q 1513 2494 1366 2419 
Q 1253 2363 994 2081 
z
" transform="scale(0.015625)"/>
      <path id="TimesNewRomanPSMT-64" d="M 2222 322 
Q 2013 103 1813 7 
Q 1613 -88 1381 -88 
Q 913 -88 563 304 
Q 213 697 213 1313 
Q 213 1928 600 2439 
Q 988 2950 1597 2950 
Q 1975 2950 2222 2709 
L 2222 3238 
Q 2222 3728 2198 3840 
Q 2175 3953 2125 3993 
Q 2075 4034 2000 4034 
Q 1919 4034 1784 3984 
L 1744 4094 
L 2597 4444 
L 2738 4444 
L 2738 1134 
Q 2738 631 2761 520 
Q 2784 409 2836 365 
Q 2888 322 2956 322 
Q 3041 322 3181 375 
L 3216 266 
L 2366 -88 
L 2222 -88 
L 2222 322 
z
M 2222 541 
L 2222 2016 
Q 2203 2228 2109 2403 
Q 2016 2578 1861 2667 
Q 1706 2756 1559 2756 
Q 1284 2756 1069 2509 
Q 784 2184 784 1559 
Q 784 928 1059 592 
Q 1334 256 1672 256 
Q 1956 256 2222 541 
z
" transform="scale(0.015625)"/>
      <path id="TimesNewRomanPSMT-7a" d="M 2688 878 
L 2653 0 
L 128 0 
L 128 113 
L 2028 2644 
L 1091 2644 
Q 788 2644 694 2605 
Q 600 2566 541 2456 
Q 456 2300 444 2069 
L 319 2069 
L 338 2863 
L 2738 2863 
L 2738 2747 
L 819 209 
L 1863 209 
Q 2191 209 2308 264 
Q 2425 319 2497 456 
Q 2547 556 2581 878 
L 2688 878 
z
" transform="scale(0.015625)"/>
     </defs>
     <use xlink:href="#TimesNewRomanPSMT-4c"/>
     <use xlink:href="#TimesNewRomanPSMT-6f" x="61.083984"/>
     <use xlink:href="#TimesNewRomanPSMT-67" x="111.083984"/>
     <use xlink:href="#TimesNewRomanPSMT-20" x="161.083984"/>
     <use xlink:href="#TimesNewRomanPSMT-73" x="186.083984"/>
     <use xlink:href="#TimesNewRomanPSMT-63" x="225"/>
     <use xlink:href="#TimesNewRomanPSMT-61" x="269.384766"/>
     <use xlink:href="#TimesNewRomanPSMT-6c" x="313.769531"/>
     <use xlink:href="#TimesNewRomanPSMT-65" x="341.552734"/>
     <use xlink:href="#TimesNewRomanPSMT-20" x="385.9375"/>
     <use xlink:href="#TimesNewRomanPSMT-70" x="410.9375"/>
     <use xlink:href="#TimesNewRomanPSMT-72" x="460.9375"/>
     <use xlink:href="#TimesNewRomanPSMT-6f" x="494.238281"/>
     <use xlink:href="#TimesNewRomanPSMT-76" x="544.238281"/>
     <use xlink:href="#TimesNewRomanPSMT-69" x="594.238281"/>
     <use xlink:href="#TimesNewRomanPSMT-64" x="622.021484"/>
     <use xlink:href="#TimesNewRomanPSMT-65" x="672.021484"/>
     <use xlink:href="#TimesNewRomanPSMT-73" x="716.40625"/>
     <use xlink:href="#TimesNewRomanPSMT-20" x="755.322266"/>
     <use xlink:href="#TimesNewRomanPSMT-63" x="780.322266"/>
     <use xlink:href="#TimesNewRomanPSMT-6c" x="824.707031"/>
     <use xlink:href="#TimesNewRomanPSMT-65" x="852.490234"/>
     <use xlink:href="#TimesNewRomanPSMT-61" x="896.875"/>
     <use xlink:href="#TimesNewRomanPSMT-72" x="941.259766"/>
     <use xlink:href="#TimesNewRomanPSMT-65" x="974.560547"/>
     <use xlink:href="#TimesNewRomanPSMT-72" x="1018.945312"/>
     <use xlink:href="#TimesNewRomanPSMT-20" x="1052.246094"/>
     <use xlink:href="#TimesNewRomanPSMT-76" x="1077.246094"/>
     <use xlink:href="#TimesNewRomanPSMT-69" x="1127.246094"/>
     <use xlink:href="#TimesNewRomanPSMT-73" x="1155.029297"/>
     <use xlink:href="#TimesNewRomanPSMT-75" x="1193.945312"/>
     <use xlink:href="#TimesNewRomanPSMT-61" x="1243.945312"/>
     <use xlink:href="#TimesNewRomanPSMT-6c" x="1288.330078"/>
     <use xlink:href="#TimesNewRomanPSMT-69" x="1316.113281"/>
     <use xlink:href="#TimesNewRomanPSMT-7a" x="1343.896484"/>
     <use xlink:href="#TimesNewRomanPSMT-61" x="1388.28125"/>
     <use xlink:href="#TimesNewRomanPSMT-74" x="1432.666016"/>
     <use xlink:href="#TimesNewRomanPSMT-69" x="1460.449219"/>
     <use xlink:href="#TimesNewRomanPSMT-6f" x="1488.232422"/>
     <use xlink:href="#TimesNewRomanPSMT-6e" x="1538.232422"/>
    </g>
    <!-- of error distribution across models -->
    <g transform="translate(71.208422 51.880945) scale(0.09 -0.09)">
     <defs>
      <path id="TimesNewRomanPSMT-66" d="M 1319 2638 
L 1319 756 
Q 1319 356 1406 250 
Q 1522 113 1716 113 
L 1975 113 
L 1975 0 
L 266 0 
L 266 113 
L 394 113 
Q 519 113 622 175 
Q 725 238 764 344 
Q 803 450 803 756 
L 803 2638 
L 247 2638 
L 247 2863 
L 803 2863 
L 803 3050 
Q 803 3478 940 3775 
Q 1078 4072 1361 4255 
Q 1644 4438 1997 4438 
Q 2325 4438 2600 4225 
Q 2781 4084 2781 3909 
Q 2781 3816 2700 3733 
Q 2619 3650 2525 3650 
Q 2453 3650 2373 3701 
Q 2294 3753 2178 3923 
Q 2063 4094 1966 4153 
Q 1869 4213 1750 4213 
Q 1606 4213 1506 4136 
Q 1406 4059 1362 3898 
Q 1319 3738 1319 3069 
L 1319 2863 
L 2056 2863 
L 2056 2638 
L 1319 2638 
z
" transform="scale(0.015625)"/>
     </defs>
     <use xlink:href="#TimesNewRomanPSMT-6f"/>
     <use xlink:href="#TimesNewRomanPSMT-66" x="50"/>
     <use xlink:href="#TimesNewRomanPSMT-20" x="83.300781"/>
     <use xlink:href="#TimesNewRomanPSMT-65" x="108.300781"/>
     <use xlink:href="#TimesNewRomanPSMT-72" x="152.685547"/>
     <use xlink:href="#TimesNewRomanPSMT-72" x="185.986328"/>
     <use xlink:href="#TimesNewRomanPSMT-6f" x="219.287109"/>
     <use xlink:href="#TimesNewRomanPSMT-72" x="269.287109"/>
     <use xlink:href="#TimesNewRomanPSMT-20" x="302.587891"/>
     <use xlink:href="#TimesNewRomanPSMT-64" x="327.587891"/>
     <use xlink:href="#TimesNewRomanPSMT-69" x="377.587891"/>
     <use xlink:href="#TimesNewRomanPSMT-73" x="405.371094"/>
     <use xlink:href="#TimesNewRomanPSMT-74" x="444.287109"/>
     <use xlink:href="#TimesNewRomanPSMT-72" x="472.070312"/>
     <use xlink:href="#TimesNewRomanPSMT-69" x="505.371094"/>
     <use xlink:href="#TimesNewRomanPSMT-62" x="533.154297"/>
     <use xlink:href="#TimesNewRomanPSMT-75" x="583.154297"/>
     <use xlink:href="#TimesNewRomanPSMT-74" x="633.154297"/>
     <use xlink:href="#TimesNewRomanPSMT-69" x="660.9375"/>
     <use xlink:href="#TimesNewRomanPSMT-6f" x="688.720703"/>
     <use xlink:href="#TimesNewRomanPSMT-6e" x="738.720703"/>
     <use xlink:href="#TimesNewRomanPSMT-20" x="788.720703"/>
     <use xlink:href="#TimesNewRomanPSMT-61" x="813.720703"/>
     <use xlink:href="#TimesNewRomanPSMT-63" x="858.105469"/>
     <use xlink:href="#TimesNewRomanPSMT-72" x="902.490234"/>
     <use xlink:href="#TimesNewRomanPSMT-6f" x="935.791016"/>
     <use xlink:href="#TimesNewRomanPSMT-73" x="985.791016"/>
     <use xlink:href="#TimesNewRomanPSMT-73" x="1024.707031"/>
     <use xlink:href="#TimesNewRomanPSMT-20" x="1063.623047"/>
     <use xlink:href="#TimesNewRomanPSMT-6d" x="1088.623047"/>
     <use xlink:href="#TimesNewRomanPSMT-6f" x="1166.40625"/>
     <use xlink:href="#TimesNewRomanPSMT-64" x="1216.40625"/>
     <use xlink:href="#TimesNewRomanPSMT-65" x="1266.40625"/>
     <use xlink:href="#TimesNewRomanPSMT-6c" x="1310.791016"/>
     <use xlink:href="#TimesNewRomanPSMT-73" x="1338.574219"/>
    </g>
   </g>
   <g id="text_12">
    <!-- Cumulative Distribution of RMSE Values -->
    <g transform="translate(201.570469 11.9325) scale(0.12 -0.12)">
     <defs>
      <path id="TimesNewRomanPSMT-56" d="M 4544 4238 
L 4544 4122 
Q 4319 4081 4203 3978 
Q 4038 3825 3909 3509 
L 2431 -97 
L 2316 -97 
L 728 3556 
Q 606 3838 556 3900 
Q 478 3997 364 4051 
Q 250 4106 56 4122 
L 56 4238 
L 1788 4238 
L 1788 4122 
Q 1494 4094 1406 4022 
Q 1319 3950 1319 3838 
Q 1319 3681 1463 3350 
L 2541 866 
L 3541 3319 
Q 3688 3681 3688 3822 
Q 3688 3913 3597 3995 
Q 3506 4078 3291 4113 
Q 3275 4116 3238 4122 
L 3238 4238 
L 4544 4238 
z
" transform="scale(0.015625)"/>
     </defs>
     <use xlink:href="#TimesNewRomanPSMT-43"/>
     <use xlink:href="#TimesNewRomanPSMT-75" x="66.699219"/>
     <use xlink:href="#TimesNewRomanPSMT-6d" x="116.699219"/>
     <use xlink:href="#TimesNewRomanPSMT-75" x="194.482422"/>
     <use xlink:href="#TimesNewRomanPSMT-6c" x="244.482422"/>
     <use xlink:href="#TimesNewRomanPSMT-61" x="272.265625"/>
     <use xlink:href="#TimesNewRomanPSMT-74" x="316.650391"/>
     <use xlink:href="#TimesNewRomanPSMT-69" x="344.433594"/>
     <use xlink:href="#TimesNewRomanPSMT-76" x="372.216797"/>
     <use xlink:href="#TimesNewRomanPSMT-65" x="422.216797"/>
     <use xlink:href="#TimesNewRomanPSMT-20" x="466.601562"/>
     <use xlink:href="#TimesNewRomanPSMT-44" x="491.601562"/>
     <use xlink:href="#TimesNewRomanPSMT-69" x="563.818359"/>
     <use xlink:href="#TimesNewRomanPSMT-73" x="591.601562"/>
     <use xlink:href="#TimesNewRomanPSMT-74" x="630.517578"/>
     <use xlink:href="#TimesNewRomanPSMT-72" x="658.300781"/>
     <use xlink:href="#TimesNewRomanPSMT-69" x="691.601562"/>
     <use xlink:href="#TimesNewRomanPSMT-62" x="719.384766"/>
     <use xlink:href="#TimesNewRomanPSMT-75" x="769.384766"/>
     <use xlink:href="#TimesNewRomanPSMT-74" x="819.384766"/>
     <use xlink:href="#TimesNewRomanPSMT-69" x="847.167969"/>
     <use xlink:href="#TimesNewRomanPSMT-6f" x="874.951172"/>
     <use xlink:href="#TimesNewRomanPSMT-6e" x="924.951172"/>
     <use xlink:href="#TimesNewRomanPSMT-20" x="974.951172"/>
     <use xlink:href="#TimesNewRomanPSMT-6f" x="999.951172"/>
     <use xlink:href="#TimesNewRomanPSMT-66" x="1049.951172"/>
     <use xlink:href="#TimesNewRomanPSMT-20" x="1083.251953"/>
     <use xlink:href="#TimesNewRomanPSMT-52" x="1108.251953"/>
     <use xlink:href="#TimesNewRomanPSMT-4d" x="1174.951172"/>
     <use xlink:href="#TimesNewRomanPSMT-53" x="1263.867188"/>
     <use xlink:href="#TimesNewRomanPSMT-45" x="1319.482422"/>
     <use xlink:href="#TimesNewRomanPSMT-20" x="1380.566406"/>
     <use xlink:href="#TimesNewRomanPSMT-56" x="1403.816406"/>
     <use xlink:href="#TimesNewRomanPSMT-61" x="1464.908203"/>
     <use xlink:href="#TimesNewRomanPSMT-6c" x="1509.292969"/>
     <use xlink:href="#TimesNewRomanPSMT-75" x="1537.076172"/>
     <use xlink:href="#TimesNewRomanPSMT-65" x="1587.076172"/>
     <use xlink:href="#TimesNewRomanPSMT-73" x="1631.460938"/>
    </g>
   </g>
   <g id="legend_1">
    <g id="patch_8">
     <path d="M 481.30875 379.088281 
L 552.4 379.088281 
Q 554 379.088281 554 377.488281 
L 554 310.420781 
Q 554 308.820781 552.4 308.820781 
L 481.30875 308.820781 
Q 479.70875 308.820781 479.70875 310.420781 
L 479.70875 377.488281 
Q 479.70875 379.088281 481.30875 379.088281 
z
" style="fill: #ffffff; opacity: 0.9; stroke: #cccccc; stroke-linejoin: miter"/>
    </g>
    <g id="line2d_31">
     <path d="M 482.90875 314.820781 
L 490.90875 314.820781 
L 498.90875 314.820781 
" style="fill: none; stroke-dasharray: 7.68,1.92,1.2,1.92; stroke-dashoffset: 0; stroke: #3d85c6; stroke-width: 1.2"/>
     <g>
      <use xlink:href="#meff87d3d83" x="490.90875" y="314.820781" style="fill: #3d85c6; stroke: #3d85c6"/>
     </g>
    </g>
    <g id="text_13">
     <!-- ARIMA -->
     <g transform="translate(505.30875 317.620781) scale(0.08 -0.08)">
      <defs>
       <path id="TimesNewRomanPSMT-41" d="M 2928 1419 
L 1288 1419 
L 1000 750 
Q 894 503 894 381 
Q 894 284 986 211 
Q 1078 138 1384 116 
L 1384 0 
L 50 0 
L 50 116 
Q 316 163 394 238 
Q 553 388 747 847 
L 2238 4334 
L 2347 4334 
L 3822 809 
Q 4000 384 4145 257 
Q 4291 131 4550 116 
L 4550 0 
L 2878 0 
L 2878 116 
Q 3131 128 3220 200 
Q 3309 272 3309 375 
Q 3309 513 3184 809 
L 2928 1419 
z
M 2841 1650 
L 2122 3363 
L 1384 1650 
L 2841 1650 
z
" transform="scale(0.015625)"/>
       <path id="TimesNewRomanPSMT-49" d="M 1975 116 
L 1975 0 
L 159 0 
L 159 116 
L 309 116 
Q 572 116 691 269 
Q 766 369 766 750 
L 766 3488 
Q 766 3809 725 3913 
Q 694 3991 597 4047 
Q 459 4122 309 4122 
L 159 4122 
L 159 4238 
L 1975 4238 
L 1975 4122 
L 1822 4122 
Q 1563 4122 1444 3969 
Q 1366 3869 1366 3488 
L 1366 750 
Q 1366 428 1406 325 
Q 1438 247 1538 191 
Q 1672 116 1822 116 
L 1975 116 
z
" transform="scale(0.015625)"/>
      </defs>
      <use xlink:href="#TimesNewRomanPSMT-41"/>
      <use xlink:href="#TimesNewRomanPSMT-52" x="72.216797"/>
      <use xlink:href="#TimesNewRomanPSMT-49" x="138.916016"/>
      <use xlink:href="#TimesNewRomanPSMT-4d" x="172.216797"/>
      <use xlink:href="#TimesNewRomanPSMT-41" x="261.132812"/>
     </g>
    </g>
    <g id="line2d_32">
     <path d="M 482.90875 326.132031 
L 490.90875 326.132031 
L 498.90875 326.132031 
" style="fill: none; stroke-dasharray: 7.68,1.92,1.2,1.92; stroke-dashoffset: 0; stroke: #e06666; stroke-width: 1.2"/>
     <g>
      <use xlink:href="#mdb2f6205aa" x="490.90875" y="326.132031" style="fill: #e06666; stroke: #e06666; stroke-linejoin: miter"/>
     </g>
    </g>
    <g id="text_14">
     <!-- CNN-LSTM -->
     <g transform="translate(505.30875 328.932031) scale(0.08 -0.08)">
      <defs>
       <path id="TimesNewRomanPSMT-4e" d="M -84 4238 
L 1066 4238 
L 3656 1059 
L 3656 3503 
Q 3656 3894 3569 3991 
Q 3453 4122 3203 4122 
L 3056 4122 
L 3056 4238 
L 4531 4238 
L 4531 4122 
L 4381 4122 
Q 4113 4122 4000 3959 
Q 3931 3859 3931 3503 
L 3931 -69 
L 3819 -69 
L 1025 3344 
L 1025 734 
Q 1025 344 1109 247 
Q 1228 116 1475 116 
L 1625 116 
L 1625 0 
L 150 0 
L 150 116 
L 297 116 
Q 569 116 681 278 
Q 750 378 750 734 
L 750 3681 
Q 566 3897 470 3965 
Q 375 4034 191 4094 
Q 100 4122 -84 4122 
L -84 4238 
z
" transform="scale(0.015625)"/>
       <path id="TimesNewRomanPSMT-2d" d="M 259 1672 
L 1875 1672 
L 1875 1200 
L 259 1200 
L 259 1672 
z
" transform="scale(0.015625)"/>
       <path id="TimesNewRomanPSMT-54" d="M 3703 4238 
L 3750 3244 
L 3631 3244 
Q 3597 3506 3538 3619 
Q 3441 3800 3280 3886 
Q 3119 3972 2856 3972 
L 2259 3972 
L 2259 734 
Q 2259 344 2344 247 
Q 2463 116 2709 116 
L 2856 116 
L 2856 0 
L 1059 0 
L 1059 116 
L 1209 116 
Q 1478 116 1591 278 
Q 1659 378 1659 734 
L 1659 3972 
L 1150 3972 
Q 853 3972 728 3928 
Q 566 3869 450 3700 
Q 334 3531 313 3244 
L 194 3244 
L 244 4238 
L 3703 4238 
z
" transform="scale(0.015625)"/>
      </defs>
      <use xlink:href="#TimesNewRomanPSMT-43"/>
      <use xlink:href="#TimesNewRomanPSMT-4e" x="66.699219"/>
      <use xlink:href="#TimesNewRomanPSMT-4e" x="138.916016"/>
      <use xlink:href="#TimesNewRomanPSMT-2d" x="211.132812"/>
      <use xlink:href="#TimesNewRomanPSMT-4c" x="244.433594"/>
      <use xlink:href="#TimesNewRomanPSMT-53" x="305.517578"/>
      <use xlink:href="#TimesNewRomanPSMT-54" x="361.132812"/>
      <use xlink:href="#TimesNewRomanPSMT-4d" x="422.216797"/>
     </g>
    </g>
    <g id="line2d_33">
     <path d="M 482.90875 337.443281 
L 490.90875 337.443281 
L 498.90875 337.443281 
" style="fill: none; stroke-dasharray: 7.68,1.92,1.2,1.92; stroke-dashoffset: 0; stroke: #6aa84f; stroke-width: 1.2"/>
     <g>
      <use xlink:href="#mf9aa8d9018" x="490.90875" y="337.443281" style="fill: #6aa84f; stroke: #6aa84f; stroke-linejoin: miter"/>
     </g>
    </g>
    <g id="text_15">
     <!-- GRU -->
     <g transform="translate(505.30875 340.243281) scale(0.08 -0.08)">
      <defs>
       <path id="TimesNewRomanPSMT-47" d="M 3928 4334 
L 4038 2997 
L 3928 2997 
Q 3763 3497 3500 3750 
Q 3122 4116 2528 4116 
Q 1719 4116 1297 3475 
Q 944 2934 944 2188 
Q 944 1581 1178 1081 
Q 1413 581 1792 348 
Q 2172 116 2572 116 
Q 2806 116 3025 175 
Q 3244 234 3447 350 
L 3447 1575 
Q 3447 1894 3398 1992 
Q 3350 2091 3248 2142 
Q 3147 2194 2891 2194 
L 2891 2313 
L 4531 2313 
L 4531 2194 
L 4453 2194 
Q 4209 2194 4119 2031 
Q 4056 1916 4056 1575 
L 4056 278 
Q 3697 84 3347 -6 
Q 2997 -97 2569 -97 
Q 1341 -97 703 691 
Q 225 1281 225 2053 
Q 225 2613 494 3125 
Q 813 3734 1369 4063 
Q 1834 4334 2469 4334 
Q 2700 4334 2889 4296 
Q 3078 4259 3425 4131 
Q 3600 4066 3659 4066 
Q 3719 4066 3761 4120 
Q 3803 4175 3813 4334 
L 3928 4334 
z
" transform="scale(0.015625)"/>
       <path id="TimesNewRomanPSMT-55" d="M 3053 4122 
L 3053 4238 
L 4553 4238 
L 4553 4122 
L 4394 4122 
Q 4144 4122 4009 3913 
Q 3944 3816 3944 3463 
L 3944 1744 
Q 3944 1106 3817 754 
Q 3691 403 3320 151 
Q 2950 -100 2313 -100 
Q 1619 -100 1259 140 
Q 900 381 750 788 
Q 650 1066 650 1831 
L 650 3488 
Q 650 3878 542 4000 
Q 434 4122 194 4122 
L 34 4122 
L 34 4238 
L 1866 4238 
L 1866 4122 
L 1703 4122 
Q 1441 4122 1328 3956 
Q 1250 3844 1250 3488 
L 1250 1641 
Q 1250 1394 1295 1075 
Q 1341 756 1459 578 
Q 1578 400 1801 284 
Q 2025 169 2350 169 
Q 2766 169 3094 350 
Q 3422 531 3542 814 
Q 3663 1097 3663 1772 
L 3663 3488 
Q 3663 3884 3575 3984 
Q 3453 4122 3213 4122 
L 3053 4122 
z
" transform="scale(0.015625)"/>
      </defs>
      <use xlink:href="#TimesNewRomanPSMT-47"/>
      <use xlink:href="#TimesNewRomanPSMT-52" x="72.216797"/>
      <use xlink:href="#TimesNewRomanPSMT-55" x="138.916016"/>
     </g>
    </g>
    <g id="line2d_34">
     <path d="M 482.90875 348.754531 
L 490.90875 348.754531 
L 498.90875 348.754531 
" style="fill: none; stroke-dasharray: 7.68,1.92,1.2,1.92; stroke-dashoffset: 0; stroke: #a64d79; stroke-width: 1.2"/>
     <g>
      <use xlink:href="#m32499caadb" x="490.90875" y="348.754531" style="fill: #a64d79; stroke: #a64d79; stroke-linejoin: miter"/>
     </g>
    </g>
    <g id="text_16">
     <!-- LSTM -->
     <g transform="translate(505.30875 351.554531) scale(0.08 -0.08)">
      <use xlink:href="#TimesNewRomanPSMT-4c"/>
      <use xlink:href="#TimesNewRomanPSMT-53" x="61.083984"/>
      <use xlink:href="#TimesNewRomanPSMT-54" x="116.699219"/>
      <use xlink:href="#TimesNewRomanPSMT-4d" x="177.783203"/>
     </g>
    </g>
    <g id="line2d_35">
     <path d="M 482.90875 360.065781 
L 490.90875 360.065781 
L 498.90875 360.065781 
" style="fill: none; stroke-dasharray: 7.68,1.92,1.2,1.92; stroke-dashoffset: 0; stroke: #f6b26b; stroke-width: 1.2"/>
     <g>
      <use xlink:href="#m2f4be78c34" x="490.90875" y="360.065781" style="fill: #f6b26b; stroke: #f6b26b"/>
     </g>
    </g>
    <g id="text_17">
     <!-- SWT-CLSTM -->
     <g transform="translate(505.30875 362.865781) scale(0.08 -0.08)">
      <defs>
       <path id="TimesNewRomanPSMT-57" d="M 5991 4238 
L 5991 4122 
Q 5825 4122 5722 4062 
Q 5619 4003 5525 3841 
Q 5463 3731 5328 3319 
L 4147 -97 
L 4022 -97 
L 3056 2613 
L 2097 -97 
L 1984 -97 
L 725 3422 
Q 584 3816 547 3888 
Q 484 4006 376 4064 
Q 269 4122 84 4122 
L 84 4238 
L 1653 4238 
L 1653 4122 
L 1578 4122 
Q 1413 4122 1325 4047 
Q 1238 3972 1238 3866 
Q 1238 3756 1375 3363 
L 2209 984 
L 2913 3006 
L 2788 3363 
L 2688 3647 
Q 2622 3803 2541 3922 
Q 2500 3981 2441 4022 
Q 2363 4078 2284 4103 
Q 2225 4122 2097 4122 
L 2097 4238 
L 3747 4238 
L 3747 4122 
L 3634 4122 
Q 3459 4122 3378 4047 
Q 3297 3972 3297 3844 
Q 3297 3684 3438 3288 
L 4250 984 
L 5056 3319 
Q 5194 3706 5194 3856 
Q 5194 3928 5148 3990 
Q 5103 4053 5034 4078 
Q 4916 4122 4725 4122 
L 4725 4238 
L 5991 4238 
z
" transform="scale(0.015625)"/>
      </defs>
      <use xlink:href="#TimesNewRomanPSMT-53"/>
      <use xlink:href="#TimesNewRomanPSMT-57" x="55.615234"/>
      <use xlink:href="#TimesNewRomanPSMT-54" x="150"/>
      <use xlink:href="#TimesNewRomanPSMT-2d" x="201.958984"/>
      <use xlink:href="#TimesNewRomanPSMT-43" x="235.259766"/>
      <use xlink:href="#TimesNewRomanPSMT-4c" x="301.958984"/>
      <use xlink:href="#TimesNewRomanPSMT-53" x="363.042969"/>
      <use xlink:href="#TimesNewRomanPSMT-54" x="418.658203"/>
      <use xlink:href="#TimesNewRomanPSMT-4d" x="479.742188"/>
     </g>
    </g>
    <g id="line2d_36">
     <path d="M 482.90875 371.377031 
L 490.90875 371.377031 
L 498.90875 371.377031 
" style="fill: none; stroke-dasharray: 7.68,1.92,1.2,1.92; stroke-dashoffset: 0; stroke: #8e7cc3; stroke-width: 1.2"/>
     <g>
      <use xlink:href="#mb0c840effe" x="490.90875" y="371.377031" style="fill: #8e7cc3; stroke: #8e7cc3"/>
     </g>
    </g>
    <g id="text_18">
     <!-- TCN -->
     <g transform="translate(505.30875 374.177031) scale(0.08 -0.08)">
      <use xlink:href="#TimesNewRomanPSMT-54"/>
      <use xlink:href="#TimesNewRomanPSMT-43" x="61.083984"/>
      <use xlink:href="#TimesNewRomanPSMT-4e" x="127.783203"/>
     </g>
    </g>
   </g>
  </g>
 </g>
 <defs>
  <clipPath id="p0f57aabf7a">
   <rect x="45.587813" y="17.9325" width="512.412187" height="365.155781"/>
  </clipPath>
 </defs>
</svg>
